<svg xmlns="http://www.w3.org/2000/svg" xmlns:xlink="http://www.w3.org/1999/xlink" width="235" zoomAndPan="magnify" viewBox="0 0 176.25 53.25" height="71" preserveAspectRatio="xMidYMid meet" version="1.0"><defs><g/><clipPath id="8b9362cdad"><path d="M 18.03125 41.167969 L 60.769531 41.167969 L 60.769531 50.832031 L 18.03125 50.832031 Z M 18.03125 41.167969 " clip-rule="nonzero"/></clipPath><clipPath id="871495c40e"><path d="M 3.835938 42.371094 L 49.484375 42.371094 L 49.484375 52.511719 L 3.835938 52.511719 Z M 3.835938 42.371094 " clip-rule="nonzero"/></clipPath><clipPath id="df893afd62"><path d="M 137.78125 8.121094 L 144.796875 8.121094 L 144.796875 15.550781 L 137.78125 15.550781 Z M 137.78125 8.121094 " clip-rule="nonzero"/></clipPath><clipPath id="fb5837b00b"><path d="M 138.65625 10.542969 L 144 10.542969 L 144 15.921875 L 138.65625 15.921875 Z M 138.65625 10.542969 " clip-rule="nonzero"/></clipPath></defs><path fill="#6bc30d" d="M 10.414062 49.179688 C 10.414062 49.179688 10.554688 49.09375 10.816406 48.929688 C 11.078125 48.769531 11.460938 48.527344 11.964844 48.226562 C 12.992188 47.664062 14.480469 46.832031 16.429688 46.042969 C 17.347656 45.664062 18.363281 45.285156 19.46875 44.925781 C 21.457031 44.390625 23.585938 43.945312 25.808594 43.625 C 28.550781 43.226562 31.21875 43.046875 33.695312 43.046875 C 34.152344 43.046875 34.601562 43.054688 35.046875 43.066406 C 36.539062 43.101562 37.957031 43.195312 39.273438 43.328125 C 39.332031 43.335938 39.390625 43.34375 39.449219 43.355469 C 39.808594 43.410156 40.167969 43.46875 40.519531 43.523438 C 40.871094 43.589844 41.21875 43.664062 41.558594 43.730469 C 44.300781 44.289062 46.699219 45.058594 48.652344 45.839844 C 48.898438 45.9375 49.136719 46.03125 49.367188 46.125 C 49.597656 46.222656 49.820312 46.324219 50.035156 46.421875 C 50.25 46.519531 50.460938 46.613281 50.664062 46.703125 C 50.867188 46.796875 51.066406 46.882812 51.25 46.980469 C 51.996094 47.359375 52.640625 47.671875 53.144531 47.972656 C 53.398438 48.117188 53.625 48.242188 53.820312 48.355469 C 53.917969 48.410156 54.007812 48.460938 54.09375 48.507812 C 54.171875 48.558594 54.246094 48.605469 54.3125 48.644531 C 54.570312 48.8125 54.707031 48.898438 54.707031 48.898438 C 54.707031 48.898438 54.5625 48.828125 54.285156 48.695312 C 54.214844 48.664062 54.136719 48.625 54.050781 48.585938 C 53.964844 48.546875 53.871094 48.507812 53.765625 48.464844 C 53.558594 48.375 53.324219 48.269531 53.054688 48.15625 C 52.527344 47.910156 51.855469 47.667969 51.085938 47.363281 C 50.898438 47.285156 50.695312 47.214844 50.484375 47.144531 C 50.277344 47.070312 50.0625 46.996094 49.839844 46.921875 C 49.621094 46.84375 49.394531 46.761719 49.160156 46.683594 C 48.925781 46.613281 48.683594 46.539062 48.433594 46.460938 C 46.457031 45.847656 44.0625 45.246094 41.363281 44.824219 C 41.027344 44.769531 40.6875 44.71875 40.339844 44.664062 C 39.996094 44.621094 39.644531 44.582031 39.289062 44.539062 C 39.214844 44.527344 39.140625 44.519531 39.0625 44.511719 C 38.882812 44.472656 38.699219 44.4375 38.511719 44.402344 C 38.175781 44.351562 37.824219 44.296875 37.464844 44.242188 C 37.285156 44.214844 37.101562 44.1875 36.914062 44.160156 C 36.820312 44.148438 36.726562 44.132812 36.632812 44.125 C 36.539062 44.113281 36.445312 44.105469 36.347656 44.09375 C 35.582031 44.023438 34.777344 43.929688 33.9375 43.910156 C 33.726562 43.902344 33.515625 43.894531 33.300781 43.886719 C 33.195312 43.882812 33.089844 43.878906 32.980469 43.875 L 32.820312 43.867188 L 32.65625 43.871094 C 32.222656 43.875 31.785156 43.882812 31.339844 43.890625 C 31.117188 43.898438 30.894531 43.898438 30.675781 43.910156 C 30.457031 43.925781 30.238281 43.941406 30.023438 43.957031 C 29.589844 43.988281 29.164062 44.023438 28.746094 44.058594 C 28.328125 44.109375 27.921875 44.164062 27.519531 44.21875 C 27.121094 44.277344 26.730469 44.320312 26.351562 44.398438 C 25.589844 44.535156 24.875 44.6875 24.207031 44.847656 C 24.039062 44.875 23.871094 44.902344 23.707031 44.933594 C 21.015625 45.390625 18.628906 46.019531 16.65625 46.660156 C 14.675781 47.28125 13.132812 47.960938 12.058594 48.410156 C 11 48.90625 10.414062 49.179688 10.414062 49.179688 " fill-opacity="1" fill-rule="nonzero"/><path fill="#009bdb" d="M 18.859375 46.632812 C 18.859375 46.632812 18.941406 46.59375 19.09375 46.523438 C 19.171875 46.488281 19.269531 46.449219 19.386719 46.402344 C 19.5 46.359375 19.636719 46.304688 19.785156 46.246094 C 20.085938 46.128906 20.457031 45.988281 20.890625 45.824219 C 21.324219 45.675781 21.824219 45.519531 22.378906 45.34375 C 22.933594 45.175781 23.542969 45.007812 24.207031 44.847656 C 26.765625 44.4375 29.578125 44.183594 32.53125 44.164062 C 32.628906 44.160156 32.726562 44.160156 32.824219 44.15625 C 32.921875 44.160156 33.019531 44.160156 33.117188 44.164062 C 33.3125 44.164062 33.507812 44.167969 33.703125 44.171875 C 34.089844 44.179688 34.476562 44.179688 34.859375 44.195312 C 35.242188 44.214844 35.621094 44.234375 35.996094 44.253906 C 36.183594 44.261719 36.375 44.269531 36.558594 44.28125 C 36.746094 44.289062 36.929688 44.3125 37.117188 44.324219 C 37.484375 44.355469 37.851562 44.386719 38.214844 44.417969 C 38.304688 44.425781 38.394531 44.433594 38.484375 44.441406 C 38.578125 44.449219 38.664062 44.460938 38.753906 44.472656 C 38.859375 44.484375 38.960938 44.496094 39.0625 44.511719 C 39.527344 44.605469 39.964844 44.695312 40.375 44.78125 C 40.941406 44.925781 41.449219 45.058594 41.890625 45.175781 C 42.003906 45.207031 42.109375 45.234375 42.210938 45.265625 C 42.316406 45.296875 42.414062 45.328125 42.507812 45.359375 C 42.695312 45.417969 42.867188 45.472656 43.019531 45.523438 C 43.328125 45.625 43.566406 45.703125 43.726562 45.753906 C 43.890625 45.808594 43.972656 45.84375 43.972656 45.84375 C 43.972656 45.84375 43.886719 45.828125 43.714844 45.8125 C 43.546875 45.789062 43.296875 45.761719 42.976562 45.722656 C 42.816406 45.703125 42.640625 45.679688 42.445312 45.65625 C 42.347656 45.644531 42.246094 45.632812 42.140625 45.617188 C 42.039062 45.605469 41.925781 45.597656 41.8125 45.585938 C 41.359375 45.542969 40.839844 45.492188 40.273438 45.429688 C 39.699219 45.394531 39.078125 45.347656 38.40625 45.292969 C 38.074219 45.28125 37.726562 45.265625 37.367188 45.25 C 37.191406 45.238281 37.011719 45.230469 36.828125 45.21875 C 36.734375 45.214844 36.644531 45.207031 36.550781 45.207031 C 36.457031 45.203125 36.363281 45.203125 36.269531 45.203125 C 35.640625 45.195312 34.988281 45.164062 34.316406 45.164062 C 34.179688 45.164062 34.042969 45.164062 33.910156 45.167969 C 33.703125 45.167969 33.496094 45.167969 33.289062 45.167969 C 33.1875 45.167969 33.082031 45.167969 32.976562 45.167969 L 32.820312 45.164062 L 32.660156 45.171875 C 32.238281 45.183594 31.8125 45.195312 31.378906 45.207031 C 31.160156 45.210938 30.945312 45.210938 30.730469 45.21875 C 30.519531 45.230469 30.304688 45.242188 30.09375 45.253906 C 29.671875 45.277344 29.257812 45.296875 28.851562 45.3125 C 28.441406 45.34375 28.042969 45.375 27.648438 45.40625 C 27.257812 45.4375 26.871094 45.453125 26.5 45.5 C 25 45.644531 23.652344 45.8125 22.519531 45.984375 C 21.957031 46.078125 21.441406 46.152344 20.992188 46.226562 C 20.546875 46.316406 20.160156 46.386719 19.84375 46.445312 C 19.683594 46.472656 19.542969 46.496094 19.421875 46.519531 C 19.296875 46.539062 19.195312 46.558594 19.113281 46.578125 C 18.945312 46.613281 18.859375 46.632812 18.859375 46.632812 " fill-opacity="1" fill-rule="nonzero"/><path fill="#00770b" d="M 24.207031 44.847656 C 24.875 44.6875 25.589844 44.535156 26.351562 44.398438 C 26.730469 44.320312 27.121094 44.277344 27.519531 44.21875 C 27.921875 44.164062 28.328125 44.109375 28.746094 44.058594 C 29.164062 44.023438 29.589844 43.988281 30.023438 43.957031 C 30.238281 43.941406 30.457031 43.925781 30.675781 43.910156 C 30.894531 43.898438 31.117188 43.898438 31.339844 43.890625 C 31.785156 43.882812 32.222656 43.875 32.65625 43.871094 L 32.820312 43.867188 L 32.980469 43.875 C 33.089844 43.878906 33.195312 43.882812 33.300781 43.886719 C 33.515625 43.894531 33.726562 43.902344 33.9375 43.910156 C 34.777344 43.929688 35.582031 44.023438 36.347656 44.09375 C 36.445312 44.105469 36.539062 44.113281 36.632812 44.125 C 36.726562 44.132812 36.820312 44.148438 36.914062 44.160156 C 37.101562 44.1875 37.285156 44.214844 37.464844 44.242188 C 37.824219 44.296875 38.175781 44.351562 38.511719 44.402344 C 38.699219 44.4375 38.882812 44.472656 39.0625 44.511719 C 38.960938 44.496094 38.859375 44.484375 38.753906 44.472656 C 38.664062 44.460938 38.578125 44.449219 38.484375 44.441406 C 38.394531 44.433594 38.304688 44.425781 38.214844 44.417969 C 37.851562 44.386719 37.484375 44.355469 37.117188 44.324219 C 36.929688 44.3125 36.746094 44.289062 36.558594 44.28125 C 36.375 44.269531 36.183594 44.261719 35.996094 44.253906 C 35.621094 44.234375 35.242188 44.214844 34.859375 44.195312 C 34.476562 44.179688 34.089844 44.179688 33.703125 44.171875 C 33.507812 44.167969 33.3125 44.164062 33.117188 44.164062 C 33.019531 44.160156 32.921875 44.160156 32.824219 44.15625 C 32.726562 44.160156 32.628906 44.160156 32.53125 44.164062 C 29.578125 44.183594 26.765625 44.4375 24.207031 44.847656 " fill-opacity="1" fill-rule="nonzero"/><g clip-path="url(#8b9362cdad)"><path fill="#df1b7d" d="M 60.769531 50.820312 C 60.769531 50.820312 60.238281 50.476562 59.277344 49.851562 C 58.296875 49.265625 56.890625 48.398438 55.0625 47.527344 C 53.242188 46.648438 51.019531 45.71875 48.488281 44.917969 C 48.332031 44.867188 48.171875 44.816406 48.011719 44.761719 C 47.988281 44.753906 47.964844 44.75 47.941406 44.742188 C 47.867188 44.710938 47.785156 44.683594 47.703125 44.65625 C 47.414062 44.550781 47.09375 44.433594 46.742188 44.308594 C 46.566406 44.246094 46.382812 44.179688 46.191406 44.113281 C 46 44.050781 45.796875 43.988281 45.589844 43.921875 C 45.382812 43.859375 45.167969 43.792969 44.945312 43.722656 C 44.832031 43.6875 44.71875 43.652344 44.605469 43.617188 C 44.546875 43.601562 44.488281 43.582031 44.429688 43.566406 C 44.371094 43.550781 44.3125 43.535156 44.253906 43.519531 C 43.773438 43.390625 43.265625 43.257812 42.734375 43.121094 C 40.597656 42.605469 38.007812 42.148438 35.09375 41.957031 C 34.128906 41.890625 33.128906 41.855469 32.097656 41.855469 C 30.03125 41.855469 27.851562 41.996094 25.621094 42.320312 C 23.242188 42.667969 20.96875 43.1875 18.875 43.839844 C 18.726562 43.871094 18.601562 43.902344 18.492188 43.925781 C 18.34375 43.957031 18.234375 43.992188 18.160156 44.007812 C 18.085938 44.027344 18.050781 44.039062 18.050781 44.039062 C 18.050781 44.039062 18.085938 44.023438 18.15625 43.996094 C 18.226562 43.96875 18.332031 43.921875 18.476562 43.871094 C 18.757812 43.773438 19.175781 43.628906 19.714844 43.445312 C 19.984375 43.355469 20.28125 43.242188 20.617188 43.148438 C 20.949219 43.054688 21.3125 42.949219 21.699219 42.835938 C 21.894531 42.78125 22.097656 42.722656 22.304688 42.664062 C 22.515625 42.613281 22.734375 42.5625 22.957031 42.507812 C 23.402344 42.402344 23.875 42.285156 24.375 42.175781 C 26.375 41.761719 28.789062 41.402344 31.492188 41.273438 C 32.214844 41.234375 32.957031 41.214844 33.71875 41.214844 C 35.800781 41.214844 38.015625 41.359375 40.289062 41.695312 C 40.484375 41.722656 40.675781 41.75 40.867188 41.777344 C 41.0625 41.8125 41.25 41.84375 41.441406 41.878906 C 41.824219 41.949219 42.199219 42.019531 42.574219 42.089844 C 42.765625 42.121094 42.949219 42.167969 43.132812 42.210938 C 43.320312 42.25 43.503906 42.292969 43.6875 42.335938 C 44.050781 42.421875 44.417969 42.5 44.773438 42.59375 C 45.128906 42.691406 45.484375 42.789062 45.835938 42.886719 C 46.183594 42.988281 46.53125 43.078125 46.867188 43.195312 C 47.207031 43.304688 47.539062 43.414062 47.871094 43.523438 C 48.035156 43.578125 48.203125 43.628906 48.363281 43.6875 C 48.523438 43.746094 48.683594 43.808594 48.84375 43.867188 C 51.398438 44.808594 53.597656 45.90625 55.371094 46.949219 C 55.808594 47.214844 56.230469 47.464844 56.621094 47.710938 C 57.007812 47.972656 57.367188 48.214844 57.707031 48.445312 C 58.050781 48.667969 58.347656 48.902344 58.628906 49.109375 C 58.910156 49.320312 59.164062 49.511719 59.394531 49.683594 C 59.84375 50.042969 60.183594 50.332031 60.414062 50.523438 C 60.648438 50.71875 60.769531 50.820312 60.769531 50.820312 " fill-opacity="1" fill-rule="nonzero"/></g><g clip-path="url(#871495c40e)"><path fill="#fdc800" d="M 3.835938 52.511719 C 3.835938 52.511719 3.960938 52.398438 4.199219 52.175781 C 4.320312 52.070312 4.46875 51.933594 4.644531 51.773438 C 4.734375 51.695312 4.828125 51.609375 4.929688 51.515625 C 4.980469 51.46875 5.03125 51.421875 5.085938 51.375 C 5.113281 51.351562 5.140625 51.324219 5.167969 51.300781 C 5.195312 51.277344 5.226562 51.253906 5.257812 51.226562 C 5.496094 51.03125 5.761719 50.816406 6.050781 50.578125 C 6.195312 50.460938 6.347656 50.335938 6.507812 50.207031 C 6.667969 50.082031 6.839844 49.960938 7.015625 49.828125 C 7.371094 49.574219 7.746094 49.289062 8.152344 49.003906 C 8.570312 48.730469 9.011719 48.445312 9.472656 48.140625 C 11.34375 46.96875 13.6875 45.738281 16.421875 44.691406 C 17.207031 44.386719 18.027344 44.101562 18.875 43.839844 C 19.121094 43.785156 19.417969 43.71875 19.769531 43.640625 C 20.046875 43.582031 20.351562 43.503906 20.691406 43.445312 C 21.03125 43.382812 21.398438 43.316406 21.792969 43.242188 C 21.988281 43.207031 22.195312 43.167969 22.402344 43.128906 C 22.617188 43.097656 22.835938 43.066406 23.058594 43.03125 C 23.511719 42.96875 23.984375 42.894531 24.484375 42.824219 C 26.484375 42.578125 28.871094 42.386719 31.523438 42.382812 C 31.59375 42.382812 31.667969 42.378906 31.738281 42.378906 C 34.328125 42.378906 37.160156 42.566406 40.097656 42.996094 C 40.289062 43.023438 40.476562 43.046875 40.664062 43.074219 C 40.851562 43.105469 41.035156 43.140625 41.222656 43.171875 C 41.59375 43.238281 41.960938 43.300781 42.328125 43.367188 C 42.511719 43.394531 42.691406 43.4375 42.871094 43.476562 C 43.054688 43.511719 43.234375 43.550781 43.414062 43.589844 C 43.769531 43.667969 44.128906 43.734375 44.476562 43.816406 C 44.828125 43.902344 45.175781 43.988281 45.515625 44.074219 C 45.859375 44.160156 46.203125 44.238281 46.535156 44.339844 C 46.867188 44.433594 47.199219 44.53125 47.523438 44.621094 C 47.664062 44.664062 47.804688 44.699219 47.941406 44.742188 C 48.132812 44.816406 48.304688 44.890625 48.460938 44.953125 C 48.679688 45.042969 48.863281 45.121094 49.011719 45.179688 C 49.308594 45.304688 49.464844 45.371094 49.464844 45.371094 C 49.464844 45.371094 49.304688 45.324219 48.992188 45.234375 C 48.839844 45.191406 48.648438 45.132812 48.421875 45.066406 C 48.195312 45.003906 47.9375 44.921875 47.640625 44.851562 C 47.34375 44.773438 47.015625 44.691406 46.65625 44.601562 C 46.476562 44.554688 46.289062 44.507812 46.09375 44.457031 C 45.898438 44.414062 45.695312 44.371094 45.484375 44.324219 C 45.273438 44.28125 45.054688 44.234375 44.828125 44.183594 C 44.714844 44.160156 44.601562 44.132812 44.484375 44.109375 C 44.425781 44.097656 44.367188 44.082031 44.308594 44.070312 C 44.25 44.058594 44.191406 44.050781 44.128906 44.039062 C 43.648438 43.953125 43.140625 43.859375 42.605469 43.765625 C 41.585938 43.597656 40.46875 43.449219 39.273438 43.328125 C 39.148438 43.308594 39.027344 43.289062 38.902344 43.269531 C 38.8125 43.257812 38.71875 43.238281 38.628906 43.230469 C 38.535156 43.21875 38.441406 43.207031 38.351562 43.199219 C 37.980469 43.15625 37.605469 43.113281 37.226562 43.070312 C 37.039062 43.050781 36.847656 43.027344 36.65625 43.011719 C 36.464844 43 36.273438 42.984375 36.078125 42.972656 C 35.695312 42.945312 35.304688 42.921875 34.914062 42.894531 C 34.519531 42.875 34.125 42.871094 33.726562 42.859375 C 33.527344 42.855469 33.328125 42.851562 33.125 42.847656 C 33.027344 42.847656 32.925781 42.84375 32.824219 42.84375 C 32.722656 42.84375 32.625 42.847656 32.523438 42.847656 C 29.292969 42.871094 26.226562 43.25 23.496094 43.84375 C 22.054688 44.15625 20.707031 44.527344 19.46875 44.925781 C 18.542969 45.175781 17.652344 45.445312 16.792969 45.734375 C 14.085938 46.640625 11.722656 47.699219 9.796875 48.710938 C 9.320312 48.972656 8.867188 49.222656 8.4375 49.457031 C 8.011719 49.707031 7.621094 49.953125 7.25 50.175781 C 7.0625 50.289062 6.882812 50.390625 6.714844 50.503906 C 6.546875 50.613281 6.382812 50.722656 6.230469 50.824219 C 5.917969 51.03125 5.636719 51.222656 5.378906 51.390625 C 4.386719 52.113281 3.835938 52.511719 3.835938 52.511719 " fill-opacity="1" fill-rule="nonzero"/></g><path fill="#6a9900" d="M 19.46875 44.925781 C 20.707031 44.527344 22.054688 44.15625 23.496094 43.84375 C 26.226562 43.25 29.292969 42.871094 32.523438 42.847656 C 32.625 42.847656 32.722656 42.84375 32.824219 42.84375 C 32.925781 42.84375 33.027344 42.847656 33.125 42.847656 C 33.328125 42.851562 33.527344 42.855469 33.726562 42.859375 C 34.125 42.871094 34.519531 42.875 34.914062 42.894531 C 35.304688 42.921875 35.695312 42.945312 36.078125 42.972656 C 36.273438 42.984375 36.464844 43 36.65625 43.011719 C 36.847656 43.027344 37.039062 43.050781 37.226562 43.070312 C 37.605469 43.113281 37.980469 43.15625 38.351562 43.199219 C 38.441406 43.207031 38.535156 43.21875 38.628906 43.230469 C 38.71875 43.238281 38.8125 43.257812 38.902344 43.269531 C 39.027344 43.289062 39.148438 43.308594 39.273438 43.328125 C 37.957031 43.195312 36.539062 43.101562 35.046875 43.066406 C 34.601562 43.054688 34.152344 43.046875 33.695312 43.046875 C 31.21875 43.046875 28.550781 43.226562 25.808594 43.625 C 23.585938 43.945312 21.457031 44.390625 19.46875 44.925781 " fill-opacity="1" fill-rule="nonzero"/><path fill="#dd1500" d="M 47.941406 44.742188 C 47.804688 44.699219 47.664062 44.664062 47.523438 44.621094 C 47.199219 44.53125 46.867188 44.433594 46.535156 44.339844 C 46.203125 44.238281 45.859375 44.160156 45.515625 44.074219 C 45.175781 43.988281 44.828125 43.902344 44.476562 43.816406 C 44.128906 43.734375 43.769531 43.667969 43.414062 43.589844 C 43.234375 43.550781 43.054688 43.511719 42.871094 43.476562 C 42.691406 43.4375 42.511719 43.394531 42.328125 43.367188 C 41.960938 43.300781 41.59375 43.238281 41.222656 43.171875 C 41.035156 43.140625 40.851562 43.105469 40.664062 43.074219 C 40.476562 43.046875 40.289062 43.023438 40.097656 42.996094 C 37.160156 42.566406 34.328125 42.378906 31.738281 42.378906 C 31.667969 42.378906 31.59375 42.382812 31.523438 42.382812 C 28.871094 42.386719 26.484375 42.578125 24.484375 42.824219 C 23.984375 42.894531 23.511719 42.96875 23.058594 43.03125 C 22.835938 43.066406 22.617188 43.097656 22.402344 43.128906 C 22.195312 43.167969 21.988281 43.207031 21.792969 43.242188 C 21.398438 43.316406 21.03125 43.382812 20.691406 43.445312 C 20.351562 43.503906 20.046875 43.582031 19.769531 43.640625 C 19.417969 43.71875 19.121094 43.785156 18.875 43.839844 C 20.96875 43.1875 23.242188 42.667969 25.621094 42.320312 C 27.851562 41.996094 30.03125 41.855469 32.097656 41.855469 C 33.128906 41.855469 34.128906 41.890625 35.09375 41.957031 C 38.007812 42.148438 40.597656 42.605469 42.734375 43.121094 C 43.265625 43.257812 43.773438 43.390625 44.253906 43.519531 C 44.3125 43.535156 44.371094 43.550781 44.429688 43.566406 C 44.488281 43.582031 44.546875 43.601562 44.605469 43.617188 C 44.71875 43.652344 44.832031 43.6875 44.945312 43.722656 C 45.167969 43.792969 45.382812 43.859375 45.589844 43.921875 C 45.796875 43.988281 46 44.050781 46.191406 44.113281 C 46.382812 44.179688 46.566406 44.246094 46.742188 44.308594 C 47.09375 44.433594 47.414062 44.550781 47.703125 44.65625 C 47.785156 44.683594 47.867188 44.710938 47.941406 44.742188 " fill-opacity="1" fill-rule="nonzero"/><path fill="#009bdb" d="M 34.023438 7.238281 C 33.726562 6.933594 33.148438 7.816406 33.054688 7.71875 C 32.855469 7.507812 33.832031 6.121094 33.4375 5.941406 C 33.046875 5.765625 32.722656 7.351562 32.542969 7.261719 C 32.300781 7.136719 32.820312 5.261719 32.546875 5.164062 C 32.09375 5.003906 32 7.105469 31.855469 7.15625 C 31.488281 7.285156 31.867188 5.753906 31.445312 5.699219 C 31.136719 5.660156 31.253906 7.050781 31.109375 7.746094 C 31.039062 8.074219 30.347656 6.683594 30.132812 7.34375 C 30.0625 7.566406 30.523438 8.324219 30.601562 8.890625 C 30.644531 9.234375 30.660156 9.546875 30.625 9.871094 C 30.5625 10.320312 30.339844 11.324219 29.550781 12.347656 C 29.328125 12.640625 29.171875 12.917969 29.074219 13.179688 C 28.902344 13.429688 28.746094 13.660156 28.597656 13.878906 L 28.304688 13.769531 C 28.304688 13.769531 27.472656 15.390625 27.058594 15.8125 C 26.96875 15.90625 26.824219 16.039062 26.65625 16.191406 C 26.867188 14.925781 26.796875 13.882812 25.753906 13.191406 C 25.25 12.859375 24.621094 11.644531 24.238281 11.378906 C 24.117188 11.292969 24.011719 11.226562 23.917969 11.175781 C 23.96875 11.011719 23.996094 10.851562 24.003906 10.707031 C 24.085938 8.722656 21.851562 8.902344 21.851562 8.902344 C 22.523438 9.242188 22.625 9.675781 22.09375 9.894531 C 21 10.34375 19.628906 10.871094 18.5 12.957031 C 18.042969 13.796875 17.808594 14.722656 17.925781 15.398438 C 17.628906 15.316406 17.308594 15.152344 17.222656 14.816406 C 17.222656 14.816406 16.875 16.078125 18.542969 16.277344 C 18.542969 16.277344 17.890625 16.617188 18.5625 17.671875 C 18.5625 17.671875 18.605469 17.269531 18.804688 16.898438 C 19.085938 17.4375 19.667969 17.914062 20.222656 18.277344 C 21.273438 18.964844 22.378906 19.082031 22.378906 19.082031 C 22.699219 19.167969 23.027344 19.21875 23.351562 19.234375 C 23.328125 19.257812 23.300781 19.285156 23.273438 19.308594 C 22.910156 19.496094 21.949219 20.085938 21.132812 21.382812 C 21.132812 21.382812 20.355469 23.042969 20.019531 24.027344 C 20.019531 24.027344 20.082031 24.101562 20.191406 24.222656 C 20.164062 24.308594 20.136719 24.386719 20.109375 24.460938 C 19.894531 24.777344 19.734375 25.199219 19.667969 25.761719 C 19.519531 27.046875 18.984375 27.921875 18.714844 28.289062 C 18.515625 28.546875 18.285156 28.757812 18.015625 28.972656 C 17.566406 29.324219 16.710938 29.542969 16.605469 29.75 C 16.296875 30.375 17.761719 29.867188 17.585938 30.148438 C 17.207031 30.746094 16.152344 31.664062 16.398438 31.851562 C 16.742188 32.109375 17.535156 30.742188 17.707031 31.097656 C 17.773438 31.234375 16.382812 32.800781 16.816406 33.003906 C 17.078125 33.128906 18.011719 31.417969 18.273438 31.503906 C 18.460938 31.5625 17.59375 32.925781 17.996094 33.074219 C 18.398438 33.222656 18.667969 31.542969 18.957031 31.535156 C 19.089844 31.53125 18.890625 32.566406 19.316406 32.554688 C 19.4375 32.550781 19.46875 32.238281 19.539062 31.359375 C 19.601562 30.585938 19.886719 30.476562 19.988281 29.539062 C 19.996094 29.460938 20.128906 29.253906 20.304688 28.992188 C 20.339844 28.949219 20.375 28.90625 20.414062 28.859375 C 21.125 27.960938 21.601562 27.128906 21.914062 26.421875 C 21.945312 26.375 21.980469 26.328125 22.019531 26.273438 C 22.074219 26.195312 22.128906 26.117188 22.179688 26.039062 C 22.3125 26.121094 22.4375 26.179688 22.542969 26.203125 C 22.542969 26.203125 23.253906 24.644531 23.933594 25.316406 C 24.035156 25.460938 24.125 25.640625 24.230469 25.828125 C 24.722656 26.695312 24.746094 27.582031 24.628906 28.722656 C 24.527344 29.144531 24.339844 29.667969 24.007812 30.300781 C 23.34375 31.566406 23.484375 32.34375 23.902344 33.167969 C 23.6875 34.535156 23.382812 36.074219 23.03125 36.625 C 22.347656 37.6875 22.328125 39.113281 22.328125 39.113281 C 22.328125 39.113281 22.390625 39.167969 22.5 39.253906 C 22.339844 39.917969 22.242188 40.609375 21.890625 41.230469 C 21.722656 41.527344 21.476562 41.792969 20.996094 42.390625 C 20.367188 43.171875 20.707031 43.722656 21.289062 43.8125 C 21.484375 43.839844 21.800781 43.96875 22.007812 44.101562 C 22.972656 44.738281 24.40625 45.070312 24.578125 44.664062 C 24.796875 44.136719 24.046875 43.6875 23.429688 43.09375 C 22.53125 42.238281 23.554688 41.207031 24.210938 40.082031 C 24.433594 40.121094 24.664062 40.132812 24.890625 40.09375 C 25.433594 40.003906 26.089844 37.328125 26.089844 37.328125 L 25.914062 38.8125 C 25.914062 38.8125 26.0625 38.890625 26.296875 39 C 26.410156 39.722656 26.636719 40.441406 26.5625 41.210938 C 26.527344 41.550781 26.40625 41.894531 26.210938 42.636719 C 25.953125 43.609375 26.484375 43.96875 27.054688 43.8125 C 27.242188 43.761719 27.582031 43.777344 27.828125 43.789062 C 29.117188 43.859375 30.410156 43.699219 30.402344 43.253906 C 30.390625 42.683594 29.523438 42.578125 28.71875 42.289062 C 27.6875 41.917969 27.976562 40.8125 28.15625 39.664062 C 28.492188 39.726562 28.773438 39.722656 28.933594 39.597656 C 28.933594 39.597656 29.5 36.476562 29.976562 34.601562 C 30.160156 33.878906 30.285156 33.324219 30.359375 32.914062 C 30.6875 32.246094 31.003906 31.578125 31.214844 30.867188 C 32 28.617188 31.125 26.175781 29.949219 23.660156 C 29.570312 22.855469 29.398438 21.996094 29.339844 21.199219 C 29.339844 21.199219 29.3125 18.53125 30.515625 16.894531 C 31.410156 15.675781 31.535156 14.765625 31.535156 14.765625 L 31.191406 14.402344 C 31.613281 13.609375 32.0625 12.378906 32.238281 10.652344 C 32.242188 10.59375 32.25 10.539062 32.253906 10.484375 C 32.308594 10.175781 32.359375 9.933594 32.40625 9.871094 C 32.984375 9.125 32.855469 8.851562 33.351562 8.25 C 33.910156 7.574219 34.105469 7.328125 34.023438 7.238281 " fill-opacity="1" fill-rule="nonzero"/><path fill="#df1b7d" d="M 50.789062 23.875 C 48.527344 23.746094 49.078125 20.957031 47.433594 20.25 C 47.410156 20.148438 47.367188 20.050781 47.304688 19.960938 C 47.207031 19.824219 47.074219 19.730469 46.929688 19.679688 C 46.917969 19.597656 46.882812 19.515625 46.832031 19.441406 C 46.714844 19.277344 46.527344 19.195312 46.339844 19.207031 C 46.324219 19.167969 46.304688 19.132812 46.285156 19.097656 C 45.152344 17.25 43.269531 16.855469 42.167969 17.339844 C 41.683594 17.550781 41.191406 17.925781 40.707031 18.558594 C 40.6875 18.585938 40.570312 18.769531 40.960938 19.3125 C 40.777344 19.589844 40.59375 19.84375 40.390625 20.011719 C 39.820312 20.488281 39.617188 21.109375 39.707031 21.800781 C 39.542969 21.652344 39.398438 21.519531 39.3125 21.429688 C 38.980469 21.085938 38.324219 19.773438 38.324219 19.773438 L 38.082031 19.859375 C 37.964844 19.683594 37.84375 19.496094 37.703125 19.292969 C 37.625 19.078125 37.503906 18.855469 37.324219 18.617188 C 36.699219 17.785156 36.523438 16.976562 36.476562 16.609375 C 36.449219 16.351562 36.464844 16.097656 36.503906 15.824219 C 36.570312 15.367188 36.945312 14.757812 36.890625 14.578125 C 36.726562 14.042969 36.15625 15.160156 36.101562 14.894531 C 35.988281 14.332031 36.09375 13.210938 35.84375 13.238281 C 35.503906 13.28125 35.800781 14.519531 35.503906 14.414062 C 35.386719 14.371094 35.328125 12.675781 34.960938 12.800781 C 34.738281 12.878906 35.144531 14.394531 34.949219 14.492188 C 34.804688 14.5625 34.550781 13.285156 34.234375 13.421875 C 33.917969 13.5625 34.695312 14.691406 34.53125 14.859375 C 34.457031 14.9375 33.996094 14.222656 33.757812 14.464844 C 33.6875 14.535156 33.84375 14.738281 34.289062 15.285156 C 34.6875 15.773438 34.578125 15.996094 35.042969 16.597656 C 35.078125 16.648438 35.117188 16.84375 35.160156 17.09375 C 35.164062 17.140625 35.167969 17.183594 35.171875 17.230469 C 35.300781 18.625 35.652344 19.621094 35.988281 20.265625 L 35.710938 20.550781 C 35.710938 20.550781 35.800781 21.289062 36.515625 22.277344 C 37.476562 23.609375 37.433594 25.757812 37.433594 25.757812 C 37.382812 26.398438 37.238281 27.09375 36.925781 27.742188 C 35.960938 29.757812 35.261719 31.511719 35.691406 32.726562 C 35.730469 33.070312 35.804688 33.398438 35.90625 33.71875 C 36.085938 34.4375 36.378906 35.480469 36.820312 36.605469 C 37.382812 38.046875 37.617188 40.605469 37.617188 40.605469 C 37.742188 40.703125 37.984375 40.773438 38.285156 40.824219 C 38.421875 41.691406 38.570312 42.5 37.789062 42.773438 C 37.136719 43 36.4375 43.082031 36.421875 43.542969 C 36.414062 43.898438 37.453125 44.039062 38.496094 43.992188 C 38.695312 43.980469 38.96875 43.972656 39.121094 44.015625 C 39.578125 44.148438 40.007812 43.859375 39.808594 43.070312 C 39.65625 42.472656 39.558594 42.195312 39.535156 41.921875 C 39.503906 41.589844 39.546875 41.269531 39.601562 40.953125 C 40.164062 40.984375 40.664062 41 40.84375 41.03125 C 41.042969 41.066406 41.238281 41.054688 41.433594 41.019531 C 41.957031 41.933594 42.777344 42.773438 42.050781 43.460938 C 41.542969 43.933594 40.9375 44.292969 41.113281 44.71875 C 41.246094 45.050781 42.402344 44.789062 43.1875 44.285156 C 43.355469 44.179688 43.613281 44.078125 43.769531 44.054688 C 44.238281 43.988281 44.519531 43.546875 44.015625 42.910156 C 43.632812 42.425781 43.433594 42.210938 43.300781 41.96875 C 43.015625 41.453125 42.945312 40.878906 42.8125 40.332031 C 42.867188 40.292969 42.898438 40.265625 42.898438 40.265625 C 42.898438 40.265625 42.894531 39.125 42.351562 38.269531 C 41.8125 37.414062 42.03125 34.667969 42.03125 34.667969 C 42.105469 34.257812 42.050781 33.792969 41.785156 33.175781 C 41.183594 31.785156 41.164062 30.707031 41.164062 30.675781 C 41.203125 30.269531 41.308594 29.894531 41.523438 29.527344 C 41.609375 29.378906 41.683594 29.234375 41.765625 29.117188 C 42.320312 28.582031 42.882812 29.84375 42.882812 29.84375 C 42.964844 29.824219 43.066406 29.777344 43.175781 29.714844 C 43.21875 29.777344 43.261719 29.839844 43.304688 29.90625 C 43.332031 29.949219 43.359375 29.988281 43.386719 30.023438 C 43.632812 30.597656 44.011719 31.269531 44.582031 32 C 44.609375 32.039062 44.640625 32.074219 44.667969 32.109375 C 44.808594 32.320312 44.914062 32.488281 44.917969 32.550781 C 44.996094 33.308594 45.222656 33.398438 45.269531 34.023438 C 45.316406 34.734375 45.339844 34.988281 45.441406 34.988281 C 45.78125 35.003906 45.628906 34.164062 45.734375 34.167969 C 45.96875 34.179688 46.175781 35.535156 46.5 35.417969 C 46.828125 35.300781 46.136719 34.195312 46.289062 34.148438 C 46.5 34.082031 47.238281 35.46875 47.453125 35.371094 C 47.804688 35.207031 46.691406 33.933594 46.746094 33.824219 C 46.890625 33.539062 47.519531 34.648438 47.796875 34.441406 C 47.996094 34.292969 47.15625 33.546875 46.855469 33.058594 C 46.710938 32.832031 47.890625 33.25 47.644531 32.746094 C 47.5625 32.578125 46.871094 32.398438 46.511719 32.109375 C 46.296875 31.933594 46.113281 31.761719 45.957031 31.554688 C 45.742188 31.253906 45.316406 30.546875 45.203125 29.507812 C 45.152344 29.050781 45.027344 28.710938 44.855469 28.453125 C 44.835938 28.394531 44.816406 28.332031 44.789062 28.261719 C 44.878906 28.167969 44.933594 28.109375 44.933594 28.109375 C 44.667969 27.308594 44.054688 25.964844 44.054688 25.964844 C 43.40625 24.914062 42.632812 24.429688 42.339844 24.277344 C 42.222656 24.164062 42.105469 24.054688 41.984375 23.941406 C 42.335938 23.988281 42.683594 23.984375 43.019531 23.9375 C 43.429688 24.234375 43.777344 24.320312 43.777344 24.320312 C 43.902344 23.742188 44.617188 23.4375 44.839844 23.296875 C 45.570312 22.820312 46 22.214844 46.289062 21.53125 C 46.316406 21.460938 46.34375 21.382812 46.367188 21.296875 C 46.5 21.457031 46.730469 21.492188 46.898438 21.367188 C 46.996094 21.296875 47.050781 21.191406 47.0625 21.078125 C 47.085938 21.066406 47.109375 21.050781 47.128906 21.035156 C 47.164062 21.007812 47.195312 20.980469 47.222656 20.953125 C 48.316406 22.007812 47.859375 24.527344 49.765625 24.808594 C 48.546875 23.949219 48.722656 22.832031 48.722656 22.832031 C 49.761719 24.464844 50.789062 23.875 50.789062 23.875 " fill-opacity="1" fill-rule="nonzero"/><path fill="#008c96" d="M 51.378906 15.707031 L 50.96875 15.644531 L 50.789062 15.273438 L 50.605469 15.644531 L 50.195312 15.707031 L 50.492188 15.996094 L 50.421875 16.40625 L 50.789062 16.210938 L 51.152344 16.40625 L 51.082031 15.996094 L 51.378906 15.707031 " fill-opacity="1" fill-rule="nonzero"/><path fill="#bd2675" d="M 33.921875 26.742188 L 33.742188 26.371094 L 33.558594 26.742188 L 33.148438 26.804688 L 33.445312 27.09375 L 33.375 27.503906 L 33.742188 27.308594 L 34.105469 27.503906 L 34.035156 27.09375 L 34.332031 26.804688 L 33.921875 26.742188 " fill-opacity="1" fill-rule="nonzero"/><path fill="#bd2675" d="M 39.082031 9.425781 L 39.410156 9.253906 L 39.734375 9.425781 L 39.671875 9.058594 L 39.9375 8.800781 L 39.574219 8.746094 L 39.410156 8.414062 L 39.246094 8.746094 L 38.878906 8.800781 L 39.144531 9.058594 L 39.082031 9.425781 " fill-opacity="1" fill-rule="nonzero"/><path fill="#008c96" d="M 43.371094 12.820312 L 43.148438 12.367188 L 42.925781 12.820312 L 42.429688 12.894531 L 42.789062 13.246094 L 42.703125 13.742188 L 43.148438 13.507812 L 43.59375 13.742188 L 43.507812 13.246094 L 43.867188 12.894531 L 43.371094 12.820312 " fill-opacity="1" fill-rule="nonzero"/><path fill="#799e3a" d="M 33.1875 18.871094 L 32.820312 19.617188 L 32 19.738281 L 32.59375 20.320312 L 32.453125 21.140625 L 33.1875 20.753906 L 33.925781 21.140625 L 33.785156 20.320312 L 34.378906 19.738281 L 33.554688 19.617188 L 33.1875 18.871094 " fill-opacity="1" fill-rule="nonzero"/><path fill="#5f2777" d="M 50.308594 32.457031 L 49.941406 31.710938 L 49.574219 32.457031 L 48.753906 32.578125 L 49.347656 33.160156 L 49.207031 33.984375 L 49.941406 33.59375 L 50.675781 33.984375 L 50.535156 33.160156 L 51.128906 32.578125 L 50.308594 32.457031 " fill-opacity="1" fill-rule="nonzero"/><path fill="#fdc800" d="M 37.203125 5.542969 L 36.105469 4.960938 L 35.011719 5.542969 L 35.21875 4.3125 L 34.332031 3.445312 L 35.558594 3.265625 L 36.105469 2.148438 L 36.65625 3.265625 L 37.882812 3.445312 L 36.996094 4.3125 L 37.203125 5.542969 " fill-opacity="1" fill-rule="nonzero"/><path fill="#799e3a" d="M 42.464844 1.671875 L 43.148438 1 L 42.199219 0.863281 L 41.777344 0 L 41.355469 0.863281 L 40.40625 1 L 41.09375 1.671875 L 40.929688 2.617188 L 41.777344 2.171875 L 42.625 2.617188 L 42.464844 1.671875 " fill-opacity="1" fill-rule="nonzero"/><path fill="#ae3a91" d="M 24.453125 7.53125 L 24.121094 6.851562 L 23.785156 7.53125 L 23.039062 7.640625 L 23.578125 8.171875 L 23.449219 8.917969 L 24.121094 8.566406 L 24.789062 8.917969 L 24.660156 8.171875 L 25.203125 7.640625 L 24.453125 7.53125 " fill-opacity="1" fill-rule="nonzero"/><g fill="#df1c7d" fill-opacity="1"><g transform="translate(57.075613, 27.798019)"><g><path d="M 6.3125 0.21875 C 3.4375 0.21875 1.726562 -0.757812 1.1875 -2.71875 C 1.03125 -3.300781 1.117188 -3.757812 1.453125 -4.09375 C 1.785156 -4.425781 2.226562 -4.59375 2.78125 -4.59375 L 2.96875 -4.59375 C 3.3125 -4.59375 3.582031 -4.523438 3.78125 -4.390625 C 3.976562 -4.265625 4.15625 -4.097656 4.3125 -3.890625 C 4.476562 -3.679688 4.6875 -3.441406 4.9375 -3.171875 C 5.238281 -2.878906 5.738281 -2.734375 6.4375 -2.734375 C 7.570312 -2.734375 8.140625 -3.171875 8.140625 -4.046875 C 8.140625 -4.554688 7.972656 -4.945312 7.640625 -5.21875 C 7.316406 -5.5 6.890625 -5.734375 6.359375 -5.921875 C 5.835938 -6.109375 5.285156 -6.296875 4.703125 -6.484375 C 4.117188 -6.679688 3.566406 -6.9375 3.046875 -7.25 C 2.523438 -7.5625 2.097656 -7.984375 1.765625 -8.515625 C 1.429688 -9.054688 1.265625 -9.765625 1.265625 -10.640625 C 1.265625 -12.265625 1.738281 -13.421875 2.6875 -14.109375 C 3.632812 -14.796875 4.976562 -15.140625 6.71875 -15.140625 C 8.40625 -15.140625 9.675781 -14.796875 10.53125 -14.109375 C 11.382812 -13.429688 11.859375 -12.457031 11.953125 -11.1875 C 11.992188 -10.59375 11.847656 -10.144531 11.515625 -9.84375 C 11.179688 -9.539062 10.738281 -9.390625 10.1875 -9.390625 C 9.644531 -9.390625 9.257812 -9.546875 9.03125 -9.859375 C 8.800781 -10.179688 8.617188 -10.644531 8.484375 -11.25 C 8.390625 -11.707031 8.191406 -12.019531 7.890625 -12.1875 C 7.585938 -12.363281 7.175781 -12.453125 6.65625 -12.453125 C 6.039062 -12.453125 5.609375 -12.289062 5.359375 -11.96875 C 5.117188 -11.65625 5 -11.242188 5 -10.734375 C 5 -10.222656 5.128906 -9.820312 5.390625 -9.53125 C 5.648438 -9.238281 5.992188 -9.003906 6.421875 -8.828125 C 6.847656 -8.660156 7.316406 -8.507812 7.828125 -8.375 C 8.335938 -8.238281 8.847656 -8.082031 9.359375 -7.90625 C 9.867188 -7.738281 10.335938 -7.515625 10.765625 -7.234375 C 11.203125 -6.953125 11.550781 -6.578125 11.8125 -6.109375 C 12.070312 -5.640625 12.203125 -5.039062 12.203125 -4.3125 C 12.203125 -2.832031 11.703125 -1.707031 10.703125 -0.9375 C 9.710938 -0.164062 8.25 0.21875 6.3125 0.21875 Z M 6.3125 0.21875 "/></g></g></g><g fill="#df1c7d" fill-opacity="1"><g transform="translate(70.112908, 27.798019)"><g><path d="M 18.71875 -1.859375 C 18.71875 -0.617188 18.109375 0 16.890625 0 L 16.828125 0 C 15.609375 0 15 -0.617188 15 -1.859375 C 15.007812 -2.847656 15.019531 -3.789062 15.03125 -4.6875 C 15.039062 -5.582031 15.046875 -6.40625 15.046875 -7.15625 C 15.046875 -7.851562 14.921875 -8.335938 14.671875 -8.609375 C 14.429688 -8.890625 14.066406 -9.019531 13.578125 -9 C 12.796875 -8.988281 12.21875 -8.625 11.84375 -7.90625 L 11.84375 -7.109375 C 11.832031 -6.359375 11.828125 -5.535156 11.828125 -4.640625 C 11.835938 -3.753906 11.851562 -2.828125 11.875 -1.859375 C 11.875 -0.617188 11.265625 0 10.046875 0 L 9.96875 0 C 8.75 0 8.140625 -0.617188 8.140625 -1.859375 C 8.160156 -2.847656 8.171875 -3.789062 8.171875 -4.6875 C 8.179688 -5.582031 8.1875 -6.40625 8.1875 -7.15625 C 8.1875 -7.851562 8.0625 -8.335938 7.8125 -8.609375 C 7.570312 -8.890625 7.207031 -9.019531 6.71875 -9 C 5.90625 -8.976562 5.300781 -8.5625 4.90625 -7.75 L 4.90625 -5.96875 C 4.894531 -5.257812 4.890625 -4.5625 4.890625 -3.875 C 4.898438 -3.195312 4.90625 -2.515625 4.90625 -1.828125 C 4.925781 -1.242188 4.773438 -0.789062 4.453125 -0.46875 C 4.140625 -0.15625 3.691406 0 3.109375 0 L 2.953125 0 C 2.359375 0 1.90625 -0.15625 1.59375 -0.46875 C 1.28125 -0.789062 1.128906 -1.242188 1.140625 -1.828125 C 1.148438 -2.515625 1.160156 -3.195312 1.171875 -3.875 C 1.179688 -4.5625 1.1875 -5.257812 1.1875 -5.96875 C 1.1875 -6.6875 1.179688 -7.382812 1.171875 -8.0625 C 1.160156 -8.738281 1.148438 -9.421875 1.140625 -10.109375 C 1.128906 -10.691406 1.28125 -11.140625 1.59375 -11.453125 C 1.90625 -11.773438 2.359375 -11.9375 2.953125 -11.9375 C 3.535156 -11.9375 3.988281 -11.847656 4.3125 -11.671875 C 4.644531 -11.503906 4.8125 -11.253906 4.8125 -10.921875 C 4.789062 -10.773438 4.78125 -10.613281 4.78125 -10.4375 C 4.78125 -10.269531 4.773438 -10.085938 4.765625 -9.890625 L 4.78125 -9.890625 C 5.195312 -10.648438 5.71875 -11.207031 6.34375 -11.5625 C 6.96875 -11.925781 7.695312 -12.109375 8.53125 -12.109375 C 9.3125 -12.109375 9.953125 -11.929688 10.453125 -11.578125 C 10.960938 -11.222656 11.335938 -10.660156 11.578125 -9.890625 L 11.640625 -9.890625 C 12.054688 -10.648438 12.578125 -11.207031 13.203125 -11.5625 C 13.828125 -11.925781 14.554688 -12.109375 15.390625 -12.109375 C 16.523438 -12.109375 17.367188 -11.71875 17.921875 -10.9375 C 18.484375 -10.164062 18.742188 -8.890625 18.703125 -7.109375 C 18.691406 -6.359375 18.6875 -5.535156 18.6875 -4.640625 C 18.695312 -3.753906 18.707031 -2.828125 18.71875 -1.859375 Z M 18.71875 -1.859375 "/></g></g></g><g fill="#df1c7d" fill-opacity="1"><g transform="translate(90.089068, 27.798019)"><g><path d="M 4.5 0.21875 C 3.800781 0.21875 3.160156 0.101562 2.578125 -0.125 C 1.992188 -0.351562 1.53125 -0.707031 1.1875 -1.1875 C 0.84375 -1.675781 0.671875 -2.289062 0.671875 -3.03125 C 0.671875 -4.382812 1.238281 -5.398438 2.375 -6.078125 C 3.519531 -6.765625 5.304688 -7.070312 7.734375 -7 L 7.734375 -7.734375 C 7.734375 -8.523438 7.617188 -9.0625 7.390625 -9.34375 C 7.171875 -9.632812 6.828125 -9.78125 6.359375 -9.78125 C 6.085938 -9.78125 5.832031 -9.738281 5.59375 -9.65625 C 5.363281 -9.582031 5.1875 -9.445312 5.0625 -9.25 C 4.863281 -8.925781 4.695312 -8.648438 4.5625 -8.421875 C 4.425781 -8.191406 4.269531 -8.015625 4.09375 -7.890625 C 3.914062 -7.773438 3.648438 -7.71875 3.296875 -7.71875 L 3.078125 -7.71875 C 2.472656 -7.71875 1.988281 -7.878906 1.625 -8.203125 C 1.257812 -8.535156 1.160156 -9 1.328125 -9.59375 C 1.578125 -10.4375 2.128906 -11.066406 2.984375 -11.484375 C 3.847656 -11.898438 5.066406 -12.109375 6.640625 -12.109375 C 9.835938 -12.109375 11.4375 -10.671875 11.4375 -7.796875 C 11.4375 -6.503906 11.441406 -5.375 11.453125 -4.40625 C 11.460938 -3.445312 11.476562 -2.601562 11.5 -1.875 C 11.53125 -1.269531 11.398438 -0.804688 11.109375 -0.484375 C 10.828125 -0.160156 10.390625 0 9.796875 0 L 9.609375 0 C 8.515625 0 7.925781 -0.171875 7.84375 -0.515625 C 7.8125 -0.597656 7.785156 -0.679688 7.765625 -0.765625 C 7.753906 -0.859375 7.742188 -0.945312 7.734375 -1.03125 C 7.304688 -0.613281 6.8125 -0.300781 6.25 -0.09375 C 5.6875 0.113281 5.101562 0.21875 4.5 0.21875 Z M 5.640625 -2.21875 C 6.128906 -2.21875 6.546875 -2.3125 6.890625 -2.5 C 7.234375 -2.695312 7.53125 -2.976562 7.78125 -3.34375 L 7.78125 -5.28125 C 7.132812 -5.257812 6.53125 -5.207031 5.96875 -5.125 C 5.40625 -5.039062 4.953125 -4.882812 4.609375 -4.65625 C 4.265625 -4.425781 4.09375 -4.082031 4.09375 -3.625 C 4.09375 -3.21875 4.222656 -2.878906 4.484375 -2.609375 C 4.753906 -2.347656 5.140625 -2.21875 5.640625 -2.21875 Z M 5.640625 -2.21875 "/></g></g></g><g fill="#df1c7d" fill-opacity="1"><g transform="translate(102.630733, 27.798019)"><g><path d="M 8.109375 -12.09375 C 8.304688 -12.039062 8.507812 -11.925781 8.71875 -11.75 C 8.9375 -11.582031 9.117188 -11.289062 9.265625 -10.875 C 9.335938 -10.632812 9.375 -10.382812 9.375 -10.125 C 9.375 -9.863281 9.335938 -9.613281 9.265625 -9.375 C 9.117188 -8.8125 8.898438 -8.441406 8.609375 -8.265625 C 8.328125 -8.085938 8.050781 -8.046875 7.78125 -8.140625 C 7.507812 -8.234375 7.222656 -8.28125 6.921875 -8.28125 C 5.984375 -8.28125 5.3125 -7.679688 4.90625 -6.484375 L 4.90625 -5.96875 C 4.90625 -5.738281 4.898438 -5.5 4.890625 -5.25 C 4.890625 -5.007812 4.890625 -4.773438 4.890625 -4.546875 C 4.890625 -4.097656 4.890625 -3.65625 4.890625 -3.21875 C 4.898438 -2.78125 4.914062 -2.332031 4.9375 -1.875 C 4.976562 -0.625 4.378906 0 3.140625 0 L 3.078125 0 C 1.859375 0 1.25 -0.609375 1.25 -1.828125 C 1.257812 -2.515625 1.269531 -3.195312 1.28125 -3.875 C 1.289062 -4.5625 1.296875 -5.257812 1.296875 -5.96875 C 1.296875 -6.6875 1.289062 -7.382812 1.28125 -8.0625 C 1.269531 -8.738281 1.257812 -9.421875 1.25 -10.109375 C 1.25 -11.328125 1.832031 -11.9375 3 -11.9375 C 4.15625 -11.9375 4.734375 -11.476562 4.734375 -10.5625 L 4.734375 -9.15625 L 4.8125 -9.109375 C 4.976562 -10.003906 5.300781 -10.726562 5.78125 -11.28125 C 6.257812 -11.84375 6.851562 -12.125 7.5625 -12.125 C 7.675781 -12.125 7.78125 -12.117188 7.875 -12.109375 C 7.96875 -12.109375 8.046875 -12.101562 8.109375 -12.09375 Z M 8.109375 -12.09375 "/></g></g></g><g fill="#df1c7d" fill-opacity="1"><g transform="translate(112.026209, 27.798019)"><g><path d="M 6.828125 -2.609375 C 7.460938 -2.640625 7.953125 -2.609375 8.296875 -2.515625 C 8.640625 -2.421875 8.832031 -2.148438 8.875 -1.703125 C 8.914062 -1.242188 8.835938 -0.847656 8.640625 -0.515625 C 8.453125 -0.179688 8.125 0.03125 7.65625 0.125 C 7.21875 0.21875 6.742188 0.265625 6.234375 0.265625 C 5.335938 0.265625 4.5625 0.128906 3.90625 -0.140625 C 3.257812 -0.421875 2.757812 -0.867188 2.40625 -1.484375 C 2.050781 -2.097656 1.878906 -2.929688 1.890625 -3.984375 C 1.910156 -4.617188 1.921875 -5.28125 1.921875 -5.96875 C 1.921875 -6.65625 1.921875 -7.34375 1.921875 -8.03125 L 1.921875 -9.15625 L 1.890625 -9.15625 C 0.671875 -9.15625 0.0625 -9.613281 0.0625 -10.53125 C 0.0625 -11.457031 0.367188 -11.921875 0.984375 -11.921875 L 1.890625 -11.921875 C 1.890625 -12.109375 1.882812 -12.285156 1.875 -12.453125 C 1.875 -12.628906 1.875 -12.8125 1.875 -13 C 1.875 -14.0625 2.378906 -14.75 3.390625 -15.0625 C 3.984375 -15.257812 4.460938 -15.242188 4.828125 -15.015625 C 5.203125 -14.785156 5.390625 -14.382812 5.390625 -13.8125 L 5.390625 -11.921875 L 6.890625 -11.921875 C 8.109375 -11.921875 8.71875 -11.46875 8.71875 -10.5625 C 8.71875 -9.65625 8.164062 -9.203125 7.0625 -9.203125 L 5.390625 -9.171875 C 5.390625 -8.992188 5.382812 -8.8125 5.375 -8.625 C 5.363281 -8.4375 5.359375 -8.238281 5.359375 -8.03125 C 5.347656 -7.414062 5.34375 -6.796875 5.34375 -6.171875 C 5.34375 -5.554688 5.34375 -4.972656 5.34375 -4.421875 C 5.34375 -3.191406 5.835938 -2.585938 6.828125 -2.609375 Z M 6.828125 -2.609375 "/></g></g></g><g fill="#009cda" fill-opacity="1"><g transform="translate(123.737189, 27.798019)"><g><path d="M 3.453125 0 C 2.859375 0 2.398438 -0.15625 2.078125 -0.46875 C 1.765625 -0.789062 1.617188 -1.242188 1.640625 -1.828125 C 1.640625 -2.773438 1.640625 -3.71875 1.640625 -4.65625 C 1.648438 -5.601562 1.65625 -6.546875 1.65625 -7.484375 C 1.65625 -8.410156 1.648438 -9.34375 1.640625 -10.28125 C 1.640625 -11.226562 1.640625 -12.164062 1.640625 -13.09375 C 1.617188 -13.6875 1.765625 -14.140625 2.078125 -14.453125 C 2.398438 -14.773438 2.859375 -14.9375 3.453125 -14.9375 L 3.828125 -14.9375 C 4.421875 -14.9375 4.875 -14.773438 5.1875 -14.453125 C 5.507812 -14.140625 5.660156 -13.6875 5.640625 -13.09375 C 5.640625 -12.351562 5.640625 -11.609375 5.640625 -10.859375 C 5.640625 -10.109375 5.640625 -9.351562 5.640625 -8.59375 L 6.15625 -8.9375 C 6.738281 -9.3125 7.226562 -9.894531 7.625 -10.6875 C 8.03125 -11.476562 8.347656 -12.332031 8.578125 -13.25 C 8.703125 -13.8125 8.921875 -14.234375 9.234375 -14.515625 C 9.546875 -14.796875 9.976562 -14.9375 10.53125 -14.9375 L 10.953125 -14.9375 C 11.609375 -14.9375 12.082031 -14.742188 12.375 -14.359375 C 12.675781 -13.984375 12.707031 -13.476562 12.46875 -12.84375 C 12.070312 -11.738281 11.613281 -10.753906 11.09375 -9.890625 C 10.582031 -9.023438 10.03125 -8.429688 9.4375 -8.109375 L 9.4375 -8 C 10.070312 -7.894531 10.585938 -7.664062 10.984375 -7.3125 C 11.390625 -6.957031 11.757812 -6.34375 12.09375 -5.46875 C 12.207031 -5.15625 12.328125 -4.757812 12.453125 -4.28125 C 12.578125 -3.8125 12.757812 -3.101562 13 -2.15625 C 13.15625 -1.476562 13.09375 -0.945312 12.8125 -0.5625 C 12.53125 -0.1875 12.066406 0 11.421875 0 L 10.859375 0 C 9.753906 0 9.09375 -0.59375 8.875 -1.78125 C 8.65625 -2.9375 8.441406 -3.820312 8.234375 -4.4375 C 8.023438 -5.050781 7.789062 -5.476562 7.53125 -5.71875 C 7.28125 -5.96875 6.972656 -6.09375 6.609375 -6.09375 C 6.421875 -6.09375 6.265625 -6.085938 6.140625 -6.078125 C 6.015625 -6.078125 5.847656 -6.046875 5.640625 -5.984375 C 5.640625 -5.296875 5.640625 -4.609375 5.640625 -3.921875 C 5.640625 -3.234375 5.640625 -2.535156 5.640625 -1.828125 C 5.660156 -1.242188 5.507812 -0.789062 5.1875 -0.46875 C 4.875 -0.15625 4.421875 0 3.828125 0 Z M 3.453125 0 "/></g></g></g><g fill="#009cda" fill-opacity="1"><g transform="translate(138.024341, 27.798019)"><g><path d="M 3.0625 -13.421875 C 2.269531 -13.421875 1.695312 -13.5625 1.34375 -13.84375 C 0.988281 -14.132812 0.8125 -14.601562 0.8125 -15.25 C 0.8125 -15.894531 0.988281 -16.363281 1.34375 -16.65625 C 1.695312 -16.945312 2.269531 -17.09375 3.0625 -17.09375 C 3.863281 -17.09375 4.4375 -16.945312 4.78125 -16.65625 C 5.125 -16.363281 5.296875 -15.894531 5.296875 -15.25 C 5.296875 -14.601562 5.125 -14.132812 4.78125 -13.84375 C 4.4375 -13.5625 3.863281 -13.421875 3.0625 -13.421875 Z M 3.125 0 C 1.90625 0 1.296875 -0.609375 1.296875 -1.828125 L 1.296875 -3.65625 C 1.273438 -5.25 1.265625 -6.550781 1.265625 -7.5625 C 1.265625 -8.582031 1.257812 -9.429688 1.25 -10.109375 C 1.25 -11.316406 1.859375 -11.921875 3.078125 -11.921875 L 3.109375 -11.921875 C 4.328125 -11.921875 4.9375 -11.304688 4.9375 -10.078125 C 4.9375 -9.335938 4.9375 -8.554688 4.9375 -7.734375 C 4.9375 -6.910156 4.925781 -6.171875 4.90625 -5.515625 C 4.894531 -4.898438 4.890625 -4.285156 4.890625 -3.671875 C 4.898438 -3.066406 4.90625 -2.453125 4.90625 -1.828125 C 4.9375 -0.609375 4.34375 0 3.125 0 Z M 3.125 0 "/></g></g></g><g fill="#009cda" fill-opacity="1"><g transform="translate(144.14433, 27.798019)"><g><path d="M 10 -15.703125 C 11.21875 -15.703125 11.828125 -15.09375 11.828125 -13.875 C 11.816406 -12.46875 11.800781 -11.078125 11.78125 -9.703125 C 11.769531 -8.335938 11.765625 -6.941406 11.765625 -5.515625 C 11.765625 -4.878906 11.765625 -4.257812 11.765625 -3.65625 C 11.773438 -3.0625 11.789062 -2.453125 11.8125 -1.828125 C 11.832031 -0.609375 11.34375 0 10.34375 0 C 9.332031 0 8.757812 -0.207031 8.625 -0.625 C 8.59375 -0.738281 8.5625 -0.847656 8.53125 -0.953125 C 8.5 -1.066406 8.472656 -1.171875 8.453125 -1.265625 C 8.160156 -0.878906 7.765625 -0.53125 7.265625 -0.21875 C 6.773438 0.0820312 6.164062 0.234375 5.4375 0.234375 C 4.570312 0.234375 3.785156 0.0546875 3.078125 -0.296875 C 2.378906 -0.660156 1.820312 -1.269531 1.40625 -2.125 C 0.988281 -2.988281 0.78125 -4.175781 0.78125 -5.6875 C 0.78125 -7.113281 0.984375 -8.300781 1.390625 -9.25 C 1.796875 -10.195312 2.347656 -10.90625 3.046875 -11.375 C 3.742188 -11.851562 4.515625 -12.09375 5.359375 -12.09375 C 5.953125 -12.09375 6.484375 -11.945312 6.953125 -11.65625 C 7.421875 -11.363281 7.796875 -10.976562 8.078125 -10.5 C 8.066406 -11.050781 8.0625 -11.609375 8.0625 -12.171875 C 8.0625 -12.734375 8.050781 -13.300781 8.03125 -13.875 C 8.03125 -15.09375 8.644531 -15.703125 9.875 -15.703125 Z M 6.4375 -2.796875 C 6.8125 -2.796875 7.117188 -2.847656 7.359375 -2.953125 C 7.609375 -3.066406 7.828125 -3.234375 8.015625 -3.453125 C 8.015625 -3.796875 8.015625 -4.132812 8.015625 -4.46875 C 8.023438 -4.8125 8.039062 -5.160156 8.0625 -5.515625 C 8.070312 -5.929688 8.078125 -6.347656 8.078125 -6.765625 C 8.078125 -7.179688 8.078125 -7.59375 8.078125 -8 C 7.953125 -8.4375 7.726562 -8.738281 7.40625 -8.90625 C 7.09375 -9.082031 6.742188 -9.171875 6.359375 -9.171875 C 5.984375 -9.171875 5.632812 -9.082031 5.3125 -8.90625 C 5 -8.726562 4.742188 -8.40625 4.546875 -7.9375 C 4.359375 -7.46875 4.265625 -6.789062 4.265625 -5.90625 C 4.265625 -4.769531 4.453125 -3.96875 4.828125 -3.5 C 5.210938 -3.03125 5.75 -2.796875 6.4375 -2.796875 Z M 6.4375 -2.796875 "/></g></g></g><g fill="#009cda" fill-opacity="1"><g transform="translate(157.138529, 27.798019)"><g><path d="M 5.734375 0.265625 C 4.335938 0.265625 3.257812 0.0703125 2.5 -0.3125 C 1.75 -0.707031 1.253906 -1.28125 1.015625 -2.03125 C 0.828125 -2.613281 0.890625 -3.070312 1.203125 -3.40625 C 1.523438 -3.738281 1.9375 -3.90625 2.4375 -3.90625 L 2.5 -3.90625 C 2.84375 -3.90625 3.097656 -3.847656 3.265625 -3.734375 C 3.441406 -3.617188 3.597656 -3.457031 3.734375 -3.25 C 3.867188 -3.039062 4.039062 -2.796875 4.25 -2.515625 C 4.445312 -2.265625 4.890625 -2.140625 5.578125 -2.140625 C 6.253906 -2.140625 6.726562 -2.242188 7 -2.453125 C 7.269531 -2.671875 7.40625 -2.9375 7.40625 -3.25 C 7.40625 -3.65625 7.285156 -3.957031 7.046875 -4.15625 C 6.816406 -4.351562 6.507812 -4.503906 6.125 -4.609375 C 5.75 -4.710938 5.332031 -4.800781 4.875 -4.875 C 4.414062 -4.945312 3.953125 -5.039062 3.484375 -5.15625 C 3.015625 -5.269531 2.585938 -5.441406 2.203125 -5.671875 C 1.828125 -5.910156 1.519531 -6.253906 1.28125 -6.703125 C 1.039062 -7.148438 0.921875 -7.734375 0.921875 -8.453125 C 0.921875 -10.890625 2.609375 -12.109375 5.984375 -12.109375 C 8.554688 -12.109375 10.082031 -11.351562 10.5625 -9.84375 C 10.726562 -9.269531 10.65625 -8.820312 10.34375 -8.5 C 10.03125 -8.175781 9.617188 -8.015625 9.109375 -8.015625 L 9.03125 -8.015625 C 8.695312 -8.015625 8.441406 -8.066406 8.265625 -8.171875 C 8.085938 -8.285156 7.925781 -8.4375 7.78125 -8.625 C 7.644531 -8.820312 7.472656 -9.039062 7.265625 -9.28125 C 7.035156 -9.507812 6.609375 -9.625 5.984375 -9.625 C 5.410156 -9.625 5.015625 -9.53125 4.796875 -9.34375 C 4.585938 -9.164062 4.484375 -8.910156 4.484375 -8.578125 C 4.484375 -8.140625 4.640625 -7.820312 4.953125 -7.625 C 5.273438 -7.425781 5.675781 -7.285156 6.15625 -7.203125 C 6.644531 -7.128906 7.171875 -7.046875 7.734375 -6.953125 C 8.296875 -6.867188 8.820312 -6.726562 9.3125 -6.53125 C 9.800781 -6.332031 10.203125 -6.007812 10.515625 -5.5625 C 10.828125 -5.125 10.984375 -4.515625 10.984375 -3.734375 C 10.984375 -2.410156 10.535156 -1.410156 9.640625 -0.734375 C 8.753906 -0.0664062 7.453125 0.265625 5.734375 0.265625 Z M 5.734375 0.265625 "/></g></g></g><g clip-path="url(#df893afd62)"><path fill="#ffffff" d="M 137.78125 8.121094 L 144.796875 8.121094 L 144.796875 15.542969 L 137.78125 15.542969 Z M 137.78125 8.121094 " fill-opacity="1" fill-rule="nonzero"/></g><g clip-path="url(#fb5837b00b)"><path fill="#fdc800" d="M 141.273438 10.546875 L 142.035156 12.253906 L 143.894531 12.449219 L 142.503906 13.699219 L 142.894531 15.527344 L 141.273438 14.59375 L 139.65625 15.527344 L 140.042969 13.699219 L 138.65625 12.449219 L 140.515625 12.253906 L 141.273438 10.546875 " fill-opacity="1" fill-rule="nonzero"/></g><g fill="#804098" fill-opacity="1"><g transform="translate(62.894169, 40.586687)"><g><path d="M 3.453125 0 L 0.6875 0 C 0.59375 0 0.546875 -0.046875 0.546875 -0.140625 L 0.546875 -5.375 C 0.546875 -5.46875 0.59375 -5.515625 0.6875 -5.515625 L 1.65625 -5.515625 C 1.75 -5.515625 1.796875 -5.46875 1.796875 -5.375 L 1.796875 -1.078125 L 3.453125 -1.078125 C 3.554688 -1.078125 3.609375 -1.03125 3.609375 -0.9375 L 3.609375 -0.140625 C 3.609375 -0.046875 3.554688 0 3.453125 0 Z M 3.453125 0 "/></g></g></g><g fill="#804098" fill-opacity="1"><g transform="translate(67.256912, 40.586687)"><g><path d="M 1.0625 -4.28125 C 0.945312 -4.28125 0.835938 -4.304688 0.734375 -4.359375 C 0.628906 -4.421875 0.546875 -4.5 0.484375 -4.59375 C 0.429688 -4.695312 0.40625 -4.8125 0.40625 -4.9375 C 0.40625 -5.0625 0.429688 -5.171875 0.484375 -5.265625 C 0.546875 -5.367188 0.628906 -5.445312 0.734375 -5.5 C 0.835938 -5.5625 0.945312 -5.59375 1.0625 -5.59375 C 1.1875 -5.59375 1.296875 -5.5625 1.390625 -5.5 C 1.492188 -5.445312 1.570312 -5.367188 1.625 -5.265625 C 1.6875 -5.171875 1.71875 -5.0625 1.71875 -4.9375 C 1.71875 -4.8125 1.6875 -4.695312 1.625 -4.59375 C 1.570312 -4.5 1.492188 -4.421875 1.390625 -4.359375 C 1.296875 -4.304688 1.1875 -4.28125 1.0625 -4.28125 Z M 1.5 0 L 0.640625 0 C 0.546875 0 0.5 -0.046875 0.5 -0.140625 L 0.5 -3.84375 C 0.5 -3.9375 0.546875 -3.984375 0.640625 -3.984375 L 1.5 -3.984375 C 1.601562 -3.984375 1.65625 -3.9375 1.65625 -3.84375 L 1.65625 -0.140625 C 1.65625 -0.046875 1.601562 0 1.5 0 Z M 1.5 0 "/></g></g></g><g fill="#804098" fill-opacity="1"><g transform="translate(70.033572, 40.586687)"><g><path d="M 2.09375 0.09375 C 1.820312 0.09375 1.582031 0.046875 1.375 -0.046875 C 1.175781 -0.140625 1.019531 -0.273438 0.90625 -0.453125 C 0.789062 -0.640625 0.734375 -0.863281 0.734375 -1.125 L 0.734375 -3.09375 L 0.40625 -3.09375 C 0.300781 -3.09375 0.25 -3.140625 0.25 -3.234375 L 0.25 -3.84375 C 0.25 -3.9375 0.300781 -3.984375 0.40625 -3.984375 L 0.734375 -3.984375 L 0.734375 -5.171875 C 0.734375 -5.273438 0.78125 -5.328125 0.875 -5.328125 L 1.734375 -5.328125 C 1.828125 -5.328125 1.875 -5.273438 1.875 -5.171875 L 1.875 -3.984375 L 2.5625 -3.984375 C 2.65625 -3.984375 2.703125 -3.9375 2.703125 -3.84375 L 2.703125 -3.234375 C 2.703125 -3.140625 2.65625 -3.09375 2.5625 -3.09375 L 1.875 -3.09375 L 1.875 -1.21875 C 1.875 -1.082031 1.90625 -0.984375 1.96875 -0.921875 C 2.039062 -0.867188 2.132812 -0.84375 2.25 -0.84375 C 2.28125 -0.84375 2.316406 -0.84375 2.359375 -0.84375 C 2.398438 -0.851562 2.445312 -0.863281 2.5 -0.875 C 2.59375 -0.90625 2.65625 -0.875 2.6875 -0.78125 L 2.828125 -0.171875 C 2.847656 -0.128906 2.847656 -0.09375 2.828125 -0.0625 C 2.816406 -0.03125 2.785156 -0.0078125 2.734375 0 C 2.617188 0.03125 2.507812 0.0507812 2.40625 0.0625 C 2.300781 0.0820312 2.195312 0.09375 2.09375 0.09375 Z M 2.09375 0.09375 "/></g></g></g><g fill="#804098" fill-opacity="1"><g transform="translate(73.770514, 40.586687)"><g><path d="M 2.09375 0.09375 C 1.820312 0.09375 1.582031 0.046875 1.375 -0.046875 C 1.175781 -0.140625 1.019531 -0.273438 0.90625 -0.453125 C 0.789062 -0.640625 0.734375 -0.863281 0.734375 -1.125 L 0.734375 -3.09375 L 0.40625 -3.09375 C 0.300781 -3.09375 0.25 -3.140625 0.25 -3.234375 L 0.25 -3.84375 C 0.25 -3.9375 0.300781 -3.984375 0.40625 -3.984375 L 0.734375 -3.984375 L 0.734375 -5.171875 C 0.734375 -5.273438 0.78125 -5.328125 0.875 -5.328125 L 1.734375 -5.328125 C 1.828125 -5.328125 1.875 -5.273438 1.875 -5.171875 L 1.875 -3.984375 L 2.5625 -3.984375 C 2.65625 -3.984375 2.703125 -3.9375 2.703125 -3.84375 L 2.703125 -3.234375 C 2.703125 -3.140625 2.65625 -3.09375 2.5625 -3.09375 L 1.875 -3.09375 L 1.875 -1.21875 C 1.875 -1.082031 1.90625 -0.984375 1.96875 -0.921875 C 2.039062 -0.867188 2.132812 -0.84375 2.25 -0.84375 C 2.28125 -0.84375 2.316406 -0.84375 2.359375 -0.84375 C 2.398438 -0.851562 2.445312 -0.863281 2.5 -0.875 C 2.59375 -0.90625 2.65625 -0.875 2.6875 -0.78125 L 2.828125 -0.171875 C 2.847656 -0.128906 2.847656 -0.09375 2.828125 -0.0625 C 2.816406 -0.03125 2.785156 -0.0078125 2.734375 0 C 2.617188 0.03125 2.507812 0.0507812 2.40625 0.0625 C 2.300781 0.0820312 2.195312 0.09375 2.09375 0.09375 Z M 2.09375 0.09375 "/></g></g></g><g fill="#804098" fill-opacity="1"><g transform="translate(77.507455, 40.586687)"><g><path d="M 1.84375 0.09375 C 1.570312 0.09375 1.332031 0.046875 1.125 -0.046875 C 0.914062 -0.140625 0.753906 -0.273438 0.640625 -0.453125 C 0.523438 -0.640625 0.46875 -0.863281 0.46875 -1.125 L 0.46875 -5.375 C 0.46875 -5.46875 0.515625 -5.515625 0.609375 -5.515625 L 1.46875 -5.515625 C 1.5625 -5.515625 1.609375 -5.46875 1.609375 -5.375 L 1.609375 -1.21875 C 1.609375 -1.082031 1.640625 -0.984375 1.703125 -0.921875 C 1.773438 -0.867188 1.867188 -0.84375 1.984375 -0.84375 C 2.015625 -0.84375 2.050781 -0.84375 2.09375 -0.84375 C 2.144531 -0.851562 2.191406 -0.863281 2.234375 -0.875 C 2.328125 -0.90625 2.390625 -0.875 2.421875 -0.78125 L 2.578125 -0.171875 C 2.585938 -0.128906 2.582031 -0.09375 2.5625 -0.0625 C 2.550781 -0.03125 2.519531 -0.0078125 2.46875 0 C 2.363281 0.03125 2.253906 0.0507812 2.140625 0.0625 C 2.035156 0.0820312 1.9375 0.09375 1.84375 0.09375 Z M 1.84375 0.09375 "/></g></g></g><g fill="#804098" fill-opacity="1"><g transform="translate(80.888337, 40.586687)"><g><path d="M 2.328125 -4.078125 C 2.617188 -4.078125 2.882812 -4.023438 3.125 -3.921875 C 3.363281 -3.828125 3.566406 -3.691406 3.734375 -3.515625 C 3.910156 -3.335938 4.046875 -3.117188 4.140625 -2.859375 C 4.234375 -2.609375 4.28125 -2.328125 4.28125 -2.015625 C 4.28125 -1.941406 4.269531 -1.890625 4.25 -1.859375 C 4.226562 -1.835938 4.179688 -1.828125 4.109375 -1.828125 L 1.4375 -1.828125 C 1.445312 -1.617188 1.5 -1.441406 1.59375 -1.296875 C 1.6875 -1.160156 1.804688 -1.054688 1.953125 -0.984375 C 2.097656 -0.921875 2.253906 -0.890625 2.421875 -0.890625 C 2.585938 -0.890625 2.753906 -0.921875 2.921875 -0.984375 C 3.097656 -1.046875 3.257812 -1.140625 3.40625 -1.265625 C 3.488281 -1.316406 3.554688 -1.3125 3.609375 -1.25 L 4.046875 -0.703125 C 4.109375 -0.640625 4.09375 -0.570312 4 -0.5 C 3.757812 -0.300781 3.5 -0.148438 3.21875 -0.046875 C 2.945312 0.046875 2.671875 0.09375 2.390625 0.09375 C 2.109375 0.09375 1.84375 0.046875 1.59375 -0.046875 C 1.34375 -0.148438 1.125 -0.289062 0.9375 -0.46875 C 0.75 -0.644531 0.597656 -0.863281 0.484375 -1.125 C 0.378906 -1.382812 0.328125 -1.675781 0.328125 -2 C 0.328125 -2.3125 0.375 -2.59375 0.46875 -2.84375 C 0.570312 -3.101562 0.710938 -3.320312 0.890625 -3.5 C 1.078125 -3.6875 1.289062 -3.828125 1.53125 -3.921875 C 1.78125 -4.023438 2.046875 -4.078125 2.328125 -4.078125 Z M 2.359375 -3.171875 C 2.253906 -3.171875 2.140625 -3.148438 2.015625 -3.109375 C 1.898438 -3.078125 1.796875 -3.015625 1.703125 -2.921875 C 1.609375 -2.835938 1.539062 -2.71875 1.5 -2.5625 L 3.125 -2.5625 C 3.09375 -2.71875 3.035156 -2.835938 2.953125 -2.921875 C 2.878906 -3.015625 2.789062 -3.078125 2.6875 -3.109375 C 2.582031 -3.148438 2.472656 -3.171875 2.359375 -3.171875 Z M 2.359375 -3.171875 "/></g></g></g><g fill="#804098" fill-opacity="1"><g transform="translate(86.110658, 40.586687)"><g/></g></g><g fill="#804098" fill-opacity="1"><g transform="translate(89.016794, 40.586687)"><g><path d="M 3.28125 0.140625 C 2.84375 0.140625 2.441406 0.0703125 2.078125 -0.0625 C 1.710938 -0.195312 1.398438 -0.390625 1.140625 -0.640625 C 0.878906 -0.898438 0.675781 -1.207031 0.53125 -1.5625 C 0.382812 -1.925781 0.3125 -2.328125 0.3125 -2.765625 C 0.3125 -3.203125 0.382812 -3.597656 0.53125 -3.953125 C 0.675781 -4.304688 0.878906 -4.609375 1.140625 -4.859375 C 1.398438 -5.117188 1.710938 -5.316406 2.078125 -5.453125 C 2.441406 -5.585938 2.84375 -5.65625 3.28125 -5.65625 C 3.71875 -5.65625 4.113281 -5.585938 4.46875 -5.453125 C 4.832031 -5.316406 5.144531 -5.117188 5.40625 -4.859375 C 5.675781 -4.609375 5.878906 -4.304688 6.015625 -3.953125 C 6.160156 -3.597656 6.234375 -3.203125 6.234375 -2.765625 C 6.234375 -2.328125 6.160156 -1.925781 6.015625 -1.5625 C 5.878906 -1.207031 5.675781 -0.898438 5.40625 -0.640625 C 5.144531 -0.390625 4.832031 -0.195312 4.46875 -0.0625 C 4.113281 0.0703125 3.71875 0.140625 3.28125 0.140625 Z M 3.28125 -1 C 3.53125 -1 3.757812 -1.039062 3.96875 -1.125 C 4.175781 -1.207031 4.351562 -1.320312 4.5 -1.46875 C 4.65625 -1.625 4.773438 -1.8125 4.859375 -2.03125 C 4.941406 -2.25 4.984375 -2.492188 4.984375 -2.765625 C 4.984375 -3.023438 4.941406 -3.265625 4.859375 -3.484375 C 4.773438 -3.703125 4.65625 -3.882812 4.5 -4.03125 C 4.351562 -4.1875 4.175781 -4.304688 3.96875 -4.390625 C 3.757812 -4.472656 3.53125 -4.515625 3.28125 -4.515625 C 3.03125 -4.515625 2.800781 -4.472656 2.59375 -4.390625 C 2.382812 -4.304688 2.203125 -4.1875 2.046875 -4.03125 C 1.898438 -3.882812 1.785156 -3.703125 1.703125 -3.484375 C 1.617188 -3.265625 1.578125 -3.023438 1.578125 -2.765625 C 1.578125 -2.492188 1.617188 -2.25 1.703125 -2.03125 C 1.785156 -1.820312 1.898438 -1.640625 2.046875 -1.484375 C 2.203125 -1.328125 2.382812 -1.207031 2.59375 -1.125 C 2.800781 -1.039062 3.03125 -1 3.28125 -1 Z M 3.28125 -1 "/></g></g></g><g fill="#804098" fill-opacity="1"><g transform="translate(96.21003, 40.586687)"><g><path d="M 2.890625 -4.078125 C 3.128906 -4.078125 3.332031 -4.039062 3.5 -3.96875 C 3.664062 -3.90625 3.804688 -3.816406 3.921875 -3.703125 C 4.035156 -3.585938 4.125 -3.457031 4.1875 -3.3125 C 4.257812 -3.175781 4.304688 -3.03125 4.328125 -2.875 C 4.359375 -2.726562 4.375 -2.582031 4.375 -2.4375 L 4.375 -0.140625 C 4.375 -0.046875 4.328125 0 4.234375 0 L 3.375 0 C 3.28125 0 3.234375 -0.046875 3.234375 -0.140625 L 3.234375 -2.234375 C 3.234375 -2.390625 3.203125 -2.535156 3.140625 -2.671875 C 3.085938 -2.804688 3.003906 -2.910156 2.890625 -2.984375 C 2.773438 -3.054688 2.632812 -3.09375 2.46875 -3.09375 C 2.3125 -3.09375 2.171875 -3.054688 2.046875 -2.984375 C 1.921875 -2.910156 1.820312 -2.804688 1.75 -2.671875 C 1.6875 -2.546875 1.65625 -2.398438 1.65625 -2.234375 L 1.65625 -0.140625 C 1.65625 -0.046875 1.601562 0 1.5 0 L 0.640625 0 C 0.546875 0 0.5 -0.046875 0.5 -0.140625 L 0.5 -3.84375 C 0.5 -3.9375 0.546875 -3.984375 0.640625 -3.984375 L 1.203125 -3.984375 C 1.285156 -3.984375 1.335938 -3.941406 1.359375 -3.859375 L 1.484375 -3.5 C 1.703125 -3.707031 1.929688 -3.851562 2.171875 -3.9375 C 2.410156 -4.03125 2.648438 -4.078125 2.890625 -4.078125 Z M 2.890625 -4.078125 "/></g></g></g><g fill="#804098" fill-opacity="1"><g transform="translate(101.669724, 40.586687)"><g><path d="M 2.328125 -4.078125 C 2.617188 -4.078125 2.882812 -4.023438 3.125 -3.921875 C 3.363281 -3.828125 3.566406 -3.691406 3.734375 -3.515625 C 3.910156 -3.335938 4.046875 -3.117188 4.140625 -2.859375 C 4.234375 -2.609375 4.28125 -2.328125 4.28125 -2.015625 C 4.28125 -1.941406 4.269531 -1.890625 4.25 -1.859375 C 4.226562 -1.835938 4.179688 -1.828125 4.109375 -1.828125 L 1.4375 -1.828125 C 1.445312 -1.617188 1.5 -1.441406 1.59375 -1.296875 C 1.6875 -1.160156 1.804688 -1.054688 1.953125 -0.984375 C 2.097656 -0.921875 2.253906 -0.890625 2.421875 -0.890625 C 2.585938 -0.890625 2.753906 -0.921875 2.921875 -0.984375 C 3.097656 -1.046875 3.257812 -1.140625 3.40625 -1.265625 C 3.488281 -1.316406 3.554688 -1.3125 3.609375 -1.25 L 4.046875 -0.703125 C 4.109375 -0.640625 4.09375 -0.570312 4 -0.5 C 3.757812 -0.300781 3.5 -0.148438 3.21875 -0.046875 C 2.945312 0.046875 2.671875 0.09375 2.390625 0.09375 C 2.109375 0.09375 1.84375 0.046875 1.59375 -0.046875 C 1.34375 -0.148438 1.125 -0.289062 0.9375 -0.46875 C 0.75 -0.644531 0.597656 -0.863281 0.484375 -1.125 C 0.378906 -1.382812 0.328125 -1.675781 0.328125 -2 C 0.328125 -2.3125 0.375 -2.59375 0.46875 -2.84375 C 0.570312 -3.101562 0.710938 -3.320312 0.890625 -3.5 C 1.078125 -3.6875 1.289062 -3.828125 1.53125 -3.921875 C 1.78125 -4.023438 2.046875 -4.078125 2.328125 -4.078125 Z M 2.359375 -3.171875 C 2.253906 -3.171875 2.140625 -3.148438 2.015625 -3.109375 C 1.898438 -3.078125 1.796875 -3.015625 1.703125 -2.921875 C 1.609375 -2.835938 1.539062 -2.71875 1.5 -2.5625 L 3.125 -2.5625 C 3.09375 -2.71875 3.035156 -2.835938 2.953125 -2.921875 C 2.878906 -3.015625 2.789062 -3.078125 2.6875 -3.109375 C 2.582031 -3.148438 2.472656 -3.171875 2.359375 -3.171875 Z M 2.359375 -3.171875 "/></g></g></g><g fill="#804098" fill-opacity="1"><g transform="translate(106.892047, 40.586687)"><g><path d="M 1.203125 0.921875 L 0.671875 0.921875 C 0.617188 0.921875 0.582031 0.90625 0.5625 0.875 C 0.539062 0.84375 0.535156 0.804688 0.546875 0.765625 L 0.9375 -1.171875 C 0.957031 -1.253906 1.007812 -1.296875 1.09375 -1.296875 L 1.796875 -1.296875 C 1.847656 -1.296875 1.882812 -1.28125 1.90625 -1.25 C 1.9375 -1.226562 1.941406 -1.191406 1.921875 -1.140625 L 1.375 0.796875 C 1.34375 0.878906 1.285156 0.921875 1.203125 0.921875 Z M 1.203125 0.921875 "/></g></g></g><g fill="#804098" fill-opacity="1"><g transform="translate(109.895292, 40.586687)"><g/></g></g><g fill="#804098" fill-opacity="1"><g transform="translate(112.80143, 40.586687)"><g><path d="M 2.71875 0 L 0.6875 0 C 0.59375 0 0.546875 -0.046875 0.546875 -0.140625 L 0.546875 -5.375 C 0.546875 -5.46875 0.59375 -5.515625 0.6875 -5.515625 L 2.65625 -5.515625 C 3 -5.515625 3.285156 -5.476562 3.515625 -5.40625 C 3.742188 -5.332031 3.925781 -5.226562 4.0625 -5.09375 C 4.207031 -4.96875 4.3125 -4.816406 4.375 -4.640625 C 4.4375 -4.472656 4.46875 -4.289062 4.46875 -4.09375 C 4.46875 -3.8125 4.398438 -3.5625 4.265625 -3.34375 C 4.140625 -3.125 3.960938 -2.953125 3.734375 -2.828125 C 3.960938 -2.753906 4.144531 -2.648438 4.28125 -2.515625 C 4.414062 -2.390625 4.515625 -2.242188 4.578125 -2.078125 C 4.640625 -1.921875 4.671875 -1.75 4.671875 -1.5625 C 4.671875 -1.414062 4.65625 -1.265625 4.625 -1.109375 C 4.59375 -0.960938 4.53125 -0.820312 4.4375 -0.6875 C 4.351562 -0.550781 4.234375 -0.429688 4.078125 -0.328125 C 3.929688 -0.222656 3.742188 -0.140625 3.515625 -0.078125 C 3.296875 -0.0234375 3.03125 0 2.71875 0 Z M 1.796875 -4.4375 L 1.796875 -3.296875 L 2.6875 -3.296875 C 2.851562 -3.296875 2.984375 -3.320312 3.078125 -3.375 C 3.179688 -3.425781 3.25 -3.492188 3.28125 -3.578125 C 3.320312 -3.671875 3.34375 -3.769531 3.34375 -3.875 C 3.34375 -3.988281 3.320312 -4.085938 3.28125 -4.171875 C 3.238281 -4.253906 3.164062 -4.316406 3.0625 -4.359375 C 2.96875 -4.410156 2.828125 -4.4375 2.640625 -4.4375 Z M 1.796875 -2.34375 L 1.796875 -1.078125 L 2.6875 -1.078125 C 2.882812 -1.078125 3.035156 -1.101562 3.140625 -1.15625 C 3.242188 -1.21875 3.316406 -1.296875 3.359375 -1.390625 C 3.398438 -1.492188 3.421875 -1.601562 3.421875 -1.71875 C 3.421875 -1.832031 3.394531 -1.9375 3.34375 -2.03125 C 3.300781 -2.125 3.226562 -2.195312 3.125 -2.25 C 3.03125 -2.3125 2.894531 -2.34375 2.71875 -2.34375 Z M 1.796875 -2.34375 "/></g></g></g><g fill="#804098" fill-opacity="1"><g transform="translate(118.45534, 40.586687)"><g><path d="M 1.0625 -4.28125 C 0.945312 -4.28125 0.835938 -4.304688 0.734375 -4.359375 C 0.628906 -4.421875 0.546875 -4.5 0.484375 -4.59375 C 0.429688 -4.695312 0.40625 -4.8125 0.40625 -4.9375 C 0.40625 -5.0625 0.429688 -5.171875 0.484375 -5.265625 C 0.546875 -5.367188 0.628906 -5.445312 0.734375 -5.5 C 0.835938 -5.5625 0.945312 -5.59375 1.0625 -5.59375 C 1.1875 -5.59375 1.296875 -5.5625 1.390625 -5.5 C 1.492188 -5.445312 1.570312 -5.367188 1.625 -5.265625 C 1.6875 -5.171875 1.71875 -5.0625 1.71875 -4.9375 C 1.71875 -4.8125 1.6875 -4.695312 1.625 -4.59375 C 1.570312 -4.5 1.492188 -4.421875 1.390625 -4.359375 C 1.296875 -4.304688 1.1875 -4.28125 1.0625 -4.28125 Z M 1.5 0 L 0.640625 0 C 0.546875 0 0.5 -0.046875 0.5 -0.140625 L 0.5 -3.84375 C 0.5 -3.9375 0.546875 -3.984375 0.640625 -3.984375 L 1.5 -3.984375 C 1.601562 -3.984375 1.65625 -3.9375 1.65625 -3.84375 L 1.65625 -0.140625 C 1.65625 -0.046875 1.601562 0 1.5 0 Z M 1.5 0 "/></g></g></g><g fill="#804098" fill-opacity="1"><g transform="translate(121.232002, 40.586687)"><g><path d="M 3.90625 -3.984375 L 4.46875 -3.984375 C 4.5625 -3.984375 4.609375 -3.9375 4.609375 -3.84375 L 4.59375 -0.21875 C 4.59375 0.207031 4.507812 0.5625 4.34375 0.84375 C 4.1875 1.132812 3.957031 1.351562 3.65625 1.5 C 3.363281 1.644531 3.019531 1.71875 2.625 1.71875 C 2.320312 1.71875 2.007812 1.671875 1.6875 1.578125 C 1.375 1.484375 1.0625 1.351562 0.75 1.1875 C 0.664062 1.144531 0.648438 1.078125 0.703125 0.984375 L 1.046875 0.34375 C 1.097656 0.257812 1.164062 0.242188 1.25 0.296875 C 1.46875 0.410156 1.6875 0.503906 1.90625 0.578125 C 2.132812 0.660156 2.347656 0.703125 2.546875 0.703125 C 2.722656 0.703125 2.875 0.671875 3 0.609375 C 3.132812 0.546875 3.238281 0.453125 3.3125 0.328125 C 3.394531 0.203125 3.4375 0.03125 3.4375 -0.1875 L 3.4375 -0.578125 C 3.269531 -0.378906 3.082031 -0.238281 2.875 -0.15625 C 2.675781 -0.0703125 2.46875 -0.03125 2.25 -0.03125 C 1.96875 -0.03125 1.707031 -0.078125 1.46875 -0.171875 C 1.238281 -0.265625 1.035156 -0.398438 0.859375 -0.578125 C 0.691406 -0.753906 0.554688 -0.960938 0.453125 -1.203125 C 0.359375 -1.441406 0.3125 -1.707031 0.3125 -2 C 0.3125 -2.28125 0.359375 -2.546875 0.453125 -2.796875 C 0.554688 -3.046875 0.691406 -3.265625 0.859375 -3.453125 C 1.035156 -3.648438 1.238281 -3.800781 1.46875 -3.90625 C 1.707031 -4.019531 1.96875 -4.078125 2.25 -4.078125 C 2.519531 -4.078125 2.769531 -4.019531 3 -3.90625 C 3.238281 -3.800781 3.441406 -3.648438 3.609375 -3.453125 L 3.734375 -3.859375 C 3.765625 -3.941406 3.820312 -3.984375 3.90625 -3.984375 Z M 2.484375 -1.03125 C 2.671875 -1.03125 2.84375 -1.070312 3 -1.15625 C 3.15625 -1.238281 3.273438 -1.359375 3.359375 -1.515625 C 3.453125 -1.671875 3.5 -1.847656 3.5 -2.046875 C 3.5 -2.253906 3.453125 -2.429688 3.359375 -2.578125 C 3.273438 -2.734375 3.15625 -2.851562 3 -2.9375 C 2.84375 -3.03125 2.671875 -3.078125 2.484375 -3.078125 C 2.296875 -3.078125 2.125 -3.03125 1.96875 -2.9375 C 1.820312 -2.851562 1.703125 -2.734375 1.609375 -2.578125 C 1.515625 -2.429688 1.46875 -2.253906 1.46875 -2.046875 C 1.46875 -1.847656 1.515625 -1.671875 1.609375 -1.515625 C 1.703125 -1.359375 1.820312 -1.238281 1.96875 -1.15625 C 2.125 -1.070312 2.296875 -1.03125 2.484375 -1.03125 Z M 2.484375 -1.03125 "/></g></g></g><g fill="#804098" fill-opacity="1"><g transform="translate(126.965036, 40.586687)"><g/></g></g><g fill="#804098" fill-opacity="1"><g transform="translate(129.871174, 40.586687)"><g><path d="M 2.359375 0 L 0.6875 0 C 0.59375 0 0.546875 -0.046875 0.546875 -0.140625 L 0.546875 -5.375 C 0.546875 -5.46875 0.59375 -5.515625 0.6875 -5.515625 L 2.359375 -5.515625 C 3.023438 -5.515625 3.578125 -5.40625 4.015625 -5.1875 C 4.453125 -4.96875 4.78125 -4.65625 5 -4.25 C 5.21875 -3.84375 5.328125 -3.34375 5.328125 -2.75 C 5.328125 -2.175781 5.21875 -1.679688 5 -1.265625 C 4.789062 -0.859375 4.460938 -0.546875 4.015625 -0.328125 C 3.578125 -0.109375 3.023438 0 2.359375 0 Z M 1.8125 -4.4375 L 1.8125 -1.078125 L 2.359375 -1.078125 C 2.921875 -1.078125 3.347656 -1.222656 3.640625 -1.515625 C 3.929688 -1.816406 4.078125 -2.238281 4.078125 -2.78125 C 4.078125 -3.3125 3.929688 -3.71875 3.640625 -4 C 3.347656 -4.289062 2.921875 -4.4375 2.359375 -4.4375 Z M 1.8125 -4.4375 "/></g></g></g><g fill="#804098" fill-opacity="1"><g transform="translate(136.165272, 40.586687)"><g><path d="M 1.5 0 L 0.640625 0 C 0.546875 0 0.5 -0.046875 0.5 -0.140625 L 0.5 -3.84375 C 0.5 -3.9375 0.546875 -3.984375 0.640625 -3.984375 L 1.203125 -3.984375 C 1.273438 -3.984375 1.328125 -3.941406 1.359375 -3.859375 L 1.484375 -3.46875 C 1.628906 -3.6875 1.800781 -3.84375 2 -3.9375 C 2.195312 -4.03125 2.394531 -4.078125 2.59375 -4.078125 C 2.707031 -4.078125 2.832031 -4.054688 2.96875 -4.015625 C 3.007812 -4.003906 3.035156 -3.984375 3.046875 -3.953125 C 3.066406 -3.921875 3.070312 -3.878906 3.0625 -3.828125 L 2.875 -3.109375 C 2.851562 -3.015625 2.789062 -2.976562 2.6875 -3 C 2.625 -3.019531 2.5625 -3.03125 2.5 -3.03125 C 2.4375 -3.039062 2.382812 -3.046875 2.34375 -3.046875 C 2.113281 -3.046875 1.941406 -2.972656 1.828125 -2.828125 C 1.710938 -2.679688 1.65625 -2.460938 1.65625 -2.171875 L 1.65625 -0.140625 C 1.65625 -0.046875 1.601562 0 1.5 0 Z M 1.5 0 "/></g></g></g><g fill="#804098" fill-opacity="1"><g transform="translate(140.017306, 40.586687)"><g><path d="M 2.328125 -4.078125 C 2.617188 -4.078125 2.882812 -4.023438 3.125 -3.921875 C 3.363281 -3.828125 3.566406 -3.691406 3.734375 -3.515625 C 3.910156 -3.335938 4.046875 -3.117188 4.140625 -2.859375 C 4.234375 -2.609375 4.28125 -2.328125 4.28125 -2.015625 C 4.28125 -1.941406 4.269531 -1.890625 4.25 -1.859375 C 4.226562 -1.835938 4.179688 -1.828125 4.109375 -1.828125 L 1.4375 -1.828125 C 1.445312 -1.617188 1.5 -1.441406 1.59375 -1.296875 C 1.6875 -1.160156 1.804688 -1.054688 1.953125 -0.984375 C 2.097656 -0.921875 2.253906 -0.890625 2.421875 -0.890625 C 2.585938 -0.890625 2.753906 -0.921875 2.921875 -0.984375 C 3.097656 -1.046875 3.257812 -1.140625 3.40625 -1.265625 C 3.488281 -1.316406 3.554688 -1.3125 3.609375 -1.25 L 4.046875 -0.703125 C 4.109375 -0.640625 4.09375 -0.570312 4 -0.5 C 3.757812 -0.300781 3.5 -0.148438 3.21875 -0.046875 C 2.945312 0.046875 2.671875 0.09375 2.390625 0.09375 C 2.109375 0.09375 1.84375 0.046875 1.59375 -0.046875 C 1.34375 -0.148438 1.125 -0.289062 0.9375 -0.46875 C 0.75 -0.644531 0.597656 -0.863281 0.484375 -1.125 C 0.378906 -1.382812 0.328125 -1.675781 0.328125 -2 C 0.328125 -2.3125 0.375 -2.59375 0.46875 -2.84375 C 0.570312 -3.101562 0.710938 -3.320312 0.890625 -3.5 C 1.078125 -3.6875 1.289062 -3.828125 1.53125 -3.921875 C 1.78125 -4.023438 2.046875 -4.078125 2.328125 -4.078125 Z M 2.359375 -3.171875 C 2.253906 -3.171875 2.140625 -3.148438 2.015625 -3.109375 C 1.898438 -3.078125 1.796875 -3.015625 1.703125 -2.921875 C 1.609375 -2.835938 1.539062 -2.71875 1.5 -2.5625 L 3.125 -2.5625 C 3.09375 -2.71875 3.035156 -2.835938 2.953125 -2.921875 C 2.878906 -3.015625 2.789062 -3.078125 2.6875 -3.109375 C 2.582031 -3.148438 2.472656 -3.171875 2.359375 -3.171875 Z M 2.359375 -3.171875 "/></g></g></g><g fill="#804098" fill-opacity="1"><g transform="translate(145.239624, 40.586687)"><g><path d="M 2.015625 -4.078125 C 2.265625 -4.078125 2.492188 -4.046875 2.703125 -3.984375 C 2.921875 -3.929688 3.113281 -3.847656 3.28125 -3.734375 C 3.445312 -3.617188 3.578125 -3.460938 3.671875 -3.265625 C 3.765625 -3.078125 3.8125 -2.84375 3.8125 -2.5625 L 3.8125 -0.140625 C 3.8125 -0.046875 3.765625 0 3.671875 0 L 3.109375 0 C 3.023438 0 2.972656 -0.0390625 2.953125 -0.125 L 2.84375 -0.453125 C 2.738281 -0.328125 2.625 -0.222656 2.5 -0.140625 C 2.375 -0.0546875 2.238281 0 2.09375 0.03125 C 1.957031 0.0703125 1.820312 0.09375 1.6875 0.09375 C 1.507812 0.09375 1.335938 0.0625 1.171875 0 C 1.015625 -0.0507812 0.867188 -0.128906 0.734375 -0.234375 C 0.609375 -0.335938 0.507812 -0.46875 0.4375 -0.625 C 0.363281 -0.78125 0.328125 -0.960938 0.328125 -1.171875 C 0.328125 -1.378906 0.363281 -1.5625 0.4375 -1.71875 C 0.519531 -1.875 0.632812 -2.003906 0.78125 -2.109375 C 0.925781 -2.222656 1.09375 -2.304688 1.28125 -2.359375 C 1.46875 -2.410156 1.671875 -2.4375 1.890625 -2.4375 C 2.015625 -2.4375 2.140625 -2.425781 2.265625 -2.40625 C 2.398438 -2.394531 2.535156 -2.367188 2.671875 -2.328125 L 2.671875 -2.53125 C 2.671875 -2.6875 2.632812 -2.804688 2.5625 -2.890625 C 2.5 -2.984375 2.410156 -3.050781 2.296875 -3.09375 C 2.191406 -3.132812 2.066406 -3.15625 1.921875 -3.15625 C 1.773438 -3.15625 1.613281 -3.132812 1.4375 -3.09375 C 1.269531 -3.0625 1.101562 -3.007812 0.9375 -2.9375 C 0.894531 -2.925781 0.851562 -2.925781 0.8125 -2.9375 C 0.78125 -2.945312 0.757812 -2.972656 0.75 -3.015625 L 0.546875 -3.65625 C 0.515625 -3.75 0.546875 -3.8125 0.640625 -3.84375 C 0.859375 -3.914062 1.085938 -3.972656 1.328125 -4.015625 C 1.566406 -4.054688 1.796875 -4.078125 2.015625 -4.078125 Z M 2 -0.71875 C 2.070312 -0.71875 2.144531 -0.726562 2.21875 -0.75 C 2.300781 -0.769531 2.375 -0.804688 2.4375 -0.859375 C 2.507812 -0.921875 2.566406 -0.992188 2.609375 -1.078125 C 2.648438 -1.171875 2.671875 -1.285156 2.671875 -1.421875 L 2.671875 -1.609375 C 2.585938 -1.628906 2.503906 -1.644531 2.421875 -1.65625 C 2.335938 -1.664062 2.253906 -1.671875 2.171875 -1.671875 C 2.046875 -1.671875 1.925781 -1.65625 1.8125 -1.625 C 1.707031 -1.59375 1.625 -1.539062 1.5625 -1.46875 C 1.5 -1.394531 1.46875 -1.296875 1.46875 -1.171875 C 1.46875 -1.066406 1.492188 -0.976562 1.546875 -0.90625 C 1.597656 -0.84375 1.660156 -0.796875 1.734375 -0.765625 C 1.816406 -0.734375 1.90625 -0.71875 2 -0.71875 Z M 2 -0.71875 "/></g></g></g><g fill="#804098" fill-opacity="1"><g transform="translate(150.141849, 40.586687)"><g><path d="M 5.21875 -4.078125 C 5.4375 -4.078125 5.632812 -4.035156 5.8125 -3.953125 C 6 -3.878906 6.15625 -3.769531 6.28125 -3.625 C 6.40625 -3.488281 6.5 -3.328125 6.5625 -3.140625 C 6.625 -2.953125 6.65625 -2.75 6.65625 -2.53125 L 6.65625 -0.140625 C 6.65625 -0.046875 6.601562 0 6.5 0 L 5.65625 0 C 5.5625 0 5.515625 -0.046875 5.515625 -0.140625 L 5.515625 -2.296875 C 5.515625 -2.453125 5.488281 -2.585938 5.4375 -2.703125 C 5.394531 -2.828125 5.328125 -2.921875 5.234375 -2.984375 C 5.140625 -3.054688 5.019531 -3.09375 4.875 -3.09375 C 4.632812 -3.09375 4.453125 -3.019531 4.328125 -2.875 C 4.210938 -2.726562 4.15625 -2.539062 4.15625 -2.3125 L 4.15625 -0.140625 C 4.15625 -0.046875 4.109375 0 4.015625 0 L 3.15625 0 C 3.0625 0 3.015625 -0.046875 3.015625 -0.140625 L 3.015625 -2.296875 C 3.015625 -2.453125 2.992188 -2.585938 2.953125 -2.703125 C 2.910156 -2.828125 2.84375 -2.921875 2.75 -2.984375 C 2.65625 -3.054688 2.523438 -3.09375 2.359375 -3.09375 C 2.128906 -3.09375 1.953125 -3.019531 1.828125 -2.875 C 1.710938 -2.726562 1.65625 -2.539062 1.65625 -2.3125 L 1.65625 -0.140625 C 1.65625 -0.046875 1.601562 0 1.5 0 L 0.640625 0 C 0.546875 0 0.5 -0.046875 0.5 -0.140625 L 0.5 -3.84375 C 0.5 -3.9375 0.546875 -3.984375 0.640625 -3.984375 L 1.203125 -3.984375 C 1.285156 -3.984375 1.335938 -3.941406 1.359375 -3.859375 L 1.46875 -3.53125 C 1.6875 -3.738281 1.898438 -3.878906 2.109375 -3.953125 C 2.316406 -4.035156 2.523438 -4.078125 2.734375 -4.078125 C 2.953125 -4.078125 3.160156 -4.019531 3.359375 -3.90625 C 3.566406 -3.800781 3.722656 -3.648438 3.828125 -3.453125 C 3.941406 -3.585938 4.070312 -3.703125 4.21875 -3.796875 C 4.375 -3.890625 4.535156 -3.957031 4.703125 -4 C 4.878906 -4.050781 5.050781 -4.078125 5.21875 -4.078125 Z M 5.21875 -4.078125 "/></g></g></g><g fill="#804098" fill-opacity="1"><g transform="translate(157.881759, 40.586687)"><g><path d="M 1.734375 0.09375 C 1.535156 0.09375 1.335938 0.078125 1.140625 0.046875 C 0.941406 0.015625 0.726562 -0.0234375 0.5 -0.078125 C 0.445312 -0.0859375 0.410156 -0.109375 0.390625 -0.140625 C 0.378906 -0.179688 0.378906 -0.222656 0.390625 -0.265625 L 0.59375 -0.890625 C 0.625 -0.972656 0.6875 -1 0.78125 -0.96875 C 0.957031 -0.914062 1.128906 -0.875 1.296875 -0.84375 C 1.460938 -0.8125 1.609375 -0.796875 1.734375 -0.796875 C 1.867188 -0.796875 1.976562 -0.816406 2.0625 -0.859375 C 2.15625 -0.898438 2.203125 -0.976562 2.203125 -1.09375 C 2.203125 -1.144531 2.171875 -1.191406 2.109375 -1.234375 C 2.046875 -1.285156 1.96875 -1.332031 1.875 -1.375 C 1.78125 -1.425781 1.675781 -1.472656 1.5625 -1.515625 C 1.445312 -1.566406 1.328125 -1.625 1.203125 -1.6875 C 1.054688 -1.757812 0.914062 -1.847656 0.78125 -1.953125 C 0.65625 -2.054688 0.550781 -2.175781 0.46875 -2.3125 C 0.394531 -2.445312 0.359375 -2.609375 0.359375 -2.796875 C 0.359375 -3.023438 0.398438 -3.21875 0.484375 -3.375 C 0.566406 -3.539062 0.675781 -3.675781 0.8125 -3.78125 C 0.957031 -3.882812 1.117188 -3.957031 1.296875 -4 C 1.484375 -4.050781 1.671875 -4.078125 1.859375 -4.078125 C 2.023438 -4.078125 2.207031 -4.0625 2.40625 -4.03125 C 2.601562 -4 2.800781 -3.953125 3 -3.890625 C 3.03125 -3.878906 3.054688 -3.859375 3.078125 -3.828125 C 3.097656 -3.796875 3.101562 -3.753906 3.09375 -3.703125 L 2.90625 -3.09375 C 2.894531 -3.039062 2.867188 -3.003906 2.828125 -2.984375 C 2.796875 -2.972656 2.757812 -2.972656 2.71875 -2.984375 C 2.5625 -3.035156 2.40625 -3.078125 2.25 -3.109375 C 2.101562 -3.148438 1.96875 -3.171875 1.84375 -3.171875 C 1.738281 -3.171875 1.648438 -3.148438 1.578125 -3.109375 C 1.515625 -3.078125 1.484375 -3.019531 1.484375 -2.9375 C 1.484375 -2.863281 1.523438 -2.796875 1.609375 -2.734375 C 1.691406 -2.679688 1.796875 -2.628906 1.921875 -2.578125 C 2.054688 -2.523438 2.203125 -2.460938 2.359375 -2.390625 C 2.472656 -2.335938 2.585938 -2.273438 2.703125 -2.203125 C 2.816406 -2.140625 2.921875 -2.0625 3.015625 -1.96875 C 3.117188 -1.875 3.195312 -1.765625 3.25 -1.640625 C 3.3125 -1.515625 3.34375 -1.367188 3.34375 -1.203125 C 3.34375 -0.953125 3.296875 -0.742188 3.203125 -0.578125 C 3.109375 -0.410156 2.984375 -0.28125 2.828125 -0.1875 C 2.671875 -0.09375 2.492188 -0.0234375 2.296875 0.015625 C 2.109375 0.0664062 1.921875 0.09375 1.734375 0.09375 Z M 1.734375 0.09375 "/></g></g></g><g fill="#804098" fill-opacity="1"><g transform="translate(162.161779, 40.586687)"><g><path d="M 1.296875 0.09375 C 1.160156 0.09375 1.035156 0.0625 0.921875 0 C 0.816406 -0.0703125 0.726562 -0.164062 0.65625 -0.28125 C 0.59375 -0.394531 0.5625 -0.515625 0.5625 -0.640625 C 0.5625 -0.773438 0.59375 -0.894531 0.65625 -1 C 0.726562 -1.113281 0.816406 -1.207031 0.921875 -1.28125 C 1.035156 -1.351562 1.160156 -1.390625 1.296875 -1.390625 C 1.429688 -1.390625 1.550781 -1.351562 1.65625 -1.28125 C 1.769531 -1.21875 1.859375 -1.128906 1.921875 -1.015625 C 1.992188 -0.898438 2.03125 -0.773438 2.03125 -0.640625 C 2.03125 -0.503906 1.992188 -0.378906 1.921875 -0.265625 C 1.859375 -0.160156 1.769531 -0.0703125 1.65625 0 C 1.550781 0.0625 1.429688 0.09375 1.296875 0.09375 Z M 1.296875 0.09375 "/></g></g></g></svg>