<svg xmlns="http://www.w3.org/2000/svg" xmlns:xlink="http://www.w3.org/1999/xlink" width="500" zoomAndPan="magnify" viewBox="0 0 375 374.999991" height="500" preserveAspectRatio="xMidYMid meet" version="1.0"><defs><g/><clipPath id="85c8c502cc"><path d="M 139.90625 203 L 282.285156 203 L 282.285156 234.867188 L 139.90625 234.867188 Z M 139.90625 203 " clip-rule="nonzero"/></clipPath><clipPath id="c160a4c8fb"><path d="M 92.621094 206.824219 L 244.695312 206.824219 L 244.695312 240.425781 L 92.621094 240.425781 Z M 92.621094 206.824219 " clip-rule="nonzero"/></clipPath><clipPath id="0008129518"><path d="M 214 66.425781 L 224 66.425781 L 224 76 L 214 76 Z M 214 66.425781 " clip-rule="nonzero"/></clipPath><clipPath id="4c87c9ae56"><path d="M 233.859375 233.703125 L 246.664062 233.703125 L 246.664062 247.273438 L 233.859375 247.273438 Z M 233.859375 233.703125 " clip-rule="nonzero"/></clipPath><clipPath id="e6e1fe3350"><path d="M 235.453125 238.128906 L 245.203125 238.128906 L 245.203125 247.128906 L 235.453125 247.128906 Z M 235.453125 238.128906 " clip-rule="nonzero"/></clipPath></defs><path fill="#6bc30d" d="M 114.539062 229.382812 C 114.539062 229.382812 114.996094 229.101562 115.867188 228.5625 C 116.742188 228.03125 118.023438 227.222656 119.703125 226.238281 C 123.117188 224.363281 128.074219 221.605469 134.578125 218.992188 C 137.632812 217.738281 141.015625 216.480469 144.695312 215.296875 C 151.324219 213.511719 158.417969 212.046875 165.8125 210.980469 C 174.957031 209.660156 183.835938 209.070312 192.097656 209.070312 C 193.617188 209.070312 195.117188 209.089844 196.59375 209.128906 C 201.570312 209.246094 206.289062 209.558594 210.675781 209.996094 C 210.871094 210.027344 211.0625 210.058594 211.257812 210.085938 C 212.460938 210.277344 213.652344 210.460938 214.828125 210.648438 C 216 210.867188 217.15625 211.109375 218.296875 211.335938 C 227.417969 213.179688 235.414062 215.738281 241.921875 218.324219 C 242.734375 218.648438 243.53125 218.960938 244.304688 219.265625 C 245.070312 219.59375 245.808594 219.933594 246.53125 220.25 C 247.25 220.574219 247.949219 220.882812 248.625 221.1875 C 249.304688 221.488281 249.960938 221.777344 250.574219 222.101562 C 253.058594 223.351562 255.207031 224.390625 256.886719 225.382812 C 257.734375 225.863281 258.488281 226.285156 259.144531 226.65625 C 259.46875 226.839844 259.769531 227.011719 260.042969 227.167969 C 260.3125 227.332031 260.554688 227.484375 260.773438 227.621094 C 261.640625 228.167969 262.097656 228.453125 262.097656 228.453125 C 262.097656 228.453125 261.609375 228.222656 260.6875 227.785156 C 260.457031 227.675781 260.195312 227.554688 259.914062 227.421875 C 259.621094 227.296875 259.304688 227.160156 258.960938 227.015625 C 258.273438 226.71875 257.480469 226.378906 256.589844 225.996094 C 254.824219 225.1875 252.589844 224.375 250.035156 223.367188 C 249.398438 223.109375 248.722656 222.882812 248.027344 222.644531 C 247.335938 222.402344 246.621094 222.15625 245.882812 221.902344 C 245.148438 221.648438 244.394531 221.378906 243.617188 221.117188 C 242.832031 220.878906 242.023438 220.632812 241.199219 220.378906 C 234.605469 218.34375 226.625 216.359375 217.640625 214.953125 C 216.519531 214.78125 215.382812 214.605469 214.234375 214.425781 C 213.078125 214.289062 211.910156 214.148438 210.730469 214.007812 C 210.480469 213.976562 210.226562 213.945312 209.976562 213.917969 C 209.378906 213.796875 208.765625 213.675781 208.140625 213.554688 C 207.015625 213.386719 205.847656 213.210938 204.648438 213.027344 C 204.046875 212.941406 203.4375 212.851562 202.820312 212.761719 C 202.507812 212.71875 202.199219 212.667969 201.882812 212.632812 C 201.570312 212.601562 201.25 212.570312 200.933594 212.539062 C 198.378906 212.300781 195.695312 211.992188 192.898438 211.925781 C 192.199219 211.898438 191.496094 211.871094 190.785156 211.84375 C 190.429688 211.832031 190.070312 211.820312 189.714844 211.808594 L 189.175781 211.789062 L 188.632812 211.796875 C 187.191406 211.808594 185.722656 211.832031 184.242188 211.863281 C 183.5 211.882812 182.761719 211.886719 182.03125 211.925781 C 181.300781 211.976562 180.574219 212.027344 179.855469 212.082031 C 178.414062 212.1875 176.996094 212.300781 175.601562 212.417969 C 174.214844 212.582031 172.855469 212.769531 171.523438 212.949219 C 170.191406 213.140625 168.882812 213.285156 167.628906 213.550781 C 165.09375 214 162.703125 214.503906 160.484375 215.039062 C 159.921875 215.128906 159.367188 215.21875 158.8125 215.3125 C 149.851562 216.828125 141.902344 218.921875 135.332031 221.035156 C 128.734375 223.101562 123.59375 225.34375 120.011719 226.84375 C 116.488281 228.476562 114.539062 229.382812 114.539062 229.382812 " fill-opacity="1" fill-rule="nonzero"/><path fill="#009bdb" d="M 142.664062 220.945312 C 142.664062 220.945312 142.9375 220.824219 143.453125 220.589844 C 143.710938 220.464844 144.035156 220.339844 144.421875 220.1875 C 144.808594 220.039062 145.253906 219.863281 145.753906 219.667969 C 146.757812 219.28125 147.992188 218.8125 149.429688 218.273438 C 150.875 217.773438 152.542969 217.261719 154.390625 216.679688 C 156.234375 216.121094 158.277344 215.566406 160.484375 215.039062 C 169.003906 213.675781 178.382812 212.835938 188.210938 212.765625 C 188.539062 212.757812 188.867188 212.753906 189.191406 212.746094 C 189.519531 212.75 189.84375 212.757812 190.171875 212.761719 C 190.820312 212.773438 191.46875 212.785156 192.117188 212.796875 C 193.410156 212.824219 194.695312 212.824219 195.96875 212.871094 C 197.242188 212.933594 198.507812 213 199.761719 213.0625 C 200.390625 213.09375 201.015625 213.125 201.636719 213.15625 C 202.257812 213.183594 202.875 213.257812 203.488281 213.304688 C 204.722656 213.40625 205.941406 213.511719 207.148438 213.613281 C 207.453125 213.640625 207.753906 213.664062 208.054688 213.6875 C 208.355469 213.710938 208.652344 213.757812 208.949219 213.792969 C 209.292969 213.832031 209.636719 213.875 209.976562 213.917969 C 211.523438 214.226562 212.984375 214.527344 214.347656 214.816406 C 216.226562 215.289062 217.917969 215.730469 219.398438 216.125 C 219.769531 216.226562 220.128906 216.3125 220.46875 216.417969 C 220.808594 216.527344 221.136719 216.628906 221.449219 216.726562 C 222.074219 216.925781 222.644531 217.109375 223.160156 217.273438 C 224.183594 217.605469 224.976562 217.867188 225.515625 218.042969 C 226.054688 218.214844 226.332031 218.332031 226.332031 218.332031 C 226.332031 218.332031 226.039062 218.28125 225.472656 218.226562 C 224.910156 218.160156 224.082031 218.0625 223.015625 217.9375 C 222.480469 217.871094 221.890625 217.796875 221.242188 217.71875 C 220.921875 217.675781 220.582031 217.632812 220.234375 217.585938 C 219.882812 217.539062 219.515625 217.519531 219.136719 217.480469 C 217.621094 217.339844 215.902344 217.171875 214.007812 216.96875 C 212.101562 216.84375 210.019531 216.6875 207.792969 216.515625 C 206.675781 216.464844 205.519531 216.414062 204.332031 216.359375 C 203.738281 216.332031 203.136719 216.300781 202.523438 216.269531 C 202.21875 216.253906 201.914062 216.230469 201.601562 216.222656 C 201.292969 216.21875 200.980469 216.210938 200.667969 216.207031 C 198.574219 216.179688 196.402344 216.082031 194.15625 216.082031 C 193.707031 216.082031 193.257812 216.085938 192.804688 216.097656 C 192.121094 216.097656 191.433594 216.097656 190.742188 216.097656 C 190.394531 216.09375 190.046875 216.09375 189.699219 216.089844 L 189.175781 216.085938 L 188.648438 216.105469 C 187.242188 216.152344 185.816406 216.191406 184.371094 216.21875 C 183.652344 216.238281 182.933594 216.238281 182.21875 216.265625 C 181.507812 216.304688 180.800781 216.34375 180.097656 216.382812 C 178.695312 216.457031 177.3125 216.519531 175.949219 216.574219 C 174.59375 216.679688 173.257812 216.78125 171.953125 216.882812 C 170.644531 216.988281 169.359375 217.035156 168.117188 217.195312 C 163.128906 217.671875 158.632812 218.234375 154.867188 218.804688 C 152.988281 219.117188 151.273438 219.359375 149.777344 219.609375 C 148.289062 219.894531 147 220.132812 145.941406 220.324219 C 145.414062 220.417969 144.945312 220.5 144.535156 220.574219 C 144.128906 220.644531 143.78125 220.703125 143.507812 220.769531 C 142.957031 220.882812 142.664062 220.945312 142.664062 220.945312 " fill-opacity="1" fill-rule="nonzero"/><path fill="#00770b" d="M 160.484375 215.039062 C 162.703125 214.503906 165.09375 214 167.628906 213.550781 C 168.882812 213.285156 170.191406 213.140625 171.523438 212.949219 C 172.855469 212.769531 174.214844 212.582031 175.601562 212.417969 C 176.996094 212.300781 178.414062 212.1875 179.855469 212.082031 C 180.574219 212.027344 181.300781 211.976562 182.03125 211.925781 C 182.761719 211.886719 183.5 211.882812 184.242188 211.863281 C 185.722656 211.832031 187.191406 211.808594 188.632812 211.796875 L 189.175781 211.789062 L 189.714844 211.808594 C 190.070312 211.820312 190.429688 211.832031 190.785156 211.84375 C 191.496094 211.871094 192.199219 211.898438 192.898438 211.925781 C 195.695312 211.992188 198.378906 212.300781 200.933594 212.539062 C 201.25 212.570312 201.570312 212.601562 201.882812 212.632812 C 202.199219 212.667969 202.507812 212.71875 202.820312 212.761719 C 203.4375 212.851562 204.046875 212.941406 204.648438 213.027344 C 205.847656 213.210938 207.015625 213.386719 208.140625 213.554688 C 208.765625 213.675781 209.378906 213.796875 209.976562 213.917969 C 209.636719 213.875 209.292969 213.832031 208.949219 213.792969 C 208.652344 213.757812 208.355469 213.710938 208.054688 213.6875 C 207.753906 213.664062 207.453125 213.640625 207.148438 213.613281 C 205.941406 213.511719 204.722656 213.40625 203.488281 213.304688 C 202.875 213.257812 202.257812 213.183594 201.636719 213.15625 C 201.015625 213.125 200.390625 213.09375 199.761719 213.0625 C 198.507812 213 197.242188 212.933594 195.96875 212.871094 C 194.695312 212.824219 193.410156 212.824219 192.117188 212.796875 C 191.46875 212.785156 190.820312 212.773438 190.171875 212.761719 C 189.84375 212.757812 189.519531 212.75 189.191406 212.746094 C 188.867188 212.753906 188.539062 212.757812 188.210938 212.765625 C 178.382812 212.835938 169.003906 213.675781 160.484375 215.039062 " fill-opacity="1" fill-rule="nonzero"/><g clip-path="url(#85c8c502cc)"><path fill="#df1b7d" d="M 282.285156 234.828125 C 282.285156 234.828125 280.515625 233.683594 277.320312 231.613281 C 274.054688 229.675781 269.375 226.800781 263.277344 223.917969 C 257.207031 220.996094 249.808594 217.925781 241.375 215.269531 C 240.847656 215.097656 240.320312 214.925781 239.789062 214.753906 C 239.710938 214.730469 239.632812 214.707031 239.554688 214.683594 C 239.300781 214.585938 239.035156 214.488281 238.761719 214.394531 C 237.800781 214.046875 236.730469 213.664062 235.5625 213.246094 C 234.976562 213.039062 234.367188 212.8125 233.726562 212.59375 C 233.082031 212.394531 232.414062 212.1875 231.722656 211.972656 C 231.027344 211.757812 230.308594 211.535156 229.566406 211.308594 C 229.195312 211.195312 228.820312 211.078125 228.4375 210.960938 C 228.246094 210.902344 228.050781 210.84375 227.859375 210.785156 C 227.660156 210.730469 227.464844 210.679688 227.265625 210.625 C 225.667969 210.210938 223.984375 209.769531 222.210938 209.308594 C 215.09375 207.601562 206.453125 206.09375 196.757812 205.453125 C 193.539062 205.230469 190.203125 205.113281 186.773438 205.113281 C 179.882812 205.113281 172.625 205.589844 165.191406 206.664062 C 157.269531 207.808594 149.699219 209.539062 142.714844 211.695312 C 142.226562 211.804688 141.800781 211.898438 141.441406 211.976562 C 140.953125 212.085938 140.589844 212.195312 140.339844 212.253906 C 140.09375 212.320312 139.96875 212.351562 139.96875 212.351562 C 139.96875 212.351562 140.089844 212.304688 140.328125 212.210938 C 140.566406 212.117188 140.914062 211.964844 141.386719 211.796875 C 142.332031 211.476562 143.722656 210.996094 145.515625 210.382812 C 146.414062 210.085938 147.40625 209.710938 148.519531 209.410156 C 149.632812 209.089844 150.835938 208.742188 152.132812 208.371094 C 152.78125 208.183594 153.453125 207.992188 154.148438 207.796875 C 154.851562 207.628906 155.570312 207.457031 156.316406 207.28125 C 157.804688 206.929688 159.378906 206.546875 161.042969 206.179688 C 167.703125 204.8125 175.75 203.617188 184.757812 203.183594 C 187.164062 203.0625 189.636719 203 192.167969 203 C 199.109375 203 206.488281 203.480469 214.058594 204.582031 C 214.707031 204.675781 215.347656 204.765625 215.992188 204.855469 C 216.628906 204.972656 217.265625 205.085938 217.902344 205.203125 C 219.167969 205.433594 220.429688 205.664062 221.679688 205.894531 C 222.304688 206 222.921875 206.152344 223.539062 206.289062 C 224.152344 206.429688 224.765625 206.570312 225.375 206.710938 C 226.59375 206.996094 227.808594 207.257812 229.003906 207.566406 C 230.191406 207.894531 231.367188 208.21875 232.53125 208.539062 C 233.695312 208.867188 234.855469 209.167969 235.976562 209.554688 C 237.105469 209.921875 238.21875 210.285156 239.320312 210.640625 C 239.871094 210.824219 240.421875 210.996094 240.960938 211.1875 C 241.5 211.386719 242.03125 211.589844 242.5625 211.785156 C 251.070312 214.898438 258.402344 218.542969 264.304688 221.996094 C 265.769531 222.882812 267.167969 223.710938 268.472656 224.527344 C 269.753906 225.386719 270.960938 226.195312 272.089844 226.949219 C 273.226562 227.6875 274.226562 228.46875 275.164062 229.15625 C 276.09375 229.851562 276.945312 230.484375 277.710938 231.054688 C 279.199219 232.253906 280.335938 233.207031 281.109375 233.847656 C 281.882812 234.488281 282.285156 234.828125 282.285156 234.828125 " fill-opacity="1" fill-rule="nonzero"/></g><g clip-path="url(#c160a4c8fb)"><path fill="#fdc800" d="M 92.621094 240.429688 C 92.621094 240.429688 93.039062 240.046875 93.832031 239.324219 C 94.230469 238.960938 94.726562 238.511719 95.3125 237.984375 C 95.605469 237.71875 95.917969 237.433594 96.257812 237.132812 C 96.425781 236.980469 96.601562 236.820312 96.78125 236.660156 C 96.871094 236.578125 96.960938 236.496094 97.054688 236.414062 C 97.152344 236.335938 97.25 236.257812 97.347656 236.175781 C 98.144531 235.527344 99.027344 234.8125 99.996094 234.023438 C 100.484375 233.632812 100.988281 233.222656 101.519531 232.796875 C 102.046875 232.375 102.625 231.976562 103.210938 231.542969 C 104.394531 230.691406 105.644531 229.753906 107.003906 228.8125 C 108.390625 227.90625 109.855469 226.949219 111.394531 225.945312 C 117.632812 222.066406 125.4375 217.980469 134.546875 214.511719 C 137.164062 213.511719 139.890625 212.566406 142.714844 211.695312 C 143.535156 211.515625 144.535156 211.292969 145.695312 211.039062 C 146.617188 210.839844 147.632812 210.578125 148.769531 210.390625 C 149.894531 210.183594 151.121094 209.957031 152.4375 209.714844 C 153.09375 209.59375 153.773438 209.464844 154.476562 209.335938 C 155.183594 209.234375 155.914062 209.128906 156.664062 209.019531 C 158.164062 208.804688 159.742188 208.558594 161.40625 208.328125 C 168.070312 207.511719 176.027344 206.882812 184.851562 206.863281 C 185.09375 206.859375 185.335938 206.859375 185.578125 206.859375 C 194.207031 206.859375 203.640625 207.46875 213.425781 208.894531 C 214.054688 208.984375 214.679688 209.070312 215.308594 209.15625 C 215.929688 209.265625 216.550781 209.378906 217.167969 209.484375 C 218.402344 209.699219 219.632812 209.914062 220.851562 210.125 C 221.464844 210.222656 222.066406 210.359375 222.667969 210.484375 C 223.269531 210.609375 223.867188 210.738281 224.464844 210.863281 C 225.65625 211.121094 226.847656 211.347656 228.015625 211.617188 C 229.179688 211.90625 230.335938 212.191406 231.480469 212.472656 C 232.621094 212.757812 233.761719 213.015625 234.867188 213.351562 C 235.980469 213.667969 237.078125 213.980469 238.167969 214.289062 C 238.628906 214.421875 239.09375 214.546875 239.554688 214.683594 C 240.191406 214.925781 240.765625 215.175781 241.285156 215.382812 C 242.011719 215.683594 242.625 215.9375 243.125 216.140625 C 244.113281 216.550781 244.632812 216.769531 244.632812 216.769531 C 244.632812 216.769531 244.09375 216.613281 243.058594 216.316406 C 242.546875 216.167969 241.910156 215.984375 241.15625 215.765625 C 240.402344 215.550781 239.542969 215.273438 238.550781 215.042969 C 237.566406 214.792969 236.472656 214.515625 235.273438 214.214844 C 234.675781 214.0625 234.050781 213.90625 233.402344 213.742188 C 232.75 213.601562 232.070312 213.457031 231.363281 213.304688 C 230.660156 213.152344 229.933594 212.996094 229.179688 212.832031 C 228.808594 212.753906 228.425781 212.667969 228.039062 212.585938 C 227.84375 212.542969 227.652344 212.5 227.453125 212.457031 C 227.257812 212.421875 227.058594 212.386719 226.855469 212.351562 C 225.253906 212.066406 223.558594 211.761719 221.777344 211.445312 C 218.382812 210.894531 214.664062 210.394531 210.675781 209.996094 C 210.265625 209.933594 209.855469 209.871094 209.441406 209.804688 C 209.136719 209.761719 208.832031 209.703125 208.527344 209.671875 C 208.21875 209.636719 207.910156 209.601562 207.601562 209.566406 C 206.363281 209.429688 205.117188 209.289062 203.859375 209.148438 C 203.226562 209.085938 202.597656 208.996094 201.957031 208.953125 C 201.320312 208.910156 200.679688 208.863281 200.039062 208.820312 C 198.75 208.734375 197.453125 208.648438 196.148438 208.5625 C 194.839844 208.5 193.519531 208.488281 192.195312 208.453125 C 191.53125 208.4375 190.863281 208.421875 190.195312 208.40625 C 189.863281 208.402344 189.527344 208.394531 189.191406 208.386719 C 188.859375 208.394531 188.523438 208.402344 188.1875 208.40625 C 177.429688 208.484375 167.207031 209.734375 158.117188 211.703125 C 153.304688 212.738281 148.816406 213.96875 144.695312 215.296875 C 141.617188 216.125 138.640625 217.019531 135.78125 217.976562 C 126.757812 220.980469 118.890625 224.484375 112.480469 227.835938 C 110.890625 228.703125 109.378906 229.53125 107.945312 230.3125 C 106.535156 231.132812 105.226562 231.945312 103.984375 232.683594 C 103.371094 233.0625 102.761719 233.402344 102.203125 233.773438 C 101.644531 234.144531 101.105469 234.5 100.589844 234.84375 C 99.558594 235.527344 98.613281 236.152344 97.761719 236.714844 C 94.453125 239.105469 92.621094 240.429688 92.621094 240.429688 " fill-opacity="1" fill-rule="nonzero"/></g><path fill="#6a9900" d="M 144.695312 215.296875 C 148.816406 213.96875 153.304688 212.738281 158.117188 211.703125 C 167.207031 209.734375 177.429688 208.484375 188.1875 208.40625 C 188.523438 208.402344 188.859375 208.394531 189.191406 208.386719 C 189.527344 208.394531 189.863281 208.402344 190.195312 208.40625 C 190.863281 208.421875 191.53125 208.4375 192.195312 208.453125 C 193.519531 208.488281 194.839844 208.5 196.148438 208.5625 C 197.453125 208.648438 198.75 208.734375 200.039062 208.820312 C 200.679688 208.863281 201.320312 208.910156 201.957031 208.953125 C 202.597656 208.996094 203.226562 209.085938 203.859375 209.148438 C 205.117188 209.289062 206.363281 209.429688 207.601562 209.566406 C 207.910156 209.601562 208.21875 209.636719 208.527344 209.671875 C 208.832031 209.703125 209.136719 209.761719 209.441406 209.804688 C 209.855469 209.871094 210.265625 209.933594 210.675781 209.996094 C 206.289062 209.558594 201.570312 209.246094 196.59375 209.128906 C 195.117188 209.089844 193.617188 209.070312 192.097656 209.070312 C 183.835938 209.070312 174.957031 209.660156 165.8125 210.980469 C 158.417969 212.046875 151.324219 213.511719 144.695312 215.296875 " fill-opacity="1" fill-rule="nonzero"/><path fill="#dd1500" d="M 239.554688 214.683594 C 239.09375 214.546875 238.628906 214.421875 238.167969 214.289062 C 237.078125 213.980469 235.980469 213.667969 234.867188 213.351562 C 233.761719 213.015625 232.621094 212.757812 231.480469 212.472656 C 230.335938 212.191406 229.179688 211.90625 228.015625 211.617188 C 226.847656 211.347656 225.65625 211.121094 224.464844 210.863281 C 223.867188 210.738281 223.269531 210.609375 222.667969 210.484375 C 222.066406 210.359375 221.464844 210.222656 220.851562 210.125 C 219.632812 209.914062 218.402344 209.699219 217.167969 209.484375 C 216.550781 209.378906 215.929688 209.265625 215.308594 209.15625 C 214.679688 209.070312 214.054688 208.984375 213.425781 208.894531 C 203.640625 207.46875 194.207031 206.859375 185.578125 206.859375 C 185.335938 206.859375 185.09375 206.859375 184.851562 206.863281 C 176.027344 206.882812 168.070312 207.511719 161.40625 208.328125 C 159.742188 208.558594 158.164062 208.804688 156.664062 209.019531 C 155.914062 209.128906 155.183594 209.234375 154.476562 209.335938 C 153.773438 209.464844 153.09375 209.59375 152.4375 209.714844 C 151.121094 209.957031 149.894531 210.183594 148.769531 210.390625 C 147.632812 210.578125 146.617188 210.839844 145.695312 211.039062 C 144.535156 211.292969 143.535156 211.515625 142.714844 211.695312 C 149.699219 209.539062 157.269531 207.808594 165.191406 206.664062 C 172.625 205.589844 179.882812 205.113281 186.773438 205.113281 C 190.203125 205.113281 193.539062 205.230469 196.757812 205.453125 C 206.453125 206.09375 215.09375 207.601562 222.210938 209.308594 C 223.984375 209.769531 225.667969 210.210938 227.265625 210.625 C 227.464844 210.679688 227.660156 210.730469 227.859375 210.785156 C 228.050781 210.84375 228.246094 210.902344 228.4375 210.960938 C 228.820312 211.078125 229.195312 211.195312 229.566406 211.308594 C 230.308594 211.535156 231.027344 211.757812 231.722656 211.972656 C 232.414062 212.1875 233.082031 212.394531 233.726562 212.59375 C 234.367188 212.8125 234.976562 213.039062 235.5625 213.246094 C 236.730469 213.664062 237.800781 214.046875 238.761719 214.394531 C 239.035156 214.488281 239.300781 214.585938 239.554688 214.683594 " fill-opacity="1" fill-rule="nonzero"/><path fill="#009bdb" d="M 193.179688 90.414062 C 192.199219 89.402344 190.269531 92.324219 189.964844 92.007812 C 189.292969 91.308594 192.546875 86.703125 191.234375 86.113281 C 189.9375 85.53125 188.847656 90.78125 188.257812 90.488281 C 187.441406 90.078125 189.183594 83.855469 188.269531 83.539062 C 186.753906 83.011719 186.449219 89.964844 185.96875 90.132812 C 184.738281 90.570312 186.007812 85.488281 184.597656 85.308594 C 183.574219 85.175781 183.964844 89.792969 183.476562 92.097656 C 183.246094 93.175781 180.933594 88.570312 180.226562 90.765625 C 179.992188 91.492188 181.53125 94.007812 181.785156 95.890625 C 181.933594 97.023438 181.984375 98.0625 181.867188 99.128906 C 181.65625 100.625 180.910156 103.945312 178.289062 107.34375 C 177.539062 108.316406 177.027344 109.230469 176.699219 110.097656 C 176.125 110.929688 175.605469 111.695312 175.113281 112.414062 L 174.128906 112.050781 C 174.128906 112.050781 171.363281 117.429688 169.988281 118.820312 C 169.675781 119.136719 169.195312 119.578125 168.636719 120.074219 C 169.339844 115.886719 169.109375 112.421875 165.632812 110.140625 C 163.953125 109.039062 161.863281 105.007812 160.589844 104.128906 C 160.179688 103.84375 159.832031 103.628906 159.515625 103.464844 C 159.683594 102.914062 159.785156 102.390625 159.804688 101.90625 C 160.085938 95.335938 152.632812 95.925781 152.632812 95.925781 C 154.875 97.042969 155.210938 98.492188 153.4375 99.21875 C 149.804688 100.707031 145.234375 102.449219 141.46875 109.355469 C 139.949219 112.140625 139.164062 115.207031 139.558594 117.453125 C 138.574219 117.179688 137.5 116.628906 137.214844 115.515625 C 137.214844 115.515625 136.0625 119.707031 141.609375 120.363281 C 141.609375 120.363281 139.433594 121.496094 141.683594 124.988281 C 141.683594 124.988281 141.824219 123.652344 142.484375 122.421875 C 143.425781 124.203125 145.367188 125.78125 147.207031 126.984375 C 150.707031 129.265625 154.394531 129.660156 154.394531 129.660156 C 155.460938 129.9375 156.550781 130.113281 157.636719 130.160156 C 157.546875 130.242188 157.464844 130.324219 157.375 130.40625 C 156.164062 131.03125 152.957031 132.984375 150.238281 137.285156 C 150.238281 137.285156 147.65625 142.773438 146.527344 146.050781 C 146.527344 146.050781 146.746094 146.296875 147.109375 146.695312 C 147.011719 146.96875 146.917969 147.230469 146.832031 147.476562 C 146.113281 148.53125 145.585938 149.921875 145.367188 151.792969 C 144.863281 156.054688 143.078125 158.949219 142.183594 160.167969 C 141.523438 161.015625 140.757812 161.722656 139.859375 162.425781 C 138.367188 163.597656 135.503906 164.320312 135.164062 165.003906 C 134.136719 167.070312 139.011719 165.390625 138.417969 166.324219 C 137.15625 168.3125 133.652344 171.34375 134.472656 171.964844 C 135.609375 172.820312 138.253906 168.296875 138.832031 169.46875 C 139.054688 169.925781 134.414062 175.109375 135.863281 175.792969 C 136.738281 176.203125 139.847656 170.535156 140.714844 170.816406 C 141.339844 171.015625 138.449219 175.53125 139.789062 176.023438 C 141.136719 176.515625 142.03125 170.949219 142.996094 170.917969 C 143.4375 170.90625 142.777344 174.339844 144.1875 174.300781 C 144.59375 174.292969 144.699219 173.25 144.929688 170.34375 C 145.136719 167.769531 146.085938 167.417969 146.429688 164.304688 C 146.457031 164.050781 146.898438 163.355469 147.484375 162.5 C 147.601562 162.355469 147.71875 162.210938 147.839844 162.058594 C 150.21875 159.074219 151.800781 156.324219 152.84375 153.976562 C 152.953125 153.828125 153.070312 153.667969 153.191406 153.492188 C 153.375 153.222656 153.554688 152.964844 153.730469 152.707031 C 154.175781 152.976562 154.589844 153.171875 154.941406 153.25 C 154.941406 153.25 157.304688 148.089844 159.570312 150.3125 C 159.90625 150.796875 160.210938 151.394531 160.558594 152.003906 C 162.203125 154.878906 162.273438 157.824219 161.890625 161.609375 C 161.550781 163 160.925781 164.734375 159.824219 166.824219 C 157.605469 171.023438 158.074219 173.601562 159.464844 176.332031 C 158.757812 180.867188 157.742188 185.96875 156.570312 187.78125 C 154.289062 191.3125 154.222656 196.03125 154.222656 196.03125 C 154.222656 196.03125 154.429688 196.214844 154.800781 196.503906 C 154.265625 198.695312 153.9375 200.984375 152.761719 203.050781 C 152.207031 204.03125 151.378906 204.90625 149.78125 206.890625 C 147.6875 209.484375 148.820312 211.304688 150.765625 211.597656 C 151.40625 211.695312 152.46875 212.121094 153.152344 212.566406 C 156.375 214.671875 161.140625 215.773438 161.714844 214.421875 C 162.445312 212.683594 159.953125 211.1875 157.886719 209.222656 C 154.90625 206.386719 158.308594 202.96875 160.5 199.246094 C 161.242188 199.375 162.003906 199.40625 162.753906 199.28125 C 164.566406 198.980469 166.753906 190.113281 166.753906 190.113281 L 166.167969 195.039062 C 166.167969 195.039062 166.664062 195.292969 167.441406 195.65625 C 167.824219 198.050781 168.578125 200.4375 168.324219 202.988281 C 168.210938 204.105469 167.8125 205.242188 167.15625 207.703125 C 166.292969 210.925781 168.066406 212.128906 169.964844 211.609375 C 170.589844 211.441406 171.726562 211.484375 172.542969 211.527344 C 176.84375 211.761719 181.144531 211.222656 181.117188 209.753906 C 181.082031 207.867188 178.199219 207.511719 175.511719 206.550781 C 172.082031 205.328125 173.035156 201.660156 173.644531 197.855469 C 174.753906 198.058594 175.699219 198.046875 176.222656 197.640625 C 176.222656 197.640625 178.109375 187.296875 179.699219 181.082031 C 180.3125 178.683594 180.730469 176.851562 180.984375 175.488281 C 182.074219 173.269531 183.121094 171.0625 183.824219 168.710938 C 186.449219 161.257812 183.527344 153.160156 179.609375 144.832031 C 178.351562 142.15625 177.78125 139.308594 177.585938 136.675781 C 177.585938 136.675781 177.492188 127.835938 181.5 122.410156 C 184.484375 118.375 184.890625 115.347656 184.890625 115.347656 L 183.753906 114.15625 C 185.15625 111.527344 186.65625 107.445312 187.234375 101.726562 C 187.253906 101.535156 187.273438 101.347656 187.289062 101.164062 C 187.46875 100.140625 187.640625 99.335938 187.796875 99.132812 C 189.726562 96.667969 189.292969 95.753906 190.945312 93.769531 C 192.8125 91.527344 193.464844 90.710938 193.179688 90.414062 " fill-opacity="1" fill-rule="nonzero"/><path fill="#df1b7d" d="M 249.035156 145.535156 C 241.511719 145.113281 243.347656 135.867188 237.855469 133.527344 C 237.785156 133.1875 237.644531 132.859375 237.429688 132.5625 C 237.109375 132.117188 236.667969 131.808594 236.183594 131.640625 C 236.140625 131.363281 236.03125 131.085938 235.855469 130.84375 C 235.464844 130.300781 234.84375 130.035156 234.222656 130.074219 C 234.164062 129.941406 234.101562 129.820312 234.03125 129.707031 C 230.265625 123.578125 223.988281 122.277344 220.3125 123.882812 C 218.703125 124.585938 217.058594 125.824219 215.453125 127.925781 C 215.382812 128.011719 215 128.617188 216.300781 130.417969 C 215.683594 131.335938 215.070312 132.175781 214.398438 132.734375 C 212.496094 134.3125 211.824219 136.371094 212.121094 138.667969 C 211.570312 138.179688 211.09375 137.734375 210.800781 137.433594 C 209.703125 136.300781 207.507812 131.945312 207.507812 131.945312 L 206.710938 132.234375 C 206.320312 131.648438 205.90625 131.027344 205.449219 130.351562 C 205.191406 129.648438 204.785156 128.90625 204.1875 128.117188 C 202.097656 125.359375 201.519531 122.675781 201.359375 121.46875 C 201.273438 120.605469 201.320312 119.769531 201.449219 118.855469 C 201.664062 117.339844 202.925781 115.320312 202.742188 114.734375 C 202.183594 112.957031 200.289062 116.65625 200.113281 115.785156 C 199.734375 113.921875 200.082031 110.199219 199.253906 110.296875 C 198.117188 110.433594 199.101562 114.542969 198.113281 114.183594 C 197.730469 114.042969 197.53125 108.433594 196.308594 108.847656 C 195.566406 109.09375 196.925781 114.128906 196.265625 114.453125 C 195.789062 114.683594 194.945312 110.441406 193.894531 110.90625 C 192.832031 111.371094 195.425781 115.109375 194.878906 115.664062 C 194.628906 115.917969 193.09375 113.550781 192.296875 114.359375 C 192.0625 114.59375 192.582031 115.257812 194.074219 117.078125 C 195.394531 118.691406 195.035156 119.425781 196.574219 121.429688 C 196.703125 121.59375 196.835938 122.242188 196.972656 123.070312 C 196.984375 123.21875 196.996094 123.367188 197.011719 123.527344 C 197.4375 128.140625 198.617188 131.445312 199.730469 133.574219 L 198.804688 134.53125 C 198.804688 134.53125 199.113281 136.972656 201.488281 140.246094 C 204.6875 144.652344 204.546875 151.78125 204.546875 151.78125 C 204.371094 153.90625 203.890625 156.199219 202.859375 158.347656 C 199.636719 165.035156 197.308594 170.84375 198.738281 174.871094 C 198.867188 176.011719 199.125 177.097656 199.460938 178.152344 C 200.054688 180.539062 201.039062 183.992188 202.503906 187.722656 C 204.382812 192.492188 205.164062 200.980469 205.164062 200.980469 C 205.570312 201.300781 206.378906 201.53125 207.378906 201.703125 C 207.832031 204.578125 208.335938 207.253906 205.726562 208.160156 C 203.550781 208.914062 201.222656 209.183594 201.183594 210.707031 C 201.148438 211.886719 204.617188 212.351562 208.085938 212.195312 C 208.746094 212.167969 209.660156 212.136719 210.164062 212.28125 C 211.691406 212.710938 213.128906 211.753906 212.457031 209.148438 C 211.945312 207.160156 211.632812 206.242188 211.546875 205.335938 C 211.449219 204.234375 211.582031 203.175781 211.773438 202.132812 C 213.640625 202.238281 215.316406 202.28125 215.914062 202.386719 C 216.566406 202.5 217.226562 202.46875 217.871094 202.34375 C 219.613281 205.375 222.355469 208.167969 219.921875 210.4375 C 218.242188 212.007812 216.222656 213.199219 216.800781 214.605469 C 217.25 215.703125 221.101562 214.84375 223.71875 213.171875 C 224.273438 212.816406 225.132812 212.480469 225.652344 212.40625 C 227.21875 212.183594 228.148438 210.722656 226.476562 208.613281 C 225.203125 207.003906 224.542969 206.292969 224.101562 205.5 C 223.144531 203.78125 222.910156 201.886719 222.472656 200.078125 C 222.652344 199.933594 222.753906 199.847656 222.753906 199.847656 C 222.753906 199.847656 222.734375 196.074219 220.933594 193.238281 C 219.136719 190.398438 219.871094 181.300781 219.871094 181.300781 C 220.113281 179.945312 219.933594 178.40625 219.042969 176.359375 C 217.035156 171.75 216.96875 168.171875 216.96875 168.078125 C 217.105469 166.730469 217.460938 165.488281 218.171875 164.269531 C 218.457031 163.777344 218.707031 163.300781 218.980469 162.910156 C 220.828125 161.132812 222.695312 165.3125 222.695312 165.3125 C 222.980469 165.25 223.3125 165.097656 223.675781 164.882812 C 223.816406 165.089844 223.957031 165.300781 224.105469 165.519531 C 224.203125 165.664062 224.292969 165.792969 224.382812 165.910156 C 225.207031 167.8125 226.460938 170.042969 228.359375 172.46875 C 228.457031 172.589844 228.550781 172.710938 228.644531 172.824219 C 229.113281 173.519531 229.460938 174.085938 229.484375 174.289062 C 229.738281 176.804688 230.5 177.09375 230.648438 179.171875 C 230.8125 181.515625 230.890625 182.359375 231.222656 182.371094 C 232.359375 182.410156 231.847656 179.632812 232.203125 179.648438 C 232.984375 179.679688 233.664062 184.175781 234.757812 183.789062 C 235.839844 183.402344 233.539062 179.738281 234.046875 179.582031 C 234.75 179.363281 237.214844 183.957031 237.921875 183.628906 C 239.097656 183.089844 235.390625 178.875 235.574219 178.507812 C 236.046875 177.566406 238.148438 181.234375 239.070312 180.550781 C 239.738281 180.058594 236.933594 177.585938 235.929688 175.972656 C 235.460938 175.21875 239.378906 176.609375 238.566406 174.933594 C 238.296875 174.378906 235.992188 173.777344 234.792969 172.820312 C 234.074219 172.246094 233.464844 171.667969 232.9375 170.980469 C 232.222656 169.996094 230.804688 167.644531 230.429688 164.203125 C 230.265625 162.691406 229.851562 161.570312 229.277344 160.714844 C 229.210938 160.511719 229.136719 160.300781 229.058594 160.078125 C 229.355469 159.761719 229.53125 159.5625 229.53125 159.5625 C 228.644531 156.914062 226.601562 152.46875 226.601562 152.46875 C 224.441406 148.980469 221.863281 147.382812 220.890625 146.871094 C 220.507812 146.5 220.117188 146.128906 219.710938 145.757812 C 220.875 145.910156 222.035156 145.902344 223.164062 145.746094 C 224.523438 146.734375 225.683594 147.011719 225.683594 147.011719 C 226.09375 145.097656 228.484375 144.09375 229.214844 143.617188 C 231.65625 142.039062 233.082031 140.035156 234.042969 137.773438 C 234.144531 137.539062 234.234375 137.277344 234.316406 137 C 234.746094 137.53125 235.519531 137.640625 236.082031 137.234375 C 236.40625 137 236.59375 136.644531 236.621094 136.273438 C 236.699219 136.226562 236.777344 136.179688 236.851562 136.125 C 236.964844 136.042969 237.066406 135.953125 237.160156 135.855469 C 240.800781 139.347656 239.285156 147.699219 245.628906 148.636719 C 241.566406 145.78125 242.152344 142.078125 242.152344 142.078125 C 245.613281 147.488281 249.035156 145.535156 249.035156 145.535156 " fill-opacity="1" fill-rule="nonzero"/><path fill="#008c96" d="M 251.007812 118.46875 L 249.644531 118.269531 L 249.035156 117.03125 L 248.421875 118.269531 L 247.058594 118.46875 L 248.046875 119.429688 L 247.8125 120.789062 L 249.035156 120.148438 L 250.253906 120.789062 L 250.023438 119.429688 L 251.007812 118.46875 " fill-opacity="1" fill-rule="nonzero"/><path fill="#bd2675" d="M 192.851562 155.042969 L 192.242188 153.804688 L 191.632812 155.042969 L 190.265625 155.238281 L 191.253906 156.203125 L 191.023438 157.5625 L 192.242188 156.917969 L 193.464844 157.5625 L 193.230469 156.203125 L 194.21875 155.238281 L 192.851562 155.042969 " fill-opacity="1" fill-rule="nonzero"/><path fill="#bd2675" d="M 210.035156 97.660156 L 211.125 97.085938 L 212.21875 97.660156 L 212.007812 96.445312 L 212.890625 95.585938 L 211.671875 95.40625 L 211.125 94.304688 L 210.582031 95.40625 L 209.363281 95.585938 L 210.242188 96.445312 L 210.035156 97.660156 " fill-opacity="1" fill-rule="nonzero"/><path fill="#008c96" d="M 224.324219 108.910156 L 223.582031 107.410156 L 222.84375 108.910156 L 221.191406 109.148438 L 222.386719 110.316406 L 222.105469 111.960938 L 223.582031 111.183594 L 225.0625 111.960938 L 224.78125 110.316406 L 225.976562 109.148438 L 224.324219 108.910156 " fill-opacity="1" fill-rule="nonzero"/><path fill="#799e3a" d="M 190.40625 128.953125 L 189.183594 131.433594 L 186.445312 131.828125 L 188.425781 133.757812 L 187.960938 136.484375 L 190.40625 135.195312 L 192.855469 136.484375 L 192.386719 133.757812 L 194.367188 131.828125 L 191.628906 131.433594 L 190.40625 128.953125 " fill-opacity="1" fill-rule="nonzero"/><path fill="#5f2777" d="M 247.441406 173.980469 L 246.21875 171.503906 L 244.996094 173.980469 L 242.257812 174.378906 L 244.238281 176.308594 L 243.773438 179.03125 L 246.21875 177.746094 L 248.667969 179.03125 L 248.199219 176.308594 L 250.179688 174.378906 L 247.441406 173.980469 " fill-opacity="1" fill-rule="nonzero"/><path fill="#fdc800" d="M 203.78125 84.785156 L 200.128906 82.867188 L 196.476562 84.785156 L 197.171875 80.722656 L 194.21875 77.84375 L 198.300781 77.25 L 200.128906 73.550781 L 201.953125 77.25 L 206.039062 77.84375 L 203.082031 80.722656 L 203.78125 84.785156 " fill-opacity="1" fill-rule="nonzero"/><g clip-path="url(#0008129518)"><path fill="#799e3a" d="M 221.300781 71.964844 L 223.585938 69.738281 L 220.429688 69.28125 L 219.019531 66.425781 L 217.609375 69.28125 L 214.453125 69.738281 L 216.738281 71.964844 L 216.199219 75.101562 L 219.019531 73.621094 L 221.839844 75.101562 L 221.300781 71.964844 " fill-opacity="1" fill-rule="nonzero"/></g><path fill="#ae3a91" d="M 161.304688 91.382812 L 160.191406 89.128906 L 159.078125 91.382812 L 156.585938 91.746094 L 158.390625 93.5 L 157.964844 95.980469 L 160.191406 94.808594 L 162.421875 95.980469 L 161.996094 93.5 L 163.796875 91.746094 L 161.304688 91.382812 " fill-opacity="1" fill-rule="nonzero"/><g fill="#df1c7d" fill-opacity="1"><g transform="translate(86.487605, 269.634332)"><g><path d="M 11.53125 0.390625 C 6.28125 0.390625 3.160156 -1.390625 2.171875 -4.953125 C 1.878906 -6.035156 2.039062 -6.878906 2.65625 -7.484375 C 3.269531 -8.085938 4.078125 -8.390625 5.078125 -8.390625 L 5.4375 -8.390625 C 6.0625 -8.390625 6.550781 -8.269531 6.90625 -8.03125 C 7.257812 -7.789062 7.585938 -7.476562 7.890625 -7.09375 C 8.191406 -6.71875 8.566406 -6.28125 9.015625 -5.78125 C 9.566406 -5.257812 10.484375 -5 11.765625 -5 C 13.835938 -5 14.875 -5.800781 14.875 -7.40625 C 14.875 -8.320312 14.570312 -9.035156 13.96875 -9.546875 C 13.363281 -10.054688 12.582031 -10.476562 11.625 -10.8125 C 10.664062 -11.15625 9.65625 -11.503906 8.59375 -11.859375 C 7.53125 -12.210938 6.519531 -12.671875 5.5625 -13.234375 C 4.601562 -13.804688 3.820312 -14.582031 3.21875 -15.5625 C 2.625 -16.550781 2.328125 -17.84375 2.328125 -19.4375 C 2.328125 -22.40625 3.191406 -24.519531 4.921875 -25.78125 C 6.648438 -27.039062 9.101562 -27.671875 12.28125 -27.671875 C 15.351562 -27.671875 17.664062 -27.046875 19.21875 -25.796875 C 20.78125 -24.554688 21.65625 -22.765625 21.84375 -20.421875 C 21.925781 -19.347656 21.65625 -18.535156 21.03125 -17.984375 C 20.414062 -17.429688 19.609375 -17.15625 18.609375 -17.15625 C 17.617188 -17.15625 16.910156 -17.441406 16.484375 -18.015625 C 16.066406 -18.597656 15.738281 -19.441406 15.5 -20.546875 C 15.320312 -21.390625 14.957031 -21.96875 14.40625 -22.28125 C 13.851562 -22.59375 13.101562 -22.75 12.15625 -22.75 C 11.03125 -22.75 10.242188 -22.457031 9.796875 -21.875 C 9.347656 -21.300781 9.125 -20.539062 9.125 -19.59375 C 9.125 -18.675781 9.359375 -17.945312 9.828125 -17.40625 C 10.304688 -16.875 10.9375 -16.453125 11.71875 -16.140625 C 12.507812 -15.828125 13.367188 -15.546875 14.296875 -15.296875 C 15.234375 -15.046875 16.164062 -14.757812 17.09375 -14.4375 C 18.03125 -14.125 18.890625 -13.710938 19.671875 -13.203125 C 20.460938 -12.691406 21.09375 -12.007812 21.5625 -11.15625 C 22.039062 -10.300781 22.28125 -9.207031 22.28125 -7.875 C 22.28125 -5.164062 21.375 -3.109375 19.5625 -1.703125 C 17.75 -0.304688 15.070312 0.390625 11.53125 0.390625 Z M 11.53125 0.390625 "/></g></g></g><g fill="#df1c7d" fill-opacity="1"><g transform="translate(110.293887, 269.634332)"><g><path d="M 34.203125 -3.390625 C 34.203125 -1.128906 33.085938 0 30.859375 0 L 30.734375 0 C 28.503906 0 27.390625 -1.128906 27.390625 -3.390625 C 27.421875 -5.191406 27.441406 -6.910156 27.453125 -8.546875 C 27.460938 -10.191406 27.46875 -11.695312 27.46875 -13.0625 C 27.46875 -14.351562 27.242188 -15.242188 26.796875 -15.734375 C 26.359375 -16.234375 25.691406 -16.472656 24.796875 -16.453125 C 23.378906 -16.421875 22.328125 -15.75 21.640625 -14.4375 L 21.640625 -12.984375 C 21.617188 -11.617188 21.613281 -10.125 21.625 -8.5 C 21.632812 -6.875 21.65625 -5.171875 21.6875 -3.390625 C 21.6875 -1.128906 20.570312 0 18.34375 0 L 18.21875 0 C 15.988281 0 14.875 -1.128906 14.875 -3.390625 C 14.90625 -5.191406 14.925781 -6.910156 14.9375 -8.546875 C 14.945312 -10.191406 14.953125 -11.695312 14.953125 -13.0625 C 14.953125 -14.351562 14.726562 -15.242188 14.28125 -15.734375 C 13.84375 -16.234375 13.175781 -16.472656 12.28125 -16.453125 C 10.78125 -16.398438 9.675781 -15.640625 8.96875 -14.171875 L 8.96875 -10.90625 C 8.945312 -9.613281 8.941406 -8.34375 8.953125 -7.09375 C 8.960938 -5.851562 8.96875 -4.601562 8.96875 -3.34375 C 9 -2.269531 8.722656 -1.441406 8.140625 -0.859375 C 7.566406 -0.285156 6.742188 0 5.671875 0 L 5.390625 0 C 4.316406 0 3.488281 -0.285156 2.90625 -0.859375 C 2.332031 -1.441406 2.0625 -2.269531 2.09375 -3.34375 C 2.113281 -4.601562 2.128906 -5.851562 2.140625 -7.09375 C 2.160156 -8.34375 2.171875 -9.613281 2.171875 -10.90625 C 2.171875 -12.21875 2.160156 -13.488281 2.140625 -14.71875 C 2.128906 -15.945312 2.113281 -17.191406 2.09375 -18.453125 C 2.0625 -19.535156 2.332031 -20.363281 2.90625 -20.9375 C 3.488281 -21.519531 4.316406 -21.8125 5.390625 -21.8125 C 6.460938 -21.8125 7.296875 -21.648438 7.890625 -21.328125 C 8.484375 -21.015625 8.78125 -20.554688 8.78125 -19.953125 C 8.75 -19.691406 8.734375 -19.398438 8.734375 -19.078125 C 8.734375 -18.765625 8.722656 -18.425781 8.703125 -18.0625 L 8.734375 -18.0625 C 9.492188 -19.457031 10.441406 -20.484375 11.578125 -21.140625 C 12.722656 -21.796875 14.0625 -22.125 15.59375 -22.125 C 17.007812 -22.125 18.179688 -21.800781 19.109375 -21.15625 C 20.035156 -20.507812 20.710938 -19.476562 21.140625 -18.0625 L 21.25 -18.0625 C 22.007812 -19.457031 22.957031 -20.484375 24.09375 -21.140625 C 25.238281 -21.796875 26.578125 -22.125 28.109375 -22.125 C 30.179688 -22.125 31.726562 -21.414062 32.75 -20 C 33.769531 -18.582031 34.238281 -16.242188 34.15625 -12.984375 C 34.132812 -11.617188 34.128906 -10.125 34.140625 -8.5 C 34.148438 -6.875 34.171875 -5.171875 34.203125 -3.390625 Z M 34.203125 -3.390625 "/></g></g></g><g fill="#df1c7d" fill-opacity="1"><g transform="translate(146.770635, 269.634332)"><g><path d="M 8.21875 0.390625 C 6.9375 0.390625 5.765625 0.179688 4.703125 -0.234375 C 3.640625 -0.648438 2.789062 -1.296875 2.15625 -2.171875 C 1.53125 -3.054688 1.21875 -4.179688 1.21875 -5.546875 C 1.21875 -8.015625 2.257812 -9.867188 4.34375 -11.109375 C 6.4375 -12.359375 9.695312 -12.921875 14.125 -12.796875 L 14.125 -14.125 C 14.125 -15.570312 13.921875 -16.554688 13.515625 -17.078125 C 13.109375 -17.609375 12.472656 -17.875 11.609375 -17.875 C 11.109375 -17.875 10.648438 -17.800781 10.234375 -17.65625 C 9.816406 -17.507812 9.488281 -17.253906 9.25 -16.890625 C 8.882812 -16.304688 8.578125 -15.804688 8.328125 -15.390625 C 8.078125 -14.972656 7.789062 -14.648438 7.46875 -14.421875 C 7.15625 -14.203125 6.671875 -14.09375 6.015625 -14.09375 L 5.625 -14.09375 C 4.519531 -14.09375 3.632812 -14.394531 2.96875 -15 C 2.300781 -15.601562 2.125 -16.441406 2.4375 -17.515625 C 2.882812 -19.066406 3.894531 -20.222656 5.46875 -20.984375 C 7.039062 -21.742188 9.257812 -22.125 12.125 -22.125 C 17.976562 -22.125 20.90625 -19.5 20.90625 -14.25 C 20.90625 -11.882812 20.910156 -9.820312 20.921875 -8.0625 C 20.929688 -6.3125 20.960938 -4.765625 21.015625 -3.421875 C 21.066406 -2.316406 20.828125 -1.46875 20.296875 -0.875 C 19.773438 -0.289062 18.976562 0 17.90625 0 L 17.546875 0 C 15.554688 0 14.484375 -0.3125 14.328125 -0.9375 C 14.273438 -1.101562 14.234375 -1.265625 14.203125 -1.421875 C 14.179688 -1.578125 14.15625 -1.734375 14.125 -1.890625 C 13.34375 -1.128906 12.4375 -0.554688 11.40625 -0.171875 C 10.382812 0.203125 9.320312 0.390625 8.21875 0.390625 Z M 10.3125 -4.046875 C 11.207031 -4.046875 11.96875 -4.222656 12.59375 -4.578125 C 13.226562 -4.929688 13.765625 -5.4375 14.203125 -6.09375 L 14.203125 -9.640625 C 13.023438 -9.617188 11.925781 -9.523438 10.90625 -9.359375 C 9.882812 -9.203125 9.054688 -8.914062 8.421875 -8.5 C 7.796875 -8.082031 7.484375 -7.453125 7.484375 -6.609375 C 7.484375 -5.878906 7.722656 -5.269531 8.203125 -4.78125 C 8.691406 -4.289062 9.394531 -4.046875 10.3125 -4.046875 Z M 10.3125 -4.046875 "/></g></g></g><g fill="#df1c7d" fill-opacity="1"><g transform="translate(169.671891, 269.634332)"><g><path d="M 14.796875 -22.078125 C 15.160156 -22.003906 15.539062 -21.804688 15.9375 -21.484375 C 16.332031 -21.171875 16.660156 -20.632812 16.921875 -19.875 C 17.054688 -19.425781 17.125 -18.96875 17.125 -18.5 C 17.125 -18.03125 17.054688 -17.570312 16.921875 -17.125 C 16.660156 -16.101562 16.265625 -15.425781 15.734375 -15.09375 C 15.210938 -14.769531 14.703125 -14.695312 14.203125 -14.875 C 13.703125 -15.03125 13.179688 -15.109375 12.640625 -15.109375 C 10.929688 -15.109375 9.707031 -14.019531 8.96875 -11.84375 L 8.96875 -10.90625 C 8.96875 -10.476562 8.960938 -10.039062 8.953125 -9.59375 C 8.941406 -9.15625 8.9375 -8.726562 8.9375 -8.3125 C 8.9375 -7.488281 8.941406 -6.675781 8.953125 -5.875 C 8.960938 -5.082031 8.984375 -4.265625 9.015625 -3.421875 C 9.085938 -1.140625 8 0 5.75 0 L 5.625 0 C 3.394531 0 2.28125 -1.113281 2.28125 -3.34375 C 2.3125 -4.601562 2.332031 -5.851562 2.34375 -7.09375 C 2.351562 -8.34375 2.359375 -9.613281 2.359375 -10.90625 C 2.359375 -12.21875 2.351562 -13.488281 2.34375 -14.71875 C 2.332031 -15.945312 2.3125 -17.191406 2.28125 -18.453125 C 2.28125 -20.691406 3.34375 -21.8125 5.46875 -21.8125 C 7.59375 -21.8125 8.65625 -20.96875 8.65625 -19.28125 L 8.65625 -16.734375 L 8.78125 -16.65625 C 9.09375 -18.28125 9.6875 -19.601562 10.5625 -20.625 C 11.445312 -21.644531 12.53125 -22.15625 13.8125 -22.15625 C 14.019531 -22.15625 14.207031 -22.148438 14.375 -22.140625 C 14.550781 -22.128906 14.691406 -22.109375 14.796875 -22.078125 Z M 14.796875 -22.078125 "/></g></g></g><g fill="#df1c7d" fill-opacity="1"><g transform="translate(186.82816, 269.634332)"><g><path d="M 12.484375 -4.765625 C 13.628906 -4.816406 14.515625 -4.753906 15.140625 -4.578125 C 15.773438 -4.410156 16.132812 -3.921875 16.21875 -3.109375 C 16.289062 -2.265625 16.148438 -1.539062 15.796875 -0.9375 C 15.441406 -0.34375 14.832031 0.046875 13.96875 0.234375 C 13.1875 0.390625 12.320312 0.46875 11.375 0.46875 C 9.75 0.46875 8.335938 0.222656 7.140625 -0.265625 C 5.953125 -0.765625 5.035156 -1.578125 4.390625 -2.703125 C 3.742188 -3.835938 3.4375 -5.363281 3.46875 -7.28125 C 3.488281 -8.4375 3.5 -9.644531 3.5 -10.90625 C 3.5 -12.164062 3.5 -13.425781 3.5 -14.6875 L 3.5 -16.734375 L 3.46875 -16.734375 C 1.238281 -16.734375 0.125 -17.570312 0.125 -19.25 C 0.125 -20.925781 0.6875 -21.765625 1.8125 -21.765625 L 3.46875 -21.765625 C 3.46875 -22.109375 3.457031 -22.4375 3.4375 -22.75 C 3.425781 -23.0625 3.421875 -23.390625 3.421875 -23.734375 C 3.421875 -25.671875 4.335938 -26.929688 6.171875 -27.515625 C 7.273438 -27.878906 8.160156 -27.847656 8.828125 -27.421875 C 9.503906 -27.003906 9.84375 -26.273438 9.84375 -25.234375 L 9.84375 -21.765625 L 12.59375 -21.765625 C 14.820312 -21.765625 15.9375 -20.9375 15.9375 -19.28125 C 15.9375 -17.632812 14.925781 -16.8125 12.90625 -16.8125 L 9.84375 -16.765625 C 9.84375 -16.421875 9.832031 -16.078125 9.8125 -15.734375 C 9.800781 -15.398438 9.796875 -15.050781 9.796875 -14.6875 C 9.773438 -13.550781 9.765625 -12.421875 9.765625 -11.296875 C 9.765625 -10.171875 9.765625 -9.09375 9.765625 -8.0625 C 9.765625 -5.832031 10.671875 -4.734375 12.484375 -4.765625 Z M 12.484375 -4.765625 "/></g></g></g><g fill="#009cda" fill-opacity="1"><g transform="translate(208.212588, 269.634332)"><g><path d="M 6.296875 0 C 5.222656 0 4.394531 -0.285156 3.8125 -0.859375 C 3.238281 -1.441406 2.960938 -2.269531 2.984375 -3.34375 C 2.984375 -5.070312 2.988281 -6.796875 3 -8.515625 C 3.019531 -10.234375 3.03125 -11.945312 3.03125 -13.65625 C 3.03125 -15.363281 3.019531 -17.078125 3 -18.796875 C 2.988281 -20.515625 2.984375 -22.226562 2.984375 -23.9375 C 2.960938 -25.007812 3.238281 -25.832031 3.8125 -26.40625 C 4.394531 -26.988281 5.222656 -27.28125 6.296875 -27.28125 L 7 -27.28125 C 8.082031 -27.28125 8.910156 -26.988281 9.484375 -26.40625 C 10.054688 -25.832031 10.332031 -25.007812 10.3125 -23.9375 C 10.3125 -22.570312 10.3125 -21.207031 10.3125 -19.84375 C 10.3125 -18.476562 10.3125 -17.097656 10.3125 -15.703125 L 11.25 -16.328125 C 12.300781 -17.015625 13.191406 -18.078125 13.921875 -19.515625 C 14.660156 -20.960938 15.242188 -22.523438 15.671875 -24.203125 C 15.898438 -25.222656 16.296875 -25.988281 16.859375 -26.5 C 17.429688 -27.019531 18.226562 -27.28125 19.25 -27.28125 L 20 -27.28125 C 21.207031 -27.28125 22.078125 -26.929688 22.609375 -26.234375 C 23.148438 -25.535156 23.207031 -24.609375 22.78125 -23.453125 C 22.050781 -21.429688 21.210938 -19.632812 20.265625 -18.0625 C 19.328125 -16.488281 18.316406 -15.398438 17.234375 -14.796875 L 17.234375 -14.609375 C 18.390625 -14.421875 19.332031 -14.003906 20.0625 -13.359375 C 20.800781 -12.710938 21.472656 -11.59375 22.078125 -10 C 22.285156 -9.414062 22.507812 -8.691406 22.75 -7.828125 C 22.988281 -6.960938 23.316406 -5.664062 23.734375 -3.9375 C 24.023438 -2.707031 23.910156 -1.742188 23.390625 -1.046875 C 22.878906 -0.347656 22.035156 0 20.859375 0 L 19.84375 0 C 17.820312 0 16.613281 -1.085938 16.21875 -3.265625 C 15.820312 -5.367188 15.429688 -6.984375 15.046875 -8.109375 C 14.671875 -9.234375 14.242188 -10.019531 13.765625 -10.46875 C 13.296875 -10.914062 12.734375 -11.140625 12.078125 -11.140625 C 11.742188 -11.140625 11.457031 -11.128906 11.21875 -11.109375 C 10.976562 -11.097656 10.675781 -11.039062 10.3125 -10.9375 C 10.3125 -9.675781 10.3125 -8.414062 10.3125 -7.15625 C 10.3125 -5.90625 10.3125 -4.632812 10.3125 -3.34375 C 10.332031 -2.269531 10.054688 -1.441406 9.484375 -0.859375 C 8.910156 -0.285156 8.082031 0 7 0 Z M 6.296875 0 "/></g></g></g><g fill="#009cda" fill-opacity="1"><g transform="translate(234.301128, 269.634332)"><g><path d="M 5.59375 -24.515625 C 4.144531 -24.515625 3.097656 -24.773438 2.453125 -25.296875 C 1.816406 -25.828125 1.5 -26.679688 1.5 -27.859375 C 1.5 -29.046875 1.816406 -29.898438 2.453125 -30.421875 C 3.097656 -30.953125 4.144531 -31.21875 5.59375 -31.21875 C 7.0625 -31.21875 8.109375 -30.953125 8.734375 -30.421875 C 9.367188 -29.898438 9.6875 -29.046875 9.6875 -27.859375 C 9.6875 -26.679688 9.367188 -25.828125 8.734375 -25.296875 C 8.109375 -24.773438 7.0625 -24.515625 5.59375 -24.515625 Z M 5.703125 0 C 3.472656 0 2.359375 -1.113281 2.359375 -3.34375 L 2.359375 -6.6875 C 2.335938 -9.601562 2.328125 -11.984375 2.328125 -13.828125 C 2.328125 -15.679688 2.3125 -17.222656 2.28125 -18.453125 C 2.28125 -20.660156 3.394531 -21.765625 5.625 -21.765625 L 5.671875 -21.765625 C 7.898438 -21.765625 9.015625 -20.648438 9.015625 -18.421875 C 9.015625 -17.054688 9.015625 -15.625 9.015625 -14.125 C 9.015625 -12.632812 9 -11.285156 8.96875 -10.078125 C 8.945312 -8.953125 8.941406 -7.828125 8.953125 -6.703125 C 8.960938 -5.585938 8.96875 -4.46875 8.96875 -3.34375 C 9.019531 -1.113281 7.929688 0 5.703125 0 Z M 5.703125 0 "/></g></g></g><g fill="#009cda" fill-opacity="1"><g transform="translate(245.476314, 269.634332)"><g><path d="M 18.265625 -28.6875 C 20.492188 -28.6875 21.609375 -27.570312 21.609375 -25.34375 C 21.578125 -22.769531 21.546875 -20.226562 21.515625 -17.71875 C 21.492188 -15.21875 21.484375 -12.671875 21.484375 -10.078125 C 21.484375 -8.921875 21.488281 -7.789062 21.5 -6.6875 C 21.519531 -5.582031 21.539062 -4.46875 21.5625 -3.34375 C 21.613281 -1.113281 20.722656 0 18.890625 0 C 17.054688 0 16.007812 -0.378906 15.75 -1.140625 C 15.695312 -1.347656 15.640625 -1.550781 15.578125 -1.75 C 15.523438 -1.945312 15.472656 -2.140625 15.421875 -2.328125 C 14.898438 -1.617188 14.1875 -0.976562 13.28125 -0.40625 C 12.375 0.15625 11.253906 0.4375 9.921875 0.4375 C 8.347656 0.4375 6.914062 0.109375 5.625 -0.546875 C 4.34375 -1.203125 3.320312 -2.316406 2.5625 -3.890625 C 1.800781 -5.472656 1.421875 -7.640625 1.421875 -10.390625 C 1.421875 -12.984375 1.789062 -15.144531 2.53125 -16.875 C 3.28125 -18.613281 4.289062 -19.914062 5.5625 -20.78125 C 6.84375 -21.644531 8.253906 -22.078125 9.796875 -22.078125 C 10.878906 -22.078125 11.84375 -21.8125 12.6875 -21.28125 C 13.539062 -20.757812 14.234375 -20.054688 14.765625 -19.171875 C 14.734375 -20.191406 14.71875 -21.210938 14.71875 -22.234375 C 14.71875 -23.253906 14.707031 -24.289062 14.6875 -25.34375 C 14.6875 -27.570312 15.800781 -28.6875 18.03125 -28.6875 Z M 11.765625 -5.109375 C 12.453125 -5.109375 13.015625 -5.207031 13.453125 -5.40625 C 13.898438 -5.601562 14.296875 -5.898438 14.640625 -6.296875 C 14.640625 -6.921875 14.644531 -7.539062 14.65625 -8.15625 C 14.675781 -8.78125 14.695312 -9.421875 14.71875 -10.078125 C 14.75 -10.835938 14.765625 -11.597656 14.765625 -12.359375 C 14.765625 -13.117188 14.765625 -13.867188 14.765625 -14.609375 C 14.523438 -15.421875 14.113281 -15.984375 13.53125 -16.296875 C 12.957031 -16.609375 12.316406 -16.765625 11.609375 -16.765625 C 10.929688 -16.765625 10.300781 -16.597656 9.71875 -16.265625 C 9.144531 -15.941406 8.679688 -15.351562 8.328125 -14.5 C 7.972656 -13.644531 7.796875 -12.40625 7.796875 -10.78125 C 7.796875 -8.707031 8.140625 -7.242188 8.828125 -6.390625 C 9.523438 -5.535156 10.503906 -5.109375 11.765625 -5.109375 Z M 11.765625 -5.109375 "/></g></g></g><g fill="#009cda" fill-opacity="1"><g transform="translate(269.203903, 269.634332)"><g><path d="M 10.46875 0.46875 C 7.925781 0.46875 5.960938 0.113281 4.578125 -0.59375 C 3.203125 -1.300781 2.289062 -2.335938 1.84375 -3.703125 C 1.507812 -4.773438 1.628906 -5.613281 2.203125 -6.21875 C 2.773438 -6.820312 3.523438 -7.125 4.453125 -7.125 L 4.5625 -7.125 C 5.195312 -7.125 5.671875 -7.019531 5.984375 -6.8125 C 6.296875 -6.601562 6.578125 -6.304688 6.828125 -5.921875 C 7.078125 -5.546875 7.382812 -5.109375 7.75 -4.609375 C 8.125 -4.128906 8.9375 -3.890625 10.1875 -3.890625 C 11.425781 -3.890625 12.296875 -4.085938 12.796875 -4.484375 C 13.296875 -4.878906 13.546875 -5.363281 13.546875 -5.9375 C 13.546875 -6.675781 13.328125 -7.226562 12.890625 -7.59375 C 12.453125 -7.957031 11.882812 -8.234375 11.1875 -8.421875 C 10.5 -8.609375 9.734375 -8.765625 8.890625 -8.890625 C 8.054688 -9.023438 7.210938 -9.195312 6.359375 -9.40625 C 5.503906 -9.613281 4.726562 -9.929688 4.03125 -10.359375 C 3.332031 -10.796875 2.765625 -11.421875 2.328125 -12.234375 C 1.898438 -13.046875 1.6875 -14.109375 1.6875 -15.421875 C 1.6875 -19.890625 4.769531 -22.125 10.9375 -22.125 C 15.632812 -22.125 18.414062 -20.742188 19.28125 -17.984375 C 19.601562 -16.929688 19.472656 -16.109375 18.890625 -15.515625 C 18.316406 -14.929688 17.570312 -14.640625 16.65625 -14.640625 L 16.484375 -14.640625 C 15.890625 -14.640625 15.425781 -14.738281 15.09375 -14.9375 C 14.769531 -15.132812 14.484375 -15.410156 14.234375 -15.765625 C 13.984375 -16.117188 13.660156 -16.519531 13.265625 -16.96875 C 12.847656 -17.382812 12.070312 -17.59375 10.9375 -17.59375 C 9.894531 -17.59375 9.175781 -17.421875 8.78125 -17.078125 C 8.382812 -16.734375 8.1875 -16.265625 8.1875 -15.671875 C 8.1875 -14.878906 8.472656 -14.296875 9.046875 -13.921875 C 9.628906 -13.554688 10.363281 -13.300781 11.25 -13.15625 C 12.144531 -13.019531 13.101562 -12.875 14.125 -12.71875 C 15.15625 -12.5625 16.113281 -12.296875 17 -11.921875 C 17.894531 -11.554688 18.628906 -10.972656 19.203125 -10.171875 C 19.785156 -9.367188 20.078125 -8.25 20.078125 -6.8125 C 20.078125 -4.394531 19.257812 -2.578125 17.625 -1.359375 C 16 -0.140625 13.613281 0.46875 10.46875 0.46875 Z M 10.46875 0.46875 "/></g></g></g><g clip-path="url(#4c87c9ae56)"><path fill="#ffffff" d="M 233.859375 233.703125 L 246.664062 233.703125 L 246.664062 247.257812 L 233.859375 247.257812 Z M 233.859375 233.703125 " fill-opacity="1" fill-rule="nonzero"/></g><g clip-path="url(#e6e1fe3350)"><path fill="#fdc800" d="M 240.257812 238.128906 L 241.652344 241.261719 L 245.0625 241.621094 L 242.515625 243.914062 L 243.226562 247.269531 L 240.257812 245.554688 L 237.289062 247.269531 L 238 243.914062 L 235.453125 241.621094 L 238.863281 241.261719 L 240.257812 238.128906 " fill-opacity="1" fill-rule="nonzero"/></g><g fill="#804098" fill-opacity="1"><g transform="translate(82.795524, 294.367245)"><g><path d="M 7.109375 0 L 1.421875 0 C 1.222656 0 1.125 -0.0976562 1.125 -0.296875 L 1.125 -11.046875 C 1.125 -11.253906 1.222656 -11.359375 1.421875 -11.359375 L 3.40625 -11.359375 C 3.601562 -11.359375 3.703125 -11.253906 3.703125 -11.046875 L 3.703125 -2.234375 L 7.109375 -2.234375 C 7.316406 -2.234375 7.421875 -2.128906 7.421875 -1.921875 L 7.421875 -0.296875 C 7.421875 -0.0976562 7.316406 0 7.109375 0 Z M 7.109375 0 "/></g></g></g><g fill="#804098" fill-opacity="1"><g transform="translate(91.763592, 294.367245)"><g><path d="M 2.203125 -8.8125 C 1.941406 -8.8125 1.707031 -8.867188 1.5 -8.984375 C 1.300781 -9.097656 1.140625 -9.253906 1.015625 -9.453125 C 0.898438 -9.660156 0.84375 -9.894531 0.84375 -10.15625 C 0.84375 -10.40625 0.898438 -10.632812 1.015625 -10.84375 C 1.140625 -11.050781 1.300781 -11.210938 1.5 -11.328125 C 1.707031 -11.453125 1.941406 -11.515625 2.203125 -11.515625 C 2.453125 -11.515625 2.675781 -11.453125 2.875 -11.328125 C 3.082031 -11.210938 3.242188 -11.050781 3.359375 -10.84375 C 3.484375 -10.632812 3.546875 -10.40625 3.546875 -10.15625 C 3.546875 -9.894531 3.484375 -9.660156 3.359375 -9.453125 C 3.242188 -9.253906 3.082031 -9.097656 2.875 -8.984375 C 2.675781 -8.867188 2.453125 -8.8125 2.203125 -8.8125 Z M 3.09375 0 L 1.328125 0 C 1.128906 0 1.03125 -0.0976562 1.03125 -0.296875 L 1.03125 -7.90625 C 1.03125 -8.101562 1.128906 -8.203125 1.328125 -8.203125 L 3.09375 -8.203125 C 3.289062 -8.203125 3.390625 -8.101562 3.390625 -7.90625 L 3.390625 -0.296875 C 3.390625 -0.0976562 3.289062 0 3.09375 0 Z M 3.09375 0 "/></g></g></g><g fill="#804098" fill-opacity="1"><g transform="translate(97.471399, 294.367245)"><g><path d="M 4.3125 0.171875 C 3.757812 0.171875 3.269531 0.078125 2.84375 -0.109375 C 2.414062 -0.296875 2.082031 -0.578125 1.84375 -0.953125 C 1.613281 -1.328125 1.5 -1.785156 1.5 -2.328125 L 1.5 -6.34375 L 0.828125 -6.34375 C 0.628906 -6.34375 0.53125 -6.445312 0.53125 -6.65625 L 0.53125 -7.90625 C 0.53125 -8.101562 0.628906 -8.203125 0.828125 -8.203125 L 1.5 -8.203125 L 1.5 -10.640625 C 1.5 -10.847656 1.597656 -10.953125 1.796875 -10.953125 L 3.5625 -10.953125 C 3.757812 -10.953125 3.859375 -10.847656 3.859375 -10.640625 L 3.859375 -8.203125 L 5.265625 -8.203125 C 5.472656 -8.203125 5.578125 -8.101562 5.578125 -7.90625 L 5.578125 -6.65625 C 5.578125 -6.445312 5.472656 -6.34375 5.265625 -6.34375 L 3.859375 -6.34375 L 3.859375 -2.5 C 3.859375 -2.226562 3.925781 -2.035156 4.0625 -1.921875 C 4.207031 -1.804688 4.394531 -1.75 4.625 -1.75 C 4.695312 -1.75 4.773438 -1.753906 4.859375 -1.765625 C 4.941406 -1.773438 5.03125 -1.789062 5.125 -1.8125 C 5.332031 -1.863281 5.460938 -1.796875 5.515625 -1.609375 L 5.828125 -0.375 C 5.859375 -0.28125 5.859375 -0.195312 5.828125 -0.125 C 5.796875 -0.0507812 5.726562 -0.00390625 5.625 0.015625 C 5.394531 0.078125 5.171875 0.117188 4.953125 0.140625 C 4.734375 0.160156 4.519531 0.171875 4.3125 0.171875 Z M 4.3125 0.171875 "/></g></g></g><g fill="#804098" fill-opacity="1"><g transform="translate(105.153106, 294.367245)"><g><path d="M 4.3125 0.171875 C 3.757812 0.171875 3.269531 0.078125 2.84375 -0.109375 C 2.414062 -0.296875 2.082031 -0.578125 1.84375 -0.953125 C 1.613281 -1.328125 1.5 -1.785156 1.5 -2.328125 L 1.5 -6.34375 L 0.828125 -6.34375 C 0.628906 -6.34375 0.53125 -6.445312 0.53125 -6.65625 L 0.53125 -7.90625 C 0.53125 -8.101562 0.628906 -8.203125 0.828125 -8.203125 L 1.5 -8.203125 L 1.5 -10.640625 C 1.5 -10.847656 1.597656 -10.953125 1.796875 -10.953125 L 3.5625 -10.953125 C 3.757812 -10.953125 3.859375 -10.847656 3.859375 -10.640625 L 3.859375 -8.203125 L 5.265625 -8.203125 C 5.472656 -8.203125 5.578125 -8.101562 5.578125 -7.90625 L 5.578125 -6.65625 C 5.578125 -6.445312 5.472656 -6.34375 5.265625 -6.34375 L 3.859375 -6.34375 L 3.859375 -2.5 C 3.859375 -2.226562 3.925781 -2.035156 4.0625 -1.921875 C 4.207031 -1.804688 4.394531 -1.75 4.625 -1.75 C 4.695312 -1.75 4.773438 -1.753906 4.859375 -1.765625 C 4.941406 -1.773438 5.03125 -1.789062 5.125 -1.8125 C 5.332031 -1.863281 5.460938 -1.796875 5.515625 -1.609375 L 5.828125 -0.375 C 5.859375 -0.28125 5.859375 -0.195312 5.828125 -0.125 C 5.796875 -0.0507812 5.726562 -0.00390625 5.625 0.015625 C 5.394531 0.078125 5.171875 0.117188 4.953125 0.140625 C 4.734375 0.160156 4.519531 0.171875 4.3125 0.171875 Z M 4.3125 0.171875 "/></g></g></g><g fill="#804098" fill-opacity="1"><g transform="translate(112.834812, 294.367245)"><g><path d="M 3.78125 0.171875 C 3.226562 0.171875 2.738281 0.078125 2.3125 -0.109375 C 1.882812 -0.296875 1.550781 -0.578125 1.3125 -0.953125 C 1.082031 -1.328125 0.96875 -1.785156 0.96875 -2.328125 L 0.96875 -11.046875 C 0.96875 -11.253906 1.066406 -11.359375 1.265625 -11.359375 L 3.015625 -11.359375 C 3.210938 -11.359375 3.3125 -11.253906 3.3125 -11.046875 L 3.3125 -2.5 C 3.3125 -2.226562 3.378906 -2.035156 3.515625 -1.921875 C 3.660156 -1.804688 3.847656 -1.75 4.078125 -1.75 C 4.148438 -1.75 4.226562 -1.753906 4.3125 -1.765625 C 4.40625 -1.773438 4.5 -1.789062 4.59375 -1.8125 C 4.789062 -1.863281 4.914062 -1.796875 4.96875 -1.609375 L 5.296875 -0.375 C 5.328125 -0.28125 5.320312 -0.195312 5.28125 -0.125 C 5.25 -0.0507812 5.1875 -0.00390625 5.09375 0.015625 C 4.863281 0.078125 4.640625 0.117188 4.421875 0.140625 C 4.203125 0.160156 3.988281 0.171875 3.78125 0.171875 Z M 3.78125 0.171875 "/></g></g></g><g fill="#804098" fill-opacity="1"><g transform="translate(119.784623, 294.367245)"><g><path d="M 4.796875 -8.390625 C 5.390625 -8.390625 5.929688 -8.289062 6.421875 -8.09375 C 6.910156 -7.894531 7.332031 -7.609375 7.6875 -7.234375 C 8.050781 -6.859375 8.328125 -6.410156 8.515625 -5.890625 C 8.710938 -5.367188 8.8125 -4.78125 8.8125 -4.125 C 8.8125 -3.988281 8.785156 -3.890625 8.734375 -3.828125 C 8.691406 -3.773438 8.601562 -3.75 8.46875 -3.75 L 2.953125 -3.75 C 2.972656 -3.320312 3.078125 -2.96875 3.265625 -2.6875 C 3.460938 -2.40625 3.710938 -2.191406 4.015625 -2.046875 C 4.328125 -1.898438 4.65625 -1.828125 5 -1.828125 C 5.332031 -1.828125 5.671875 -1.890625 6.015625 -2.015625 C 6.367188 -2.148438 6.703125 -2.34375 7.015625 -2.59375 C 7.171875 -2.695312 7.3125 -2.691406 7.4375 -2.578125 L 8.3125 -1.453125 C 8.457031 -1.316406 8.429688 -1.171875 8.234375 -1.015625 C 7.734375 -0.617188 7.195312 -0.320312 6.625 -0.125 C 6.0625 0.0703125 5.492188 0.171875 4.921875 0.171875 C 4.335938 0.171875 3.789062 0.078125 3.28125 -0.109375 C 2.769531 -0.304688 2.316406 -0.585938 1.921875 -0.953125 C 1.535156 -1.328125 1.234375 -1.78125 1.015625 -2.3125 C 0.796875 -2.84375 0.6875 -3.441406 0.6875 -4.109375 C 0.6875 -4.765625 0.785156 -5.351562 0.984375 -5.875 C 1.191406 -6.40625 1.476562 -6.851562 1.84375 -7.21875 C 2.21875 -7.59375 2.65625 -7.878906 3.15625 -8.078125 C 3.65625 -8.285156 4.203125 -8.390625 4.796875 -8.390625 Z M 4.859375 -6.53125 C 4.640625 -6.53125 4.410156 -6.488281 4.171875 -6.40625 C 3.929688 -6.332031 3.710938 -6.203125 3.515625 -6.015625 C 3.316406 -5.835938 3.175781 -5.59375 3.09375 -5.28125 L 6.4375 -5.28125 C 6.375 -5.59375 6.257812 -5.835938 6.09375 -6.015625 C 5.925781 -6.203125 5.734375 -6.332031 5.515625 -6.40625 C 5.304688 -6.488281 5.085938 -6.53125 4.859375 -6.53125 Z M 4.859375 -6.53125 "/></g></g></g><g fill="#804098" fill-opacity="1"><g transform="translate(130.519589, 294.367245)"><g/></g></g><g fill="#804098" fill-opacity="1"><g transform="translate(136.493539, 294.367245)"><g><path d="M 6.75 0.28125 C 5.84375 0.28125 5.019531 0.144531 4.28125 -0.125 C 3.539062 -0.40625 2.898438 -0.804688 2.359375 -1.328125 C 1.816406 -1.859375 1.394531 -2.488281 1.09375 -3.21875 C 0.800781 -3.957031 0.65625 -4.773438 0.65625 -5.671875 C 0.65625 -6.578125 0.800781 -7.394531 1.09375 -8.125 C 1.394531 -8.851562 1.816406 -9.476562 2.359375 -10 C 2.898438 -10.53125 3.539062 -10.9375 4.28125 -11.21875 C 5.019531 -11.5 5.84375 -11.640625 6.75 -11.640625 C 7.644531 -11.640625 8.460938 -11.5 9.203125 -11.21875 C 9.953125 -10.9375 10.597656 -10.53125 11.140625 -10 C 11.679688 -9.476562 12.097656 -8.851562 12.390625 -8.125 C 12.691406 -7.394531 12.84375 -6.578125 12.84375 -5.671875 C 12.84375 -4.773438 12.691406 -3.957031 12.390625 -3.21875 C 12.097656 -2.488281 11.679688 -1.859375 11.140625 -1.328125 C 10.597656 -0.804688 9.953125 -0.40625 9.203125 -0.125 C 8.460938 0.144531 7.644531 0.28125 6.75 0.28125 Z M 6.75 -2.0625 C 7.257812 -2.0625 7.726562 -2.144531 8.15625 -2.3125 C 8.582031 -2.488281 8.953125 -2.734375 9.265625 -3.046875 C 9.578125 -3.359375 9.816406 -3.734375 9.984375 -4.171875 C 10.160156 -4.617188 10.25 -5.117188 10.25 -5.671875 C 10.25 -6.222656 10.160156 -6.722656 9.984375 -7.171875 C 9.816406 -7.617188 9.578125 -8 9.265625 -8.3125 C 8.953125 -8.625 8.582031 -8.863281 8.15625 -9.03125 C 7.726562 -9.195312 7.257812 -9.28125 6.75 -9.28125 C 6.226562 -9.28125 5.753906 -9.195312 5.328125 -9.03125 C 4.898438 -8.863281 4.53125 -8.625 4.21875 -8.3125 C 3.90625 -8 3.664062 -7.617188 3.5 -7.171875 C 3.332031 -6.722656 3.25 -6.222656 3.25 -5.671875 C 3.25 -5.128906 3.332031 -4.632812 3.5 -4.1875 C 3.675781 -3.75 3.914062 -3.367188 4.21875 -3.046875 C 4.53125 -2.734375 4.898438 -2.488281 5.328125 -2.3125 C 5.765625 -2.144531 6.238281 -2.0625 6.75 -2.0625 Z M 6.75 -2.0625 "/></g></g></g><g fill="#804098" fill-opacity="1"><g transform="translate(151.279803, 294.367245)"><g><path d="M 5.9375 -8.390625 C 6.425781 -8.390625 6.84375 -8.316406 7.1875 -8.171875 C 7.539062 -8.035156 7.832031 -7.851562 8.0625 -7.625 C 8.300781 -7.394531 8.488281 -7.128906 8.625 -6.828125 C 8.757812 -6.535156 8.851562 -6.234375 8.90625 -5.921875 C 8.96875 -5.609375 9 -5.304688 9 -5.015625 L 9 -0.296875 C 9 -0.0976562 8.898438 0 8.703125 0 L 6.953125 0 C 6.742188 0 6.640625 -0.0976562 6.640625 -0.296875 L 6.640625 -4.59375 C 6.640625 -4.925781 6.582031 -5.226562 6.46875 -5.5 C 6.351562 -5.769531 6.175781 -5.984375 5.9375 -6.140625 C 5.707031 -6.296875 5.425781 -6.375 5.09375 -6.375 C 4.757812 -6.375 4.460938 -6.296875 4.203125 -6.140625 C 3.953125 -5.992188 3.753906 -5.785156 3.609375 -5.515625 C 3.460938 -5.242188 3.390625 -4.929688 3.390625 -4.578125 L 3.390625 -0.296875 C 3.390625 -0.0976562 3.289062 0 3.09375 0 L 1.328125 0 C 1.128906 0 1.03125 -0.0976562 1.03125 -0.296875 L 1.03125 -7.90625 C 1.03125 -8.101562 1.128906 -8.203125 1.328125 -8.203125 L 2.484375 -8.203125 C 2.640625 -8.203125 2.75 -8.117188 2.8125 -7.953125 L 3.046875 -7.1875 C 3.492188 -7.613281 3.96875 -7.921875 4.46875 -8.109375 C 4.96875 -8.296875 5.457031 -8.390625 5.9375 -8.390625 Z M 5.9375 -8.390625 "/></g></g></g><g fill="#804098" fill-opacity="1"><g transform="translate(162.502702, 294.367245)"><g><path d="M 4.796875 -8.390625 C 5.390625 -8.390625 5.929688 -8.289062 6.421875 -8.09375 C 6.910156 -7.894531 7.332031 -7.609375 7.6875 -7.234375 C 8.050781 -6.859375 8.328125 -6.410156 8.515625 -5.890625 C 8.710938 -5.367188 8.8125 -4.78125 8.8125 -4.125 C 8.8125 -3.988281 8.785156 -3.890625 8.734375 -3.828125 C 8.691406 -3.773438 8.601562 -3.75 8.46875 -3.75 L 2.953125 -3.75 C 2.972656 -3.320312 3.078125 -2.96875 3.265625 -2.6875 C 3.460938 -2.40625 3.710938 -2.191406 4.015625 -2.046875 C 4.328125 -1.898438 4.65625 -1.828125 5 -1.828125 C 5.332031 -1.828125 5.671875 -1.890625 6.015625 -2.015625 C 6.367188 -2.148438 6.703125 -2.34375 7.015625 -2.59375 C 7.171875 -2.695312 7.3125 -2.691406 7.4375 -2.578125 L 8.3125 -1.453125 C 8.457031 -1.316406 8.429688 -1.171875 8.234375 -1.015625 C 7.734375 -0.617188 7.195312 -0.320312 6.625 -0.125 C 6.0625 0.0703125 5.492188 0.171875 4.921875 0.171875 C 4.335938 0.171875 3.789062 0.078125 3.28125 -0.109375 C 2.769531 -0.304688 2.316406 -0.585938 1.921875 -0.953125 C 1.535156 -1.328125 1.234375 -1.78125 1.015625 -2.3125 C 0.796875 -2.84375 0.6875 -3.441406 0.6875 -4.109375 C 0.6875 -4.765625 0.785156 -5.351562 0.984375 -5.875 C 1.191406 -6.40625 1.476562 -6.851562 1.84375 -7.21875 C 2.21875 -7.59375 2.65625 -7.878906 3.15625 -8.078125 C 3.65625 -8.285156 4.203125 -8.390625 4.796875 -8.390625 Z M 4.859375 -6.53125 C 4.640625 -6.53125 4.410156 -6.488281 4.171875 -6.40625 C 3.929688 -6.332031 3.710938 -6.203125 3.515625 -6.015625 C 3.316406 -5.835938 3.175781 -5.59375 3.09375 -5.28125 L 6.4375 -5.28125 C 6.375 -5.59375 6.257812 -5.835938 6.09375 -6.015625 C 5.925781 -6.203125 5.734375 -6.332031 5.515625 -6.40625 C 5.304688 -6.488281 5.085938 -6.53125 4.859375 -6.53125 Z M 4.859375 -6.53125 "/></g></g></g><g fill="#804098" fill-opacity="1"><g transform="translate(173.237672, 294.367245)"><g><path d="M 2.46875 1.90625 L 1.375 1.90625 C 1.28125 1.90625 1.207031 1.867188 1.15625 1.796875 C 1.101562 1.734375 1.085938 1.65625 1.109375 1.5625 L 1.921875 -2.40625 C 1.960938 -2.582031 2.070312 -2.671875 2.25 -2.671875 L 3.703125 -2.671875 C 3.804688 -2.671875 3.878906 -2.640625 3.921875 -2.578125 C 3.972656 -2.515625 3.988281 -2.4375 3.96875 -2.34375 L 2.8125 1.65625 C 2.769531 1.820312 2.65625 1.90625 2.46875 1.90625 Z M 2.46875 1.90625 "/></g></g></g><g fill="#804098" fill-opacity="1"><g transform="translate(179.411232, 294.367245)"><g/></g></g><g fill="#804098" fill-opacity="1"><g transform="translate(185.385185, 294.367245)"><g><path d="M 5.59375 0 L 1.421875 0 C 1.222656 0 1.125 -0.0976562 1.125 -0.296875 L 1.125 -11.046875 C 1.125 -11.253906 1.222656 -11.359375 1.421875 -11.359375 L 5.46875 -11.359375 C 6.164062 -11.359375 6.753906 -11.28125 7.234375 -11.125 C 7.710938 -10.976562 8.09375 -10.769531 8.375 -10.5 C 8.664062 -10.226562 8.875 -9.914062 9 -9.5625 C 9.132812 -9.21875 9.203125 -8.84375 9.203125 -8.4375 C 9.203125 -7.84375 9.066406 -7.320312 8.796875 -6.875 C 8.523438 -6.4375 8.15625 -6.085938 7.6875 -5.828125 C 8.15625 -5.671875 8.53125 -5.457031 8.8125 -5.1875 C 9.09375 -4.925781 9.296875 -4.625 9.421875 -4.28125 C 9.554688 -3.945312 9.625 -3.59375 9.625 -3.21875 C 9.625 -2.90625 9.585938 -2.59375 9.515625 -2.28125 C 9.441406 -1.976562 9.316406 -1.6875 9.140625 -1.40625 C 8.960938 -1.132812 8.71875 -0.894531 8.40625 -0.6875 C 8.101562 -0.476562 7.71875 -0.3125 7.25 -0.1875 C 6.789062 -0.0625 6.238281 0 5.59375 0 Z M 3.703125 -9.125 L 3.703125 -6.796875 L 5.53125 -6.796875 C 5.882812 -6.796875 6.15625 -6.847656 6.34375 -6.953125 C 6.539062 -7.054688 6.679688 -7.195312 6.765625 -7.375 C 6.847656 -7.550781 6.890625 -7.753906 6.890625 -7.984375 C 6.890625 -8.203125 6.84375 -8.394531 6.75 -8.5625 C 6.664062 -8.738281 6.519531 -8.875 6.3125 -8.96875 C 6.101562 -9.070312 5.804688 -9.125 5.421875 -9.125 Z M 3.703125 -4.8125 L 3.703125 -2.234375 L 5.53125 -2.234375 C 5.9375 -2.234375 6.242188 -2.289062 6.453125 -2.40625 C 6.671875 -2.53125 6.820312 -2.691406 6.90625 -2.890625 C 6.988281 -3.085938 7.03125 -3.300781 7.03125 -3.53125 C 7.03125 -3.78125 6.984375 -4 6.890625 -4.1875 C 6.804688 -4.382812 6.65625 -4.535156 6.4375 -4.640625 C 6.226562 -4.753906 5.941406 -4.8125 5.578125 -4.8125 Z M 3.703125 -4.8125 "/></g></g></g><g fill="#804098" fill-opacity="1"><g transform="translate(197.007301, 294.367245)"><g><path d="M 2.203125 -8.8125 C 1.941406 -8.8125 1.707031 -8.867188 1.5 -8.984375 C 1.300781 -9.097656 1.140625 -9.253906 1.015625 -9.453125 C 0.898438 -9.660156 0.84375 -9.894531 0.84375 -10.15625 C 0.84375 -10.40625 0.898438 -10.632812 1.015625 -10.84375 C 1.140625 -11.050781 1.300781 -11.210938 1.5 -11.328125 C 1.707031 -11.453125 1.941406 -11.515625 2.203125 -11.515625 C 2.453125 -11.515625 2.675781 -11.453125 2.875 -11.328125 C 3.082031 -11.210938 3.242188 -11.050781 3.359375 -10.84375 C 3.484375 -10.632812 3.546875 -10.40625 3.546875 -10.15625 C 3.546875 -9.894531 3.484375 -9.660156 3.359375 -9.453125 C 3.242188 -9.253906 3.082031 -9.097656 2.875 -8.984375 C 2.675781 -8.867188 2.453125 -8.8125 2.203125 -8.8125 Z M 3.09375 0 L 1.328125 0 C 1.128906 0 1.03125 -0.0976562 1.03125 -0.296875 L 1.03125 -7.90625 C 1.03125 -8.101562 1.128906 -8.203125 1.328125 -8.203125 L 3.09375 -8.203125 C 3.289062 -8.203125 3.390625 -8.101562 3.390625 -7.90625 L 3.390625 -0.296875 C 3.390625 -0.0976562 3.289062 0 3.09375 0 Z M 3.09375 0 "/></g></g></g><g fill="#804098" fill-opacity="1"><g transform="translate(202.71511, 294.367245)"><g><path d="M 8.03125 -8.203125 L 9.1875 -8.203125 C 9.382812 -8.203125 9.484375 -8.101562 9.484375 -7.90625 L 9.46875 -0.453125 C 9.46875 0.421875 9.296875 1.15625 8.953125 1.75 C 8.609375 2.34375 8.128906 2.785156 7.515625 3.078125 C 6.910156 3.378906 6.203125 3.53125 5.390625 3.53125 C 4.773438 3.53125 4.140625 3.4375 3.484375 3.25 C 2.835938 3.0625 2.191406 2.796875 1.546875 2.453125 C 1.367188 2.347656 1.335938 2.210938 1.453125 2.046875 L 2.171875 0.6875 C 2.265625 0.53125 2.398438 0.503906 2.578125 0.609375 C 3.015625 0.847656 3.460938 1.046875 3.921875 1.203125 C 4.378906 1.359375 4.816406 1.4375 5.234375 1.4375 C 5.597656 1.4375 5.914062 1.375 6.1875 1.25 C 6.46875 1.132812 6.6875 0.941406 6.84375 0.671875 C 7 0.410156 7.078125 0.0546875 7.078125 -0.390625 L 7.078125 -1.1875 C 6.734375 -0.78125 6.347656 -0.488281 5.921875 -0.3125 C 5.503906 -0.144531 5.070312 -0.0625 4.625 -0.0625 C 4.039062 -0.0625 3.507812 -0.160156 3.03125 -0.359375 C 2.550781 -0.554688 2.128906 -0.832031 1.765625 -1.1875 C 1.410156 -1.550781 1.132812 -1.976562 0.9375 -2.46875 C 0.75 -2.96875 0.65625 -3.515625 0.65625 -4.109375 C 0.65625 -4.691406 0.75 -5.238281 0.9375 -5.75 C 1.132812 -6.269531 1.410156 -6.726562 1.765625 -7.125 C 2.128906 -7.519531 2.550781 -7.828125 3.03125 -8.046875 C 3.507812 -8.273438 4.039062 -8.390625 4.625 -8.390625 C 5.1875 -8.390625 5.707031 -8.273438 6.1875 -8.046875 C 6.675781 -7.828125 7.09375 -7.519531 7.4375 -7.125 L 7.703125 -7.953125 C 7.753906 -8.117188 7.863281 -8.203125 8.03125 -8.203125 Z M 5.125 -2.109375 C 5.507812 -2.109375 5.859375 -2.195312 6.171875 -2.375 C 6.484375 -2.550781 6.734375 -2.800781 6.921875 -3.125 C 7.117188 -3.445312 7.21875 -3.8125 7.21875 -4.21875 C 7.21875 -4.632812 7.117188 -5 6.921875 -5.3125 C 6.734375 -5.632812 6.484375 -5.882812 6.171875 -6.0625 C 5.859375 -6.238281 5.507812 -6.328125 5.125 -6.328125 C 4.738281 -6.328125 4.382812 -6.238281 4.0625 -6.0625 C 3.738281 -5.882812 3.484375 -5.632812 3.296875 -5.3125 C 3.109375 -5 3.015625 -4.632812 3.015625 -4.21875 C 3.015625 -3.8125 3.109375 -3.445312 3.296875 -3.125 C 3.484375 -2.800781 3.738281 -2.550781 4.0625 -2.375 C 4.382812 -2.195312 4.738281 -2.109375 5.125 -2.109375 Z M 5.125 -2.109375 "/></g></g></g><g fill="#804098" fill-opacity="1"><g transform="translate(214.499868, 294.367245)"><g/></g></g><g fill="#804098" fill-opacity="1"><g transform="translate(220.473821, 294.367245)"><g><path d="M 4.859375 0 L 1.421875 0 C 1.222656 0 1.125 -0.0976562 1.125 -0.296875 L 1.125 -11.046875 C 1.125 -11.253906 1.222656 -11.359375 1.421875 -11.359375 L 4.859375 -11.359375 C 6.222656 -11.359375 7.359375 -11.132812 8.265625 -10.6875 C 9.171875 -10.238281 9.847656 -9.585938 10.296875 -8.734375 C 10.742188 -7.890625 10.96875 -6.867188 10.96875 -5.671875 C 10.96875 -4.492188 10.742188 -3.476562 10.296875 -2.625 C 9.859375 -1.78125 9.1875 -1.128906 8.28125 -0.671875 C 7.375 -0.222656 6.234375 0 4.859375 0 Z M 3.734375 -9.125 L 3.734375 -2.234375 L 4.859375 -2.234375 C 6.023438 -2.234375 6.90625 -2.535156 7.5 -3.140625 C 8.09375 -3.753906 8.390625 -4.609375 8.390625 -5.703125 C 8.390625 -6.804688 8.09375 -7.648438 7.5 -8.234375 C 6.90625 -8.828125 6.023438 -9.125 4.859375 -9.125 Z M 3.734375 -9.125 "/></g></g></g><g fill="#804098" fill-opacity="1"><g transform="translate(233.411869, 294.367245)"><g><path d="M 3.09375 0 L 1.328125 0 C 1.128906 0 1.03125 -0.0976562 1.03125 -0.296875 L 1.015625 -7.90625 C 1.015625 -8.101562 1.117188 -8.203125 1.328125 -8.203125 L 2.46875 -8.203125 C 2.632812 -8.203125 2.742188 -8.117188 2.796875 -7.953125 L 3.046875 -7.125 C 3.359375 -7.582031 3.71875 -7.90625 4.125 -8.09375 C 4.53125 -8.289062 4.9375 -8.390625 5.34375 -8.390625 C 5.570312 -8.390625 5.828125 -8.347656 6.109375 -8.265625 C 6.191406 -8.234375 6.25 -8.179688 6.28125 -8.109375 C 6.3125 -8.046875 6.316406 -7.972656 6.296875 -7.890625 L 5.90625 -6.390625 C 5.863281 -6.203125 5.738281 -6.132812 5.53125 -6.1875 C 5.394531 -6.207031 5.265625 -6.222656 5.140625 -6.234375 C 5.015625 -6.253906 4.90625 -6.265625 4.8125 -6.265625 C 4.34375 -6.265625 3.988281 -6.113281 3.75 -5.8125 C 3.507812 -5.507812 3.390625 -5.054688 3.390625 -4.453125 L 3.390625 -0.296875 C 3.390625 -0.0976562 3.289062 0 3.09375 0 Z M 3.09375 0 "/></g></g></g><g fill="#804098" fill-opacity="1"><g transform="translate(241.33015, 294.367245)"><g><path d="M 4.796875 -8.390625 C 5.390625 -8.390625 5.929688 -8.289062 6.421875 -8.09375 C 6.910156 -7.894531 7.332031 -7.609375 7.6875 -7.234375 C 8.050781 -6.859375 8.328125 -6.410156 8.515625 -5.890625 C 8.710938 -5.367188 8.8125 -4.78125 8.8125 -4.125 C 8.8125 -3.988281 8.785156 -3.890625 8.734375 -3.828125 C 8.691406 -3.773438 8.601562 -3.75 8.46875 -3.75 L 2.953125 -3.75 C 2.972656 -3.320312 3.078125 -2.96875 3.265625 -2.6875 C 3.460938 -2.40625 3.710938 -2.191406 4.015625 -2.046875 C 4.328125 -1.898438 4.65625 -1.828125 5 -1.828125 C 5.332031 -1.828125 5.671875 -1.890625 6.015625 -2.015625 C 6.367188 -2.148438 6.703125 -2.34375 7.015625 -2.59375 C 7.171875 -2.695312 7.3125 -2.691406 7.4375 -2.578125 L 8.3125 -1.453125 C 8.457031 -1.316406 8.429688 -1.171875 8.234375 -1.015625 C 7.734375 -0.617188 7.195312 -0.320312 6.625 -0.125 C 6.0625 0.0703125 5.492188 0.171875 4.921875 0.171875 C 4.335938 0.171875 3.789062 0.078125 3.28125 -0.109375 C 2.769531 -0.304688 2.316406 -0.585938 1.921875 -0.953125 C 1.535156 -1.328125 1.234375 -1.78125 1.015625 -2.3125 C 0.796875 -2.84375 0.6875 -3.441406 0.6875 -4.109375 C 0.6875 -4.765625 0.785156 -5.351562 0.984375 -5.875 C 1.191406 -6.40625 1.476562 -6.851562 1.84375 -7.21875 C 2.21875 -7.59375 2.65625 -7.878906 3.15625 -8.078125 C 3.65625 -8.285156 4.203125 -8.390625 4.796875 -8.390625 Z M 4.859375 -6.53125 C 4.640625 -6.53125 4.410156 -6.488281 4.171875 -6.40625 C 3.929688 -6.332031 3.710938 -6.203125 3.515625 -6.015625 C 3.316406 -5.835938 3.175781 -5.59375 3.09375 -5.28125 L 6.4375 -5.28125 C 6.375 -5.59375 6.257812 -5.835938 6.09375 -6.015625 C 5.925781 -6.203125 5.734375 -6.332031 5.515625 -6.40625 C 5.304688 -6.488281 5.085938 -6.53125 4.859375 -6.53125 Z M 4.859375 -6.53125 "/></g></g></g><g fill="#804098" fill-opacity="1"><g transform="translate(252.06512, 294.367245)"><g><path d="M 4.15625 -8.390625 C 4.664062 -8.390625 5.140625 -8.332031 5.578125 -8.21875 C 6.023438 -8.101562 6.421875 -7.921875 6.765625 -7.671875 C 7.109375 -7.429688 7.375 -7.113281 7.5625 -6.71875 C 7.757812 -6.320312 7.859375 -5.835938 7.859375 -5.265625 L 7.859375 -0.296875 C 7.859375 -0.0976562 7.757812 0 7.5625 0 L 6.40625 0 C 6.226562 0 6.117188 -0.0859375 6.078125 -0.265625 L 5.859375 -0.953125 C 5.640625 -0.671875 5.398438 -0.445312 5.140625 -0.28125 C 4.878906 -0.113281 4.601562 0 4.3125 0.0625 C 4.03125 0.132812 3.75 0.171875 3.46875 0.171875 C 3.101562 0.171875 2.753906 0.117188 2.421875 0.015625 C 2.085938 -0.0859375 1.785156 -0.25 1.515625 -0.46875 C 1.253906 -0.6875 1.046875 -0.957031 0.890625 -1.28125 C 0.742188 -1.601562 0.671875 -1.972656 0.671875 -2.390625 C 0.671875 -2.828125 0.753906 -3.207031 0.921875 -3.53125 C 1.085938 -3.863281 1.316406 -4.140625 1.609375 -4.359375 C 1.910156 -4.578125 2.253906 -4.738281 2.640625 -4.84375 C 3.023438 -4.957031 3.441406 -5.015625 3.890625 -5.015625 C 4.148438 -5.015625 4.414062 -4.992188 4.6875 -4.953125 C 4.957031 -4.921875 5.226562 -4.867188 5.5 -4.796875 L 5.5 -5.203125 C 5.5 -5.515625 5.429688 -5.765625 5.296875 -5.953125 C 5.160156 -6.140625 4.976562 -6.273438 4.75 -6.359375 C 4.519531 -6.441406 4.257812 -6.484375 3.96875 -6.484375 C 3.65625 -6.484375 3.320312 -6.441406 2.96875 -6.359375 C 2.625 -6.285156 2.273438 -6.179688 1.921875 -6.046875 C 1.835938 -6.015625 1.757812 -6.007812 1.6875 -6.03125 C 1.613281 -6.0625 1.5625 -6.125 1.53125 -6.21875 L 1.109375 -7.53125 C 1.054688 -7.71875 1.125 -7.84375 1.3125 -7.90625 C 1.769531 -8.050781 2.242188 -8.164062 2.734375 -8.25 C 3.222656 -8.34375 3.695312 -8.390625 4.15625 -8.390625 Z M 4.125 -1.46875 C 4.269531 -1.46875 4.421875 -1.488281 4.578125 -1.53125 C 4.734375 -1.582031 4.878906 -1.664062 5.015625 -1.78125 C 5.160156 -1.894531 5.273438 -2.046875 5.359375 -2.234375 C 5.453125 -2.421875 5.5 -2.648438 5.5 -2.921875 L 5.5 -3.3125 C 5.320312 -3.351562 5.144531 -3.382812 4.96875 -3.40625 C 4.800781 -3.4375 4.640625 -3.453125 4.484375 -3.453125 C 4.210938 -3.453125 3.96875 -3.414062 3.75 -3.34375 C 3.53125 -3.28125 3.351562 -3.171875 3.21875 -3.015625 C 3.09375 -2.867188 3.03125 -2.671875 3.03125 -2.421875 C 3.03125 -2.203125 3.078125 -2.019531 3.171875 -1.875 C 3.273438 -1.726562 3.410156 -1.625 3.578125 -1.5625 C 3.742188 -1.5 3.925781 -1.46875 4.125 -1.46875 Z M 4.125 -1.46875 "/></g></g></g><g fill="#804098" fill-opacity="1"><g transform="translate(262.142123, 294.367245)"><g><path d="M 10.734375 -8.390625 C 11.191406 -8.390625 11.601562 -8.304688 11.96875 -8.140625 C 12.34375 -7.984375 12.65625 -7.757812 12.90625 -7.46875 C 13.164062 -7.1875 13.359375 -6.851562 13.484375 -6.46875 C 13.617188 -6.082031 13.6875 -5.664062 13.6875 -5.21875 L 13.6875 -0.296875 C 13.6875 -0.0976562 13.585938 0 13.390625 0 L 11.640625 0 C 11.429688 0 11.328125 -0.0976562 11.328125 -0.296875 L 11.328125 -4.71875 C 11.328125 -5.050781 11.28125 -5.335938 11.1875 -5.578125 C 11.101562 -5.828125 10.960938 -6.019531 10.765625 -6.15625 C 10.578125 -6.300781 10.328125 -6.375 10.015625 -6.375 C 9.535156 -6.375 9.171875 -6.222656 8.921875 -5.921875 C 8.671875 -5.617188 8.546875 -5.226562 8.546875 -4.75 L 8.546875 -0.296875 C 8.546875 -0.0976562 8.445312 0 8.25 0 L 6.5 0 C 6.289062 0 6.1875 -0.0976562 6.1875 -0.296875 L 6.1875 -4.71875 C 6.1875 -5.050781 6.144531 -5.335938 6.0625 -5.578125 C 5.976562 -5.828125 5.835938 -6.019531 5.640625 -6.15625 C 5.453125 -6.300781 5.191406 -6.375 4.859375 -6.375 C 4.367188 -6.375 4 -6.222656 3.75 -5.921875 C 3.507812 -5.617188 3.390625 -5.226562 3.390625 -4.75 L 3.390625 -0.296875 C 3.390625 -0.0976562 3.289062 0 3.09375 0 L 1.328125 0 C 1.128906 0 1.03125 -0.0976562 1.03125 -0.296875 L 1.03125 -7.90625 C 1.03125 -8.101562 1.128906 -8.203125 1.328125 -8.203125 L 2.484375 -8.203125 C 2.640625 -8.203125 2.75 -8.117188 2.8125 -7.953125 L 3.03125 -7.265625 C 3.476562 -7.691406 3.914062 -7.984375 4.34375 -8.140625 C 4.78125 -8.304688 5.203125 -8.390625 5.609375 -8.390625 C 6.078125 -8.390625 6.515625 -8.273438 6.921875 -8.046875 C 7.335938 -7.816406 7.660156 -7.5 7.890625 -7.09375 C 8.117188 -7.375 8.382812 -7.609375 8.6875 -7.796875 C 9 -7.992188 9.328125 -8.140625 9.671875 -8.234375 C 10.023438 -8.335938 10.378906 -8.390625 10.734375 -8.390625 Z M 10.734375 -8.390625 "/></g></g></g><g fill="#804098" fill-opacity="1"><g transform="translate(278.05211, 294.367245)"><g><path d="M 3.5625 0.171875 C 3.164062 0.171875 2.757812 0.140625 2.34375 0.078125 C 1.925781 0.0234375 1.484375 -0.0546875 1.015625 -0.171875 C 0.910156 -0.191406 0.84375 -0.238281 0.8125 -0.3125 C 0.78125 -0.382812 0.78125 -0.460938 0.8125 -0.546875 L 1.234375 -1.8125 C 1.296875 -1.988281 1.421875 -2.050781 1.609375 -2 C 1.960938 -1.882812 2.3125 -1.796875 2.65625 -1.734375 C 3 -1.671875 3.304688 -1.640625 3.578125 -1.640625 C 3.847656 -1.640625 4.070312 -1.679688 4.25 -1.765625 C 4.425781 -1.859375 4.515625 -2.019531 4.515625 -2.25 C 4.515625 -2.363281 4.453125 -2.46875 4.328125 -2.5625 C 4.210938 -2.65625 4.054688 -2.75 3.859375 -2.84375 C 3.671875 -2.9375 3.453125 -3.03125 3.203125 -3.125 C 2.960938 -3.226562 2.722656 -3.34375 2.484375 -3.46875 C 2.179688 -3.632812 1.894531 -3.816406 1.625 -4.015625 C 1.363281 -4.222656 1.148438 -4.46875 0.984375 -4.75 C 0.816406 -5.03125 0.734375 -5.363281 0.734375 -5.75 C 0.734375 -6.226562 0.816406 -6.628906 0.984375 -6.953125 C 1.160156 -7.285156 1.394531 -7.554688 1.6875 -7.765625 C 1.976562 -7.984375 2.304688 -8.140625 2.671875 -8.234375 C 3.046875 -8.335938 3.429688 -8.390625 3.828125 -8.390625 C 4.160156 -8.390625 4.53125 -8.351562 4.9375 -8.28125 C 5.34375 -8.21875 5.75 -8.125 6.15625 -8 C 6.238281 -7.976562 6.300781 -7.9375 6.34375 -7.875 C 6.382812 -7.8125 6.382812 -7.726562 6.34375 -7.625 L 5.96875 -6.34375 C 5.945312 -6.25 5.898438 -6.179688 5.828125 -6.140625 C 5.765625 -6.109375 5.6875 -6.113281 5.59375 -6.15625 C 5.269531 -6.257812 4.953125 -6.347656 4.640625 -6.421875 C 4.328125 -6.492188 4.050781 -6.53125 3.8125 -6.53125 C 3.582031 -6.53125 3.398438 -6.492188 3.265625 -6.421875 C 3.128906 -6.347656 3.0625 -6.226562 3.0625 -6.0625 C 3.0625 -5.894531 3.144531 -5.753906 3.3125 -5.640625 C 3.488281 -5.523438 3.710938 -5.410156 3.984375 -5.296875 C 4.253906 -5.191406 4.539062 -5.070312 4.84375 -4.9375 C 5.09375 -4.820312 5.332031 -4.691406 5.5625 -4.546875 C 5.800781 -4.410156 6.019531 -4.242188 6.21875 -4.046875 C 6.414062 -3.859375 6.570312 -3.632812 6.6875 -3.375 C 6.8125 -3.125 6.875 -2.828125 6.875 -2.484375 C 6.875 -1.972656 6.773438 -1.546875 6.578125 -1.203125 C 6.390625 -0.859375 6.132812 -0.582031 5.8125 -0.375 C 5.5 -0.175781 5.144531 -0.0351562 4.75 0.046875 C 4.351562 0.128906 3.957031 0.171875 3.5625 0.171875 Z M 3.5625 0.171875 "/></g></g></g><g fill="#804098" fill-opacity="1"><g transform="translate(286.850144, 294.367245)"><g><path d="M 2.65625 0.171875 C 2.382812 0.171875 2.132812 0.101562 1.90625 -0.03125 C 1.675781 -0.164062 1.492188 -0.347656 1.359375 -0.578125 C 1.222656 -0.804688 1.15625 -1.054688 1.15625 -1.328125 C 1.15625 -1.597656 1.222656 -1.847656 1.359375 -2.078125 C 1.492188 -2.304688 1.675781 -2.488281 1.90625 -2.625 C 2.132812 -2.769531 2.382812 -2.84375 2.65625 -2.84375 C 2.9375 -2.84375 3.191406 -2.773438 3.421875 -2.640625 C 3.648438 -2.503906 3.832031 -2.320312 3.96875 -2.09375 C 4.101562 -1.863281 4.171875 -1.609375 4.171875 -1.328125 C 4.171875 -1.046875 4.097656 -0.789062 3.953125 -0.5625 C 3.816406 -0.332031 3.632812 -0.148438 3.40625 -0.015625 C 3.1875 0.109375 2.9375 0.171875 2.65625 0.171875 Z M 2.65625 0.171875 "/></g></g></g></svg>